<mxfile host="Electron" agent="Mozilla/5.0 (Windows NT 10.0; Win64; x64) AppleWebKit/537.36 (KHTML, like Gecko) draw.io/24.7.17 Chrome/128.0.6613.36 Electron/32.0.1 Safari/537.36" version="24.7.17" pages="2">
  <diagram name="V1" id="YkTgJB796IQSJcZCWnOT">
    <mxGraphModel dx="2849" dy="1594" grid="1" gridSize="10" guides="1" tooltips="1" connect="1" arrows="1" fold="1" page="0" pageScale="1" pageWidth="827" pageHeight="1169" math="0" shadow="0">
      <root>
        <mxCell id="0" />
        <mxCell id="1" parent="0" />
        <mxCell id="tDDXm-gYxZy8OXo06DHz-100" style="edgeStyle=orthogonalEdgeStyle;orthogonalLoop=1;jettySize=auto;html=1;exitX=1;exitY=0.5;exitDx=0;exitDy=0;entryX=0;entryY=0.25;entryDx=0;entryDy=0;strokeWidth=2;jumpStyle=arc;jumpSize=12;" parent="1" source="tDDXm-gYxZy8OXo06DHz-74" target="tDDXm-gYxZy8OXo06DHz-21" edge="1">
          <mxGeometry relative="1" as="geometry" />
        </mxCell>
        <mxCell id="tDDXm-gYxZy8OXo06DHz-102" style="edgeStyle=orthogonalEdgeStyle;orthogonalLoop=1;jettySize=auto;html=1;exitX=1;exitY=0.5;exitDx=0;exitDy=0;entryX=0;entryY=0.25;entryDx=0;entryDy=0;strokeWidth=2;jumpStyle=arc;jumpSize=12;" parent="1" source="tDDXm-gYxZy8OXo06DHz-74" target="tDDXm-gYxZy8OXo06DHz-14" edge="1">
          <mxGeometry relative="1" as="geometry">
            <Array as="points">
              <mxPoint y="-50" />
              <mxPoint y="110" />
            </Array>
          </mxGeometry>
        </mxCell>
        <mxCell id="tDDXm-gYxZy8OXo06DHz-31" style="edgeStyle=orthogonalEdgeStyle;rounded=0;orthogonalLoop=1;jettySize=auto;html=1;exitX=1;exitY=0.5;exitDx=0;exitDy=0;entryX=0;entryY=0.5;entryDx=0;entryDy=0;strokeWidth=2;labelBackgroundColor=none;fontColor=default;" parent="1" source="tDDXm-gYxZy8OXo06DHz-10" target="tDDXm-gYxZy8OXo06DHz-30" edge="1">
          <mxGeometry relative="1" as="geometry" />
        </mxCell>
        <mxCell id="uZgcKNraOqiOFHt2JM9J-14" style="edgeStyle=orthogonalEdgeStyle;rounded=1;orthogonalLoop=1;jettySize=auto;html=1;exitX=1;exitY=0.5;exitDx=0;exitDy=0;entryX=0;entryY=0.5;entryDx=0;entryDy=0;strokeWidth=2;" parent="1" source="tDDXm-gYxZy8OXo06DHz-14" target="uZgcKNraOqiOFHt2JM9J-11" edge="1">
          <mxGeometry relative="1" as="geometry" />
        </mxCell>
        <mxCell id="tDDXm-gYxZy8OXo06DHz-14" value="&lt;div&gt;&lt;span style=&quot;font-weight: normal;&quot;&gt;prio: Normal&lt;/span&gt;&lt;/div&gt;&lt;div&gt;&lt;span style=&quot;font-weight: normal;&quot;&gt;&lt;br&gt;&lt;/span&gt;&lt;/div&gt;Atualizar log" style="rounded=0;whiteSpace=wrap;html=1;fontStyle=1;fontSize=14;verticalAlign=top;strokeWidth=2;labelBackgroundColor=none;" parent="1" vertex="1">
          <mxGeometry x="40" y="80" width="120" height="120" as="geometry" />
        </mxCell>
        <mxCell id="tDDXm-gYxZy8OXo06DHz-140" style="edgeStyle=orthogonalEdgeStyle;orthogonalLoop=1;jettySize=auto;html=1;exitX=0.5;exitY=0;exitDx=0;exitDy=0;entryX=0;entryY=0.5;entryDx=0;entryDy=0;strokeWidth=2;" parent="1" source="tDDXm-gYxZy8OXo06DHz-16" target="tDDXm-gYxZy8OXo06DHz-139" edge="1">
          <mxGeometry relative="1" as="geometry" />
        </mxCell>
        <mxCell id="tDDXm-gYxZy8OXo06DHz-147" style="edgeStyle=orthogonalEdgeStyle;orthogonalLoop=1;jettySize=auto;html=1;exitX=0.5;exitY=1;exitDx=0;exitDy=0;entryX=0;entryY=0.5;entryDx=0;entryDy=0;strokeWidth=2;" parent="1" source="tDDXm-gYxZy8OXo06DHz-16" target="tDDXm-gYxZy8OXo06DHz-142" edge="1">
          <mxGeometry relative="1" as="geometry" />
        </mxCell>
        <mxCell id="tDDXm-gYxZy8OXo06DHz-16" value="&lt;div&gt;&lt;span style=&quot;font-weight: normal;&quot;&gt;prio:&amp;nbsp;&lt;/span&gt;&lt;/div&gt;&lt;div&gt;&lt;span style=&quot;font-weight: normal;&quot;&gt;&lt;br&gt;&lt;/span&gt;&lt;/div&gt;Ler FLASH" style="rounded=0;whiteSpace=wrap;html=1;fontStyle=1;fontSize=14;verticalAlign=top;strokeWidth=2;labelBackgroundColor=none;" parent="1" vertex="1">
          <mxGeometry x="560" y="80" width="120" height="120" as="geometry" />
        </mxCell>
        <mxCell id="tDDXm-gYxZy8OXo06DHz-17" value="&lt;div&gt;&lt;span style=&quot;font-weight: normal;&quot;&gt;prio: Normal&lt;/span&gt;&lt;/div&gt;&lt;div&gt;&lt;span style=&quot;font-weight: normal;&quot;&gt;&lt;br&gt;&lt;/span&gt;&lt;/div&gt;UART Tx" style="rounded=0;whiteSpace=wrap;html=1;fontStyle=1;fontSize=14;verticalAlign=top;strokeWidth=2;labelBackgroundColor=none;" parent="1" vertex="1">
          <mxGeometry x="560" y="-240" width="120" height="120" as="geometry" />
        </mxCell>
        <mxCell id="tDDXm-gYxZy8OXo06DHz-19" value="" style="group;strokeWidth=2;labelBackgroundColor=none;rounded=0;" parent="1" vertex="1" connectable="0">
          <mxGeometry x="-420" y="380" width="140" height="140" as="geometry" />
        </mxCell>
        <mxCell id="tDDXm-gYxZy8OXo06DHz-12" value="&lt;div&gt;&lt;span style=&quot;font-weight: normal;&quot;&gt;prio:&amp;nbsp;&lt;/span&gt;&lt;/div&gt;&lt;div&gt;&lt;span style=&quot;font-weight: normal;&quot;&gt;&lt;br&gt;&lt;/span&gt;&lt;/div&gt;Ler botÃµes" style="rounded=0;whiteSpace=wrap;html=1;fontStyle=1;fontSize=14;verticalAlign=top;strokeWidth=2;labelBackgroundColor=none;" parent="tDDXm-gYxZy8OXo06DHz-19" vertex="1">
          <mxGeometry x="20" y="20" width="120" height="120" as="geometry" />
        </mxCell>
        <mxCell id="tDDXm-gYxZy8OXo06DHz-3" value="" style="shape=image;verticalLabelPosition=bottom;verticalAlign=top;imageAspect=0;aspect=fixed;image=data:image/png,iVBORw0KGgoAAAANSUhEUgAAADAAAAAtCAIAAABnKH+VAAAAAXNSR0IArs4c6QAAAARnQU1BAACxjwv8YQUAAAAJcEhZcwAADsMAAA7DAcdvqGQAAApHSURBVFhHrVh5UJPpHc5FbnKQcIYQxGvVgs6CBwqrHcGTkUWXWiu6eHTXgu5UF2GqM2C9dxjrMK5WrH+oIyp1YK1HHevRWa+pVsEVF0er7gokIRy5ICF3+nz5PhAUYoL7zPiR7/297/s97+9+pXu9Xtqw4Ha7TSZTZ2enw+HAb2IfOo3D5ojF4tDQUKFQSM0LEkET6u7ubmxs/O+DB81NTa2trVqN1mazOZwO7EOn0fkCvkwmk8tkSpVKqVAkTZw4atQoPp9PLQ4AQRB6/Pjxze+//+Hx43v37jU0NGCESacL+EImk0mjQT10PLxej81ug848NBqDTp8ydSo4paamZmZkKBQKch//CIjQnTt3Ll/+59Wr1+7fv49XsSBUJBaxQ0KYDAaW919PJ/4RDxjR7nCYzeYuq4XDZmfOmTN//vzFixdHRUX5Jg6J9xDS6/UnTpw4cuTI06dPuSFsebgcXoKjEzzedxK6Dx6Px2K1trW38fj82ZkZK5bnfZabS80YDP4I1dXVlZeX/+O7czBEZHgEVIKP4AOUOGCAFmxptdk0ulZZWNiGDRsK16+Xy+WUeCCGJHT58uWtW7fW19fLpWESsZg8KyUbFogdvF6oCqbM/jR727Y/T5gwgZL1wyCE4JJVVVU7dux4/dPPsbEKTgj7A6n0gVAVnYZk0a7XZ2Zm7Nv3l8TERErWi0EIVZ85U1BQYOm2xERFsZhMHIsS9AJLiK2HC7igzW7XdbQtWJhVUVERFxdHCXxgUH97cenSpeKSEovFooyJQTz3ZwMKUBVims5kYPRtmgEDe3I5HLlMfvH8hX379kFhlMCHAYQQSmVlZZrmlpjIKOi3v/KgEqfbpdZqBKFCkUSC37AsdEWJgwQ48bk8UWjo0aNHz51D0LzZ5w0h5IyDBw/WPXwY49PNAFN6vS6Xu1mtTkxKwpkqKyuzsrKMZsIVIBym+bzeMKnU43Lv37//2fNn1CCS7bZt2/AHn6+pqdm5c6dIGCrg8/vYkGay+3QDEge+/TYtLQ05d/KUKahWd+/e9bg9RDoYFnAS2O75i//JwmTTpk0L8e1D2eXly5e5ubmNT54oYxR9msECl8vVqtPJIsILCwvXrF4dERlJyWg0u91eW1tT9PXXVqtNyOcjGH15OjjgEx16PargtWvXUlJSMEKYDGn+ypUrPzx6hKKIKb6ZBFxut669fcSoBGi1qKioPxuAw+EsW/a7mtrvZmfMNppM3VYLJQgGUAc8CX5969YtHB4jBKGOjo6zZ8/yuFwuh4sZYISnzWFvbdOlf5J+6tRpKI/U57uAquF5Kz5fae7uQjBTo8EghMWCn1y9ehWdDF4JQs+fP//P3btgSigHZvJ42js7TGbzhq++On3mzKRJk4h1QwDabWpqevbsGYLO6XT2OV/ggNXgtTeuX3/x4gVeGdgRfQU8l8vmQuh2ufRGA+pOwsiRSUlJ7e3tBoOBiPAh8OrVq/WFhfBupFBU9WFEHM4AJTkdTrW6Ba/MTZs2/fXQIVQJPp9HzsCmUokEPltTW4s6/68rV3RtbUajkcViQQrbMRhvkoVEIkmdPh1PMMNKk9H01oRAgPkWqyU5BbE7hY6NkhITEX7iUBEl93Eiot1uh1sgvGEMZB0Mzpw5c+7cuaNHj1apVFKpNDIy0tedEakBVjt9+nTVyZPwTZPBiHpMHiAQQElwklVr1uzatYv+8OHDGampErEEhqTkvUAlRA+IH/ge/APkRGKxyWzq1OvZbPamjRu3bN2K9pmcTAK5/uTJk3+vroYJzCYTmg2sDcSOeoNh9pzMw4cPM5CgoTH0fpSkH0g2ACYgyHFoTPJ6vMgOq1et+uLLL99iA4wbNw6nvHDp4spV+ZIwaZelu8dmC8TP6QyGWq2GTYIwNpSE2IbLoxkt2rw5Pj6eEryDj8Z+lLd8+Yy0NL3RCPUEGHo4M6Ga/Pz8U1VVSEL+TY59cVYQQvOAF4Ro49OnWo0GLJksFlywvyPjZoIifezYsViFgsvmBBJ4PT09uA4sWrSIBRtTY36BUwoFAj6PR+jJaDpbXd1lIVIzUgMS1ZgxYxISEsaPH4/CLBAIEGgoeffv3WtubkabiBgkNxkSXprT5cL9Ca5JRwr59cxZMqmUx6PC3j9IE+CJBIaAgjHaO9rtTidEIIQOcMmSJTk5OdD3o0eP9u7de/HCBSg1JiqarAyDwuPxtmhaDh0+vHbtWgZCVyAUgiAlfB9Ih8CT9HQkw7hY5UhVfHRUFEJM19qKNEFaH5pDu1NaViaTy1+3NKMy+jYYBG4Pmgb3v2/cwG+GSCSaOGmin9l+QJLD0eFb3RYL7s+f5+fDWKQUALni4uIDBw4geVptPXq94V1PhUs6nQ6JWPq6qQmvTDTzKEa3bt0U8viBJIx34Uuh6GydrBAWCiTKJK62qI84N7ZDahg7diyMiNeGJw0d+k744lufQRJKmTp19569SmUs4RBoIrFAGR0DC5CHDhY4icftRnTgq1qtBuWZzQqZljoNzoCcjrI4ffr0eJXq+vXrx48ff9LQgDogFBI5DAtdTtfP6ubikj99s3c3MQIGOM3inByNWi2Thg2PEEBo17cYvgV/xw+UZBRBl8fN5/HH/2pCdHS0Ki5Op9PBV3Ahjo2JYbM5Xo/H3GXmCgS7d3+Tl7eM2AebwAl279lTVlqqUsQiYofNqQ8gR24CcticwWRarVY0Di6vJ1weLhQKWtRqiBTRMSD0U9Prtb//4m9HKsm1RDaDo2UtXDgyIQE9EDn6geg7EtyLqL5er4DHGxEfPyJOxedy4UDhMjk6cXgeVIiLQ0ZGJjkfoNIr8tvqNWuMXWZU0OG59lAgyeEfQY7BCGEyUbFBK1IeDrUxWMy8vLylv/mMnAxQhKCkFStWzJs3T6trJaLjF+XUB5AjVYfdcXKDyTR/wcLizZt9YxTeFCClUllSUhKrVOra2z7Yi/wBp7U7HGqtduasWStXrqRGe/GGEDBjxowtW7bAB9H0UEO/NMAGumlp1SIbr1tXkLVwASXoxQBCCDFQLi0tRTgYjAZE7y9rO+xl7enRtGqTk1OKNpf8dukg/3NFxWd/2Gw2pK/y8nI02lGRkVw2+8MNCCpur9di6ca1MC39kz9u3JjzaTYlG4hBCAFIHrdv396+ffvNmzeloSKUJERvX0c7DCBJdhr0HC5nSe7SvpQzKAYnRAI9ZUVFBS4e9h4bCieaIQQjYUSClz9mhJl9uRFGh//CadDLoqKt+0PB+sICcs5Q8EcIgPnq6+srKysvnD+PtIFix+fykNOQZwFMeMvFsBfJg7gUONAmuTw0b/LHHzNDQnAVpCb5xXsIkQCVxsbG6urq2pqajs5ONFwwH5nomExGf2Uhh7ncLiaThRKGe1JmZmZ2dnZ6evr7m8ZeBESIBA6NeoRrU11d3YMHDxp//NFitcKtBmiJTsflJCdncfLk5Mkpk9H9QamUKDAEQagP0A28HtBoNLApaTsSaKgjIiLQGpMXyKBBo/0fmrxZCfRBip8AAAAASUVORK5CYII=;strokeWidth=2;labelBackgroundColor=none;rounded=0;" parent="tDDXm-gYxZy8OXo06DHz-19" vertex="1">
          <mxGeometry width="48" height="45" as="geometry" />
        </mxCell>
        <mxCell id="tDDXm-gYxZy8OXo06DHz-20" value="" style="group;strokeWidth=2;labelBackgroundColor=none;rounded=0;" parent="1" vertex="1" connectable="0">
          <mxGeometry x="540" y="380" width="140" height="140" as="geometry" />
        </mxCell>
        <mxCell id="tDDXm-gYxZy8OXo06DHz-11" value="&lt;div&gt;&lt;span style=&quot;font-weight: normal;&quot;&gt;prio:&amp;nbsp;&lt;/span&gt;&lt;/div&gt;&lt;div&gt;&lt;span style=&quot;font-weight: normal;&quot;&gt;&lt;br&gt;&lt;/span&gt;&lt;/div&gt;UART Rx" style="rounded=0;whiteSpace=wrap;html=1;fontStyle=1;fontSize=14;verticalAlign=top;strokeWidth=2;labelBackgroundColor=none;" parent="tDDXm-gYxZy8OXo06DHz-20" vertex="1">
          <mxGeometry x="20" y="20" width="120" height="120" as="geometry" />
        </mxCell>
        <mxCell id="tDDXm-gYxZy8OXo06DHz-5" value="" style="shape=image;verticalLabelPosition=bottom;verticalAlign=top;imageAspect=0;aspect=fixed;image=data:image/png,iVBORw0KGgoAAAANSUhEUgAAADAAAAAtCAIAAABnKH+VAAAAAXNSR0IArs4c6QAAAARnQU1BAACxjwv8YQUAAAAJcEhZcwAADsMAAA7DAcdvqGQAAApHSURBVFhHrVh5UJPpHc5FbnKQcIYQxGvVgs6CBwqrHcGTkUWXWiu6eHTXgu5UF2GqM2C9dxjrMK5WrH+oIyp1YK1HHevRWa+pVsEVF0er7gokIRy5ICF3+nz5PhAUYoL7zPiR7/297/s97+9+pXu9Xtqw4Ha7TSZTZ2enw+HAb2IfOo3D5ojF4tDQUKFQSM0LEkET6u7ubmxs/O+DB81NTa2trVqN1mazOZwO7EOn0fkCvkwmk8tkSpVKqVAkTZw4atQoPp9PLQ4AQRB6/Pjxze+//+Hx43v37jU0NGCESacL+EImk0mjQT10PLxej81ug848NBqDTp8ydSo4paamZmZkKBQKch//CIjQnTt3Ll/+59Wr1+7fv49XsSBUJBaxQ0KYDAaW919PJ/4RDxjR7nCYzeYuq4XDZmfOmTN//vzFixdHRUX5Jg6J9xDS6/UnTpw4cuTI06dPuSFsebgcXoKjEzzedxK6Dx6Px2K1trW38fj82ZkZK5bnfZabS80YDP4I1dXVlZeX/+O7czBEZHgEVIKP4AOUOGCAFmxptdk0ulZZWNiGDRsK16+Xy+WUeCCGJHT58uWtW7fW19fLpWESsZg8KyUbFogdvF6oCqbM/jR727Y/T5gwgZL1wyCE4JJVVVU7dux4/dPPsbEKTgj7A6n0gVAVnYZk0a7XZ2Zm7Nv3l8TERErWi0EIVZ85U1BQYOm2xERFsZhMHIsS9AJLiK2HC7igzW7XdbQtWJhVUVERFxdHCXxgUH97cenSpeKSEovFooyJQTz3ZwMKUBVims5kYPRtmgEDe3I5HLlMfvH8hX379kFhlMCHAYQQSmVlZZrmlpjIKOi3v/KgEqfbpdZqBKFCkUSC37AsdEWJgwQ48bk8UWjo0aNHz51D0LzZ5w0h5IyDBw/WPXwY49PNAFN6vS6Xu1mtTkxKwpkqKyuzsrKMZsIVIBym+bzeMKnU43Lv37//2fNn1CCS7bZt2/AHn6+pqdm5c6dIGCrg8/vYkGay+3QDEge+/TYtLQ05d/KUKahWd+/e9bg9RDoYFnAS2O75i//JwmTTpk0L8e1D2eXly5e5ubmNT54oYxR9msECl8vVqtPJIsILCwvXrF4dERlJyWg0u91eW1tT9PXXVqtNyOcjGH15OjjgEx16PargtWvXUlJSMEKYDGn+ypUrPzx6hKKIKb6ZBFxut669fcSoBGi1qKioPxuAw+EsW/a7mtrvZmfMNppM3VYLJQgGUAc8CX5969YtHB4jBKGOjo6zZ8/yuFwuh4sZYISnzWFvbdOlf5J+6tRpKI/U57uAquF5Kz5fae7uQjBTo8EghMWCn1y9ehWdDF4JQs+fP//P3btgSigHZvJ42js7TGbzhq++On3mzKRJk4h1QwDabWpqevbsGYLO6XT2OV/ggNXgtTeuX3/x4gVeGdgRfQU8l8vmQuh2ufRGA+pOwsiRSUlJ7e3tBoOBiPAh8OrVq/WFhfBupFBU9WFEHM4AJTkdTrW6Ba/MTZs2/fXQIVQJPp9HzsCmUokEPltTW4s6/68rV3RtbUajkcViQQrbMRhvkoVEIkmdPh1PMMNKk9H01oRAgPkWqyU5BbE7hY6NkhITEX7iUBEl93Eiot1uh1sgvGEMZB0Mzpw5c+7cuaNHj1apVFKpNDIy0tedEakBVjt9+nTVyZPwTZPBiHpMHiAQQElwklVr1uzatYv+8OHDGampErEEhqTkvUAlRA+IH/ge/APkRGKxyWzq1OvZbPamjRu3bN2K9pmcTAK5/uTJk3+vroYJzCYTmg2sDcSOeoNh9pzMw4cPM5CgoTH0fpSkH0g2ACYgyHFoTPJ6vMgOq1et+uLLL99iA4wbNw6nvHDp4spV+ZIwaZelu8dmC8TP6QyGWq2GTYIwNpSE2IbLoxkt2rw5Pj6eEryDj8Z+lLd8+Yy0NL3RCPUEGHo4M6Ga/Pz8U1VVSEL+TY59cVYQQvOAF4Ro49OnWo0GLJksFlywvyPjZoIifezYsViFgsvmBBJ4PT09uA4sWrSIBRtTY36BUwoFAj6PR+jJaDpbXd1lIVIzUgMS1ZgxYxISEsaPH4/CLBAIEGgoeffv3WtubkabiBgkNxkSXprT5cL9Ca5JRwr59cxZMqmUx6PC3j9IE+CJBIaAgjHaO9rtTidEIIQOcMmSJTk5OdD3o0eP9u7de/HCBSg1JiqarAyDwuPxtmhaDh0+vHbtWgZCVyAUgiAlfB9Ih8CT9HQkw7hY5UhVfHRUFEJM19qKNEFaH5pDu1NaViaTy1+3NKMy+jYYBG4Pmgb3v2/cwG+GSCSaOGmin9l+QJLD0eFb3RYL7s+f5+fDWKQUALni4uIDBw4geVptPXq94V1PhUs6nQ6JWPq6qQmvTDTzKEa3bt0U8viBJIx34Uuh6GydrBAWCiTKJK62qI84N7ZDahg7diyMiNeGJw0d+k744lufQRJKmTp19569SmUs4RBoIrFAGR0DC5CHDhY4icftRnTgq1qtBuWZzQqZljoNzoCcjrI4ffr0eJXq+vXrx48ff9LQgDogFBI5DAtdTtfP6ubikj99s3c3MQIGOM3inByNWi2Thg2PEEBo17cYvgV/xw+UZBRBl8fN5/HH/2pCdHS0Ki5Op9PBV3Ahjo2JYbM5Xo/H3GXmCgS7d3+Tl7eM2AebwAl279lTVlqqUsQiYofNqQ8gR24CcticwWRarVY0Di6vJ1weLhQKWtRqiBTRMSD0U9Prtb//4m9HKsm1RDaDo2UtXDgyIQE9EDn6geg7EtyLqL5er4DHGxEfPyJOxedy4UDhMjk6cXgeVIiLQ0ZGJjkfoNIr8tvqNWuMXWZU0OG59lAgyeEfQY7BCGEyUbFBK1IeDrUxWMy8vLylv/mMnAxQhKCkFStWzJs3T6trJaLjF+XUB5AjVYfdcXKDyTR/wcLizZt9YxTeFCClUllSUhKrVOra2z7Yi/wBp7U7HGqtduasWStXrqRGe/GGEDBjxowtW7bAB9H0UEO/NMAGumlp1SIbr1tXkLVwASXoxQBCCDFQLi0tRTgYjAZE7y9rO+xl7enRtGqTk1OKNpf8dukg/3NFxWd/2Gw2pK/y8nI02lGRkVw2+8MNCCpur9di6ca1MC39kz9u3JjzaTYlG4hBCAFIHrdv396+ffvNmzeloSKUJERvX0c7DCBJdhr0HC5nSe7SvpQzKAYnRAI9ZUVFBS4e9h4bCieaIQQjYUSClz9mhJl9uRFGh//CadDLoqKt+0PB+sICcs5Q8EcIgPnq6+srKysvnD+PtIFix+fykNOQZwFMeMvFsBfJg7gUONAmuTw0b/LHHzNDQnAVpCb5xXsIkQCVxsbG6urq2pqajs5ONFwwH5nomExGf2Uhh7ncLiaThRKGe1JmZmZ2dnZ6evr7m8ZeBESIBA6NeoRrU11d3YMHDxp//NFitcKtBmiJTsflJCdncfLk5Mkpk9H9QamUKDAEQagP0A28HtBoNLApaTsSaKgjIiLQGpMXyKBBo/0fmrxZCfRBip8AAAAASUVORK5CYII=;strokeWidth=2;labelBackgroundColor=none;rounded=0;" parent="tDDXm-gYxZy8OXo06DHz-20" vertex="1">
          <mxGeometry width="48" height="45" as="geometry" />
        </mxCell>
        <mxCell id="tDDXm-gYxZy8OXo06DHz-149" style="edgeStyle=orthogonalEdgeStyle;orthogonalLoop=1;jettySize=auto;html=1;exitX=0.5;exitY=1;exitDx=0;exitDy=0;entryX=1;entryY=0.25;entryDx=0;entryDy=0;strokeWidth=2;" parent="1" source="tDDXm-gYxZy8OXo06DHz-22" target="tDDXm-gYxZy8OXo06DHz-17" edge="1">
          <mxGeometry relative="1" as="geometry">
            <Array as="points">
              <mxPoint x="100" y="560" />
              <mxPoint x="800" y="560" />
              <mxPoint x="800" y="-210" />
            </Array>
          </mxGeometry>
        </mxCell>
        <mxCell id="tDDXm-gYxZy8OXo06DHz-22" value="&lt;div&gt;&lt;span style=&quot;font-weight: normal;&quot;&gt;prio: Normal&lt;/span&gt;&lt;/div&gt;&lt;div&gt;&lt;span style=&quot;font-weight: normal;&quot;&gt;&lt;br&gt;&lt;/span&gt;&lt;/div&gt;&lt;div&gt;Acionar&lt;/div&gt;&lt;div&gt;relÃ©s&lt;/div&gt;" style="rounded=0;whiteSpace=wrap;html=1;fontStyle=1;fontSize=14;verticalAlign=middle;strokeWidth=2;labelBackgroundColor=none;" parent="1" vertex="1">
          <mxGeometry x="40" y="400" width="120" height="120" as="geometry" />
        </mxCell>
        <mxCell id="tDDXm-gYxZy8OXo06DHz-117" style="edgeStyle=orthogonalEdgeStyle;orthogonalLoop=1;jettySize=auto;html=1;exitX=0.5;exitY=0;exitDx=0;exitDy=0;entryX=0.5;entryY=1;entryDx=0;entryDy=0;strokeWidth=2;" parent="1" source="tDDXm-gYxZy8OXo06DHz-23" target="tDDXm-gYxZy8OXo06DHz-14" edge="1">
          <mxGeometry relative="1" as="geometry" />
        </mxCell>
        <mxCell id="tDDXm-gYxZy8OXo06DHz-125" style="edgeStyle=orthogonalEdgeStyle;orthogonalLoop=1;jettySize=auto;html=1;exitX=0.5;exitY=1;exitDx=0;exitDy=0;entryX=0.5;entryY=0;entryDx=0;entryDy=0;strokeWidth=2;" parent="1" source="tDDXm-gYxZy8OXo06DHz-23" target="tDDXm-gYxZy8OXo06DHz-124" edge="1">
          <mxGeometry relative="1" as="geometry" />
        </mxCell>
        <mxCell id="tDDXm-gYxZy8OXo06DHz-23" value="&lt;div&gt;&lt;span style=&quot;font-weight: normal;&quot;&gt;prio: Normal&amp;nbsp;&lt;/span&gt;&lt;/div&gt;&lt;div&gt;&lt;span style=&quot;font-weight: normal;&quot;&gt;&lt;br&gt;&lt;/span&gt;&lt;/div&gt;&lt;div&gt;Controlar irrigaÃ§Ãµes&lt;/div&gt;" style="rounded=0;whiteSpace=wrap;html=1;fontStyle=1;fontSize=14;verticalAlign=top;strokeWidth=2;labelBackgroundColor=none;" parent="1" vertex="1">
          <mxGeometry x="40" y="240" width="120" height="120" as="geometry" />
        </mxCell>
        <mxCell id="tDDXm-gYxZy8OXo06DHz-131" style="edgeStyle=orthogonalEdgeStyle;orthogonalLoop=1;jettySize=auto;html=1;exitX=0;exitY=0.5;exitDx=0;exitDy=0;entryX=0;entryY=0.5;entryDx=0;entryDy=0;strokeWidth=2;" parent="1" source="tDDXm-gYxZy8OXo06DHz-24" target="tDDXm-gYxZy8OXo06DHz-111" edge="1">
          <mxGeometry relative="1" as="geometry" />
        </mxCell>
        <mxCell id="tDDXm-gYxZy8OXo06DHz-150" style="edgeStyle=orthogonalEdgeStyle;orthogonalLoop=1;jettySize=auto;html=1;exitX=0.5;exitY=0;exitDx=0;exitDy=0;entryX=0.5;entryY=1;entryDx=0;entryDy=0;strokeWidth=2;" parent="1" source="tDDXm-gYxZy8OXo06DHz-24" target="uZgcKNraOqiOFHt2JM9J-11" edge="1">
          <mxGeometry relative="1" as="geometry">
            <mxPoint x="420" y="200" as="targetPoint" />
          </mxGeometry>
        </mxCell>
        <mxCell id="uZgcKNraOqiOFHt2JM9J-26" style="edgeStyle=orthogonalEdgeStyle;rounded=1;orthogonalLoop=1;jettySize=auto;html=1;exitX=1;exitY=0.25;exitDx=0;exitDy=0;entryX=0;entryY=0.5;entryDx=0;entryDy=0;strokeWidth=2;" parent="1" source="tDDXm-gYxZy8OXo06DHz-24" target="uZgcKNraOqiOFHt2JM9J-28" edge="1">
          <mxGeometry relative="1" as="geometry" />
        </mxCell>
        <mxCell id="tDDXm-gYxZy8OXo06DHz-24" value="&lt;div&gt;&lt;span style=&quot;font-weight: normal;&quot;&gt;prio:&amp;nbsp;&lt;/span&gt;&lt;/div&gt;&lt;div&gt;&lt;span style=&quot;font-weight: normal;&quot;&gt;&lt;br&gt;&lt;/span&gt;&lt;/div&gt;&lt;div&gt;Configurar irrigaÃ§Ã£o&lt;/div&gt;" style="rounded=0;whiteSpace=wrap;html=1;fontStyle=1;fontSize=14;verticalAlign=top;strokeWidth=2;labelBackgroundColor=none;" parent="1" vertex="1">
          <mxGeometry x="320.00000000000006" y="240" width="120" height="120" as="geometry" />
        </mxCell>
        <mxCell id="tDDXm-gYxZy8OXo06DHz-26" style="edgeStyle=orthogonalEdgeStyle;rounded=0;orthogonalLoop=1;jettySize=auto;html=1;exitX=1;exitY=0.5;exitDx=0;exitDy=0;entryX=0;entryY=0.5;entryDx=0;entryDy=0;strokeWidth=2;labelBackgroundColor=none;fontColor=default;" parent="1" source="tDDXm-gYxZy8OXo06DHz-12" target="tDDXm-gYxZy8OXo06DHz-25" edge="1">
          <mxGeometry relative="1" as="geometry" />
        </mxCell>
        <mxCell id="tDDXm-gYxZy8OXo06DHz-50" value="" style="group;rounded=0;" parent="1" vertex="1" connectable="0">
          <mxGeometry x="190" y="-50" width="130" height="67.47999999999999" as="geometry" />
        </mxCell>
        <mxCell id="tDDXm-gYxZy8OXo06DHz-41" value="&lt;b&gt;Temp. &amp;amp; umidade ambiente&lt;/b&gt;" style="ellipse;whiteSpace=wrap;html=1;strokeWidth=2;labelBackgroundColor=none;rounded=0;" parent="tDDXm-gYxZy8OXo06DHz-50" vertex="1">
          <mxGeometry x="10" width="120" height="60" as="geometry" />
        </mxCell>
        <mxCell id="tDDXm-gYxZy8OXo06DHz-43" value="" style="shape=image;verticalLabelPosition=bottom;verticalAlign=top;imageAspect=0;aspect=fixed;image=data:image/png,iVBORw0KGgoAAAANSUhEUgAAADoAAAAtCAIAAABwCu9cAAAAAXNSR0IArs4c6QAAAARnQU1BAACxjwv8YQUAAAAJcEhZcwAADsMAAA7DAcdvqGQAAAqnSURBVFhH1VlpUFRXFga6m61BAVm72URAAjhsQUwiO4iZUUEU45RVmkEcBRW30VS5lE5ljBPHmh8WMQiaigiRRBjjEgQtUfZNkEVl3wmboLQsTW/0fI/7BCSG7gasqfnKst47995zv3fuuWdplKVSqdL/D2ZJt6+vr6mp6ddfO5WVaQmgqalpambG5XAWLlxIi+YbitEtLy+/fft2cXHxy5cvhUKhgYGhuro60aCsrCwQCF709miy2QYGBn5+fkFBQVZWVmThfEEuuiKRKDk5+dq1a91dXQwWC2wsLCy5HK4Jx4TFZEmVxukqKfP5/JaW5vaOjvb2tuGhYSXpmKenZ/j27cuWLSN65g7ZdO+mpX199mxLc4uDg4OLmxv25nJNdXR0GEymSCiculxlHCDNe81ra217XFJc/uQJjzcQtHp1ZGSktbU1PW8OmIlub29vTExMYkKCmaVl8LqQD93ddXR1mQymWCwWCAVwWjiARDKmpAQdb5FmMBhMFkssErW2tj7MzMzOyWIxGUeOfLFhwwaM0vNmhd+lW1ZWdvr06fr6htWrV8M8BoZGErFYIpFkZz1Ku31bRVnFYrHlSi9vGxsbDU22WCwieqbxZrFYWNLQ0HAtKSkvP3f79u0nT57U0NCgZygOxqlTp+jHKSgsLAwPD1dWUQkPjwgMXMVmswWjozBZZ2dHyo8/lhQX9/e96OjoeFpVhRMfGHi1YMECbW1tGJVePw5QB1c8GBkZOTk7w96pqddxYl5eXkwmk8xRFO+gW1RUBK56eosOHDxob28/NibF6UOurq5RWVF+4/p13H1VNTWwec3j9fT0NDU2lhQW1dXVwpsX6uioqqrCSQCiDdOwHB/s6OiopaWVlJSEJbNmPJ0uvO3Pmzfr6ukdPvKFubkFdpJK4Z0U1NRUG+rrHz54oKaujlcQAj8AEY038Kqzs/NpVWVWZibv9Wsw1tLWxhD8gfCGmfG6xNpGS4udlJTY19fv7+8/8Uny4y26IyMjx44da25pAVcrqyWIX1N9ESSam5rycrLxQIvGAU6ggoeR4WHewEBLc/Pj4qLqmmo+f0RbSxvfRi4fVDEYKrZLl0rEkkvxcRwu18nJiWiQH2/RTUhIiLt4MXL3Hjc397ExyVSuAKGbm501jS4BZWx4N5OJgDA8MtLb3f382bPcnOy2tnY1NTVcL1w7MgcxG0eRkZ4Ol0AIp9fLh0m6jY2NUZGRXt4+IetDsSvoEvkEZqY7AVxQcudwOMPDwx3tbaUlJeUV5aOjozo6unBieLCxiUlubs7AwEBgYKBCLjEZBZG02FrawSEhSP0SCXW35gJiSFgUdw2kG2prkxMTf0q+Njg4KBKLbGxtPT29b928WVBQQC+QDzRdnM6V77/39PRCxiJxYL5AjA3Auk9KS8tKS+FjTAbD189vkb5BamrqNJebGTTde/fu4YK7uDjjoBVaLyegE1ZAKCTOCj+xtLR0cnLOy8tFLCJz5AFFF1EG5/KJp9diK6sxhNl5pQuFMASUcs3MPH197B0cIMGO8JPlHsvF4jFYip4qByi6yE9VVVWLFy9G/IcuMjB34LOFAgEUmnA4Xj4+e6L3hYZumDDHuIEXo/7Mzsoi8+UBRbe5uRk6TE1NWaz58QRCFCbkmJp5+/pF7Y0GV8dly6Z6GkZRxZuZmaHSR7wnQpmg6HZ1dcG0hgaG0DWhbnaA8VCkw01x9N5+fjt3794dHQ2iGBpPkJPK8YyQpqen193Tg0KClsoCRRffp6+vr66hIZ2DJ2At7j6qdAtLS9+AgB2RUbv37iN5axpRAsowUqmBoaEWm43ehJbKAkW3uroa2lAS/FapPMCqUT5fIh2ztrFdExyyY1dk5J69rq6uGJmWxqdBJBDhVJGNcby0SBYouvm5uciemppsRekSoqiCrW2XBq/fsGvPnr+ERzi7uCBNwSVka1OmnAfT5K/ZqXmubh/CDKhIFMqHuCvYzNrWNjQsDEQ/Dw+3s7MTiYRwCYU+G3oA+kUWKLrLPTzU1dRgD/npgihikE9AQFT0vq3bPv/A3h4fLJdFpwAFO7Lpy/5+1O+0SBYouhoa6rW1NcjsyJdEKhOwx0JdXT8/f7QJIAqXUIgogbKKUnt7O6IYYigtkgWKroWFRVtra3d3jwK+QBWvDFx5RY9+AvDXkaEhNE5oqtE70VJZoOiipUan1dXViWwpvz+A5eyIEuBrebzXqOURelFV0lJZoOiamJj8wcmpvr5uaHgYWsjA+wYyHLjCQAGBgbRIDlB0QXHjxo0VFRVtLS0T3dV7BXYB0aKiQjVV1aCgIFoqByi6gK+vL39kpKSkWCF/mDXQDjU1NZaVlXp5e3O5XEhiY2PXrl177tw5dKZkDkFlZeXWrVsxhP4ZrzRdY2PjiIiItF9+QQuEjuu9MoZpEUwePXo4NDgYFhZGckRxcfGdO3cuxsai2SbTCCC8evUq/h8aGsIrTReI2LHD0Mjw1q2biCzv1YNhWnSd9+/fX7tunYuLCy1UVUXThWycn59PJADCzt20NDywxn8DwMMkXS6HExUVhc4xO+sRrjwZnnfghvX39yclJWppah44cIB0/MCoQODu7o68mJ+Xh5aTCEEdTOAJixYtQtCE5C1Omz77DK3lt99+A49Bh/VOl5hL8AI53I2UlJTammp04BwOhx5A3hGLURWGbdqE8vDZs2dE+PONG65ubijrwITs+xZdpOKjR4+iZI6Pu9jW1gbtv2U8KVGQN7QhF/584z8/Jf8Ax/vTmjX0wBsIRkcDAgLgirk5OXh98eJFbm6uq4sLTCsUicic6SeOexoTE8NgqPz73L+aqGvHmPAKHIe+gYHlkiXQKxAKUariH6xCRmcAvhCdGewKrpcvxe/ctevQoUO/dTbcPxsbGyTkksePQRonbG5h4bFiBdWDvCnEp68BUKqeP39eLBL+7dBBhMYx6Rg2g3aoMzc3D1gVpKevzzE1dffwMDI2Ji41A1CHYD8ej/fdd5cvX7701507T5w4gfKIHp4ClJLYKGT9eti1rq4uIyMDrowCAfvSM95JFwDjKwkJH3/y8ZmvTl+9cgXrIQRjdByffvrHf5z555dfnQkIXEUSMVkyDbAoTgbbSyTiiorys1+fuZd+9/Dhw8ePH0dkoCdNAzo8odDf3x+mjY+Pz8zMdHR0HP+NZrK8fDddwNbW9sKFC/v378cJfvn3kwgoCNQgp6WthTPCLYEvTuMKioQlzAmiqCdbWpp/SEo8sC8aJdTFuDj4wDvtCsCEBIaGhnAJbA3lKz76iAxNlKYz/ciKWgkbeHp6fhMTEx8Xm5n5YOXKlXYf2JmYcFGUgBD2nuqCMAN8QyCgfj9tam4qKip6WlnJH+XDqFu3bSPZ650AFSpUvbFiaGhoYWFhYGAgYitesRccmoQ82X9KAfBxBQUFqSkp6RkZYLnUDoxNjAyNdfX0NDU1UKpjDuw6ODj46tWrjo4O1C5trS3wnC1btmzevFnmn6ug4fnz5/ABBwcHkEPcRSwDRTguRmtqapA+PDw84Bhy0Z0AUjRslp6ejnoI30B+TKDHqO6AqcpS1WSzfXx8goODnZ2d5S9k5YRidCcAS/T29iI/8fl84g/Qg6IZZzrDoc8ds6T7v4GS0n8B3dGfqNzYSssAAAAASUVORK5CYII=;rounded=0;" parent="tDDXm-gYxZy8OXo06DHz-50" vertex="1">
          <mxGeometry y="38" width="38" height="29.48" as="geometry" />
        </mxCell>
        <mxCell id="tDDXm-gYxZy8OXo06DHz-54" value="" style="group;rounded=0;" parent="1" vertex="1" connectable="0">
          <mxGeometry x="-250" y="110" width="130" height="67.47999999999999" as="geometry" />
        </mxCell>
        <mxCell id="tDDXm-gYxZy8OXo06DHz-30" value="&lt;b&gt;Umidade dos&amp;nbsp;&lt;/b&gt;&lt;div&gt;&lt;b&gt;solos&lt;/b&gt;&lt;/div&gt;" style="ellipse;whiteSpace=wrap;html=1;strokeWidth=2;labelBackgroundColor=none;rounded=0;" parent="tDDXm-gYxZy8OXo06DHz-54" vertex="1">
          <mxGeometry x="10" width="120" height="60" as="geometry" />
        </mxCell>
        <mxCell id="tDDXm-gYxZy8OXo06DHz-45" value="" style="shape=image;verticalLabelPosition=bottom;verticalAlign=top;imageAspect=0;aspect=fixed;image=data:image/png,iVBORw0KGgoAAAANSUhEUgAAADoAAAAtCAIAAABwCu9cAAAAAXNSR0IArs4c6QAAAARnQU1BAACxjwv8YQUAAAAJcEhZcwAADsMAAA7DAcdvqGQAAAqnSURBVFhH1VlpUFRXFga6m61BAVm72URAAjhsQUwiO4iZUUEU45RVmkEcBRW30VS5lE5ljBPHmh8WMQiaigiRRBjjEgQtUfZNkEVl3wmboLQsTW/0fI/7BCSG7gasqfnKst47995zv3fuuWdplKVSqdL/D2ZJt6+vr6mp6ddfO5WVaQmgqalpambG5XAWLlxIi+YbitEtLy+/fft2cXHxy5cvhUKhgYGhuro60aCsrCwQCF709miy2QYGBn5+fkFBQVZWVmThfEEuuiKRKDk5+dq1a91dXQwWC2wsLCy5HK4Jx4TFZEmVxukqKfP5/JaW5vaOjvb2tuGhYSXpmKenZ/j27cuWLSN65g7ZdO+mpX199mxLc4uDg4OLmxv25nJNdXR0GEymSCiculxlHCDNe81ra217XFJc/uQJjzcQtHp1ZGSktbU1PW8OmIlub29vTExMYkKCmaVl8LqQD93ddXR1mQymWCwWCAVwWjiARDKmpAQdb5FmMBhMFkssErW2tj7MzMzOyWIxGUeOfLFhwwaM0vNmhd+lW1ZWdvr06fr6htWrV8M8BoZGErFYIpFkZz1Ku31bRVnFYrHlSi9vGxsbDU22WCwieqbxZrFYWNLQ0HAtKSkvP3f79u0nT57U0NCgZygOxqlTp+jHKSgsLAwPD1dWUQkPjwgMXMVmswWjozBZZ2dHyo8/lhQX9/e96OjoeFpVhRMfGHi1YMECbW1tGJVePw5QB1c8GBkZOTk7w96pqddxYl5eXkwmk8xRFO+gW1RUBK56eosOHDxob28/NibF6UOurq5RWVF+4/p13H1VNTWwec3j9fT0NDU2lhQW1dXVwpsX6uioqqrCSQCiDdOwHB/s6OiopaWVlJSEJbNmPJ0uvO3Pmzfr6ukdPvKFubkFdpJK4Z0U1NRUG+rrHz54oKaujlcQAj8AEY038Kqzs/NpVWVWZibv9Wsw1tLWxhD8gfCGmfG6xNpGS4udlJTY19fv7+8/8Uny4y26IyMjx44da25pAVcrqyWIX1N9ESSam5rycrLxQIvGAU6ggoeR4WHewEBLc/Pj4qLqmmo+f0RbSxvfRi4fVDEYKrZLl0rEkkvxcRwu18nJiWiQH2/RTUhIiLt4MXL3Hjc397ExyVSuAKGbm501jS4BZWx4N5OJgDA8MtLb3f382bPcnOy2tnY1NTVcL1w7MgcxG0eRkZ4Ol0AIp9fLh0m6jY2NUZGRXt4+IetDsSvoEvkEZqY7AVxQcudwOMPDwx3tbaUlJeUV5aOjozo6unBieLCxiUlubs7AwEBgYKBCLjEZBZG02FrawSEhSP0SCXW35gJiSFgUdw2kG2prkxMTf0q+Njg4KBKLbGxtPT29b928WVBQQC+QDzRdnM6V77/39PRCxiJxYL5AjA3Auk9KS8tKS+FjTAbD189vkb5BamrqNJebGTTde/fu4YK7uDjjoBVaLyegE1ZAKCTOCj+xtLR0cnLOy8tFLCJz5AFFF1EG5/KJp9diK6sxhNl5pQuFMASUcs3MPH197B0cIMGO8JPlHsvF4jFYip4qByi6yE9VVVWLFy9G/IcuMjB34LOFAgEUmnA4Xj4+e6L3hYZumDDHuIEXo/7Mzsoi8+UBRbe5uRk6TE1NWaz58QRCFCbkmJp5+/pF7Y0GV8dly6Z6GkZRxZuZmaHSR7wnQpmg6HZ1dcG0hgaG0DWhbnaA8VCkw01x9N5+fjt3794dHQ2iGBpPkJPK8YyQpqen193Tg0KClsoCRRffp6+vr66hIZ2DJ2At7j6qdAtLS9+AgB2RUbv37iN5axpRAsowUqmBoaEWm43ehJbKAkW3uroa2lAS/FapPMCqUT5fIh2ztrFdExyyY1dk5J69rq6uGJmWxqdBJBDhVJGNcby0SBYouvm5uciemppsRekSoqiCrW2XBq/fsGvPnr+ERzi7uCBNwSVka1OmnAfT5K/ZqXmubh/CDKhIFMqHuCvYzNrWNjQsDEQ/Dw+3s7MTiYRwCYU+G3oA+kUWKLrLPTzU1dRgD/npgihikE9AQFT0vq3bPv/A3h4fLJdFpwAFO7Lpy/5+1O+0SBYouhoa6rW1NcjsyJdEKhOwx0JdXT8/f7QJIAqXUIgogbKKUnt7O6IYYigtkgWKroWFRVtra3d3jwK+QBWvDFx5RY9+AvDXkaEhNE5oqtE70VJZoOiipUan1dXViWwpvz+A5eyIEuBrebzXqOURelFV0lJZoOiamJj8wcmpvr5uaHgYWsjA+wYyHLjCQAGBgbRIDlB0QXHjxo0VFRVtLS0T3dV7BXYB0aKiQjVV1aCgIFoqByi6gK+vL39kpKSkWCF/mDXQDjU1NZaVlXp5e3O5XEhiY2PXrl177tw5dKZkDkFlZeXWrVsxhP4ZrzRdY2PjiIiItF9+QQuEjuu9MoZpEUwePXo4NDgYFhZGckRxcfGdO3cuxsai2SbTCCC8evUq/h8aGsIrTReI2LHD0Mjw1q2biCzv1YNhWnSd9+/fX7tunYuLCy1UVUXThWycn59PJADCzt20NDywxn8DwMMkXS6HExUVhc4xO+sRrjwZnnfghvX39yclJWppah44cIB0/MCoQODu7o68mJ+Xh5aTCEEdTOAJixYtQtCE5C1Omz77DK3lt99+A49Bh/VOl5hL8AI53I2UlJTammp04BwOhx5A3hGLURWGbdqE8vDZs2dE+PONG65ubijrwITs+xZdpOKjR4+iZI6Pu9jW1gbtv2U8KVGQN7QhF/584z8/Jf8Ax/vTmjX0wBsIRkcDAgLgirk5OXh98eJFbm6uq4sLTCsUicic6SeOexoTE8NgqPz73L+aqGvHmPAKHIe+gYHlkiXQKxAKUariH6xCRmcAvhCdGewKrpcvxe/ctevQoUO/dTbcPxsbGyTkksePQRonbG5h4bFiBdWDvCnEp68BUKqeP39eLBL+7dBBhMYx6Rg2g3aoMzc3D1gVpKevzzE1dffwMDI2Ji41A1CHYD8ej/fdd5cvX7701507T5w4gfKIHp4ClJLYKGT9eti1rq4uIyMDrowCAfvSM95JFwDjKwkJH3/y8ZmvTl+9cgXrIQRjdByffvrHf5z555dfnQkIXEUSMVkyDbAoTgbbSyTiiorys1+fuZd+9/Dhw8ePH0dkoCdNAzo8odDf3x+mjY+Pz8zMdHR0HP+NZrK8fDddwNbW9sKFC/v378cJfvn3kwgoCNQgp6WthTPCLYEvTuMKioQlzAmiqCdbWpp/SEo8sC8aJdTFuDj4wDvtCsCEBIaGhnAJbA3lKz76iAxNlKYz/ciKWgkbeHp6fhMTEx8Xm5n5YOXKlXYf2JmYcFGUgBD2nuqCMAN8QyCgfj9tam4qKip6WlnJH+XDqFu3bSPZ650AFSpUvbFiaGhoYWFhYGAgYitesRccmoQ82X9KAfBxBQUFqSkp6RkZYLnUDoxNjAyNdfX0NDU1UKpjDuw6ODj46tWrjo4O1C5trS3wnC1btmzevFnmn6ug4fnz5/ABBwcHkEPcRSwDRTguRmtqapA+PDw84Bhy0Z0AUjRslp6ejnoI30B+TKDHqO6AqcpS1WSzfXx8goODnZ2d5S9k5YRidCcAS/T29iI/8fl84g/Qg6IZZzrDoc8ds6T7v4GS0n8B3dGfqNzYSssAAAAASUVORK5CYII=;rounded=0;" parent="tDDXm-gYxZy8OXo06DHz-54" vertex="1">
          <mxGeometry y="38" width="38" height="29.48" as="geometry" />
        </mxCell>
        <mxCell id="tDDXm-gYxZy8OXo06DHz-73" value="" style="group;rounded=0;" parent="1" vertex="1" connectable="0">
          <mxGeometry x="-209" y="-80" width="130" height="67.47999999999999" as="geometry" />
        </mxCell>
        <mxCell id="tDDXm-gYxZy8OXo06DHz-74" value="&lt;b&gt;Data/hora&lt;/b&gt;" style="ellipse;whiteSpace=wrap;html=1;strokeWidth=2;labelBackgroundColor=none;rounded=0;" parent="tDDXm-gYxZy8OXo06DHz-73" vertex="1">
          <mxGeometry x="10" width="120" height="60" as="geometry" />
        </mxCell>
        <mxCell id="tDDXm-gYxZy8OXo06DHz-75" value="" style="shape=image;verticalLabelPosition=bottom;verticalAlign=top;imageAspect=0;aspect=fixed;image=data:image/png,iVBORw0KGgoAAAANSUhEUgAAADoAAAAtCAIAAABwCu9cAAAAAXNSR0IArs4c6QAAAARnQU1BAACxjwv8YQUAAAAJcEhZcwAADsMAAA7DAcdvqGQAAAqnSURBVFhH1VlpUFRXFga6m61BAVm72URAAjhsQUwiO4iZUUEU45RVmkEcBRW30VS5lE5ljBPHmh8WMQiaigiRRBjjEgQtUfZNkEVl3wmboLQsTW/0fI/7BCSG7gasqfnKst47995zv3fuuWdplKVSqdL/D2ZJt6+vr6mp6ddfO5WVaQmgqalpambG5XAWLlxIi+YbitEtLy+/fft2cXHxy5cvhUKhgYGhuro60aCsrCwQCF709miy2QYGBn5+fkFBQVZWVmThfEEuuiKRKDk5+dq1a91dXQwWC2wsLCy5HK4Jx4TFZEmVxukqKfP5/JaW5vaOjvb2tuGhYSXpmKenZ/j27cuWLSN65g7ZdO+mpX199mxLc4uDg4OLmxv25nJNdXR0GEymSCiculxlHCDNe81ra217XFJc/uQJjzcQtHp1ZGSktbU1PW8OmIlub29vTExMYkKCmaVl8LqQD93ddXR1mQymWCwWCAVwWjiARDKmpAQdb5FmMBhMFkssErW2tj7MzMzOyWIxGUeOfLFhwwaM0vNmhd+lW1ZWdvr06fr6htWrV8M8BoZGErFYIpFkZz1Ku31bRVnFYrHlSi9vGxsbDU22WCwieqbxZrFYWNLQ0HAtKSkvP3f79u0nT57U0NCgZygOxqlTp+jHKSgsLAwPD1dWUQkPjwgMXMVmswWjozBZZ2dHyo8/lhQX9/e96OjoeFpVhRMfGHi1YMECbW1tGJVePw5QB1c8GBkZOTk7w96pqddxYl5eXkwmk8xRFO+gW1RUBK56eosOHDxob28/NibF6UOurq5RWVF+4/p13H1VNTWwec3j9fT0NDU2lhQW1dXVwpsX6uioqqrCSQCiDdOwHB/s6OiopaWVlJSEJbNmPJ0uvO3Pmzfr6ukdPvKFubkFdpJK4Z0U1NRUG+rrHz54oKaujlcQAj8AEY038Kqzs/NpVWVWZibv9Wsw1tLWxhD8gfCGmfG6xNpGS4udlJTY19fv7+8/8Uny4y26IyMjx44da25pAVcrqyWIX1N9ESSam5rycrLxQIvGAU6ggoeR4WHewEBLc/Pj4qLqmmo+f0RbSxvfRi4fVDEYKrZLl0rEkkvxcRwu18nJiWiQH2/RTUhIiLt4MXL3Hjc397ExyVSuAKGbm501jS4BZWx4N5OJgDA8MtLb3f382bPcnOy2tnY1NTVcL1w7MgcxG0eRkZ4Ol0AIp9fLh0m6jY2NUZGRXt4+IetDsSvoEvkEZqY7AVxQcudwOMPDwx3tbaUlJeUV5aOjozo6unBieLCxiUlubs7AwEBgYKBCLjEZBZG02FrawSEhSP0SCXW35gJiSFgUdw2kG2prkxMTf0q+Njg4KBKLbGxtPT29b928WVBQQC+QDzRdnM6V77/39PRCxiJxYL5AjA3Auk9KS8tKS+FjTAbD189vkb5BamrqNJebGTTde/fu4YK7uDjjoBVaLyegE1ZAKCTOCj+xtLR0cnLOy8tFLCJz5AFFF1EG5/KJp9diK6sxhNl5pQuFMASUcs3MPH197B0cIMGO8JPlHsvF4jFYip4qByi6yE9VVVWLFy9G/IcuMjB34LOFAgEUmnA4Xj4+e6L3hYZumDDHuIEXo/7Mzsoi8+UBRbe5uRk6TE1NWaz58QRCFCbkmJp5+/pF7Y0GV8dly6Z6GkZRxZuZmaHSR7wnQpmg6HZ1dcG0hgaG0DWhbnaA8VCkw01x9N5+fjt3794dHQ2iGBpPkJPK8YyQpqen193Tg0KClsoCRRffp6+vr66hIZ2DJ2At7j6qdAtLS9+AgB2RUbv37iN5axpRAsowUqmBoaEWm43ehJbKAkW3uroa2lAS/FapPMCqUT5fIh2ztrFdExyyY1dk5J69rq6uGJmWxqdBJBDhVJGNcby0SBYouvm5uciemppsRekSoqiCrW2XBq/fsGvPnr+ERzi7uCBNwSVka1OmnAfT5K/ZqXmubh/CDKhIFMqHuCvYzNrWNjQsDEQ/Dw+3s7MTiYRwCYU+G3oA+kUWKLrLPTzU1dRgD/npgihikE9AQFT0vq3bPv/A3h4fLJdFpwAFO7Lpy/5+1O+0SBYouhoa6rW1NcjsyJdEKhOwx0JdXT8/f7QJIAqXUIgogbKKUnt7O6IYYigtkgWKroWFRVtra3d3jwK+QBWvDFx5RY9+AvDXkaEhNE5oqtE70VJZoOiipUan1dXViWwpvz+A5eyIEuBrebzXqOURelFV0lJZoOiamJj8wcmpvr5uaHgYWsjA+wYyHLjCQAGBgbRIDlB0QXHjxo0VFRVtLS0T3dV7BXYB0aKiQjVV1aCgIFoqByi6gK+vL39kpKSkWCF/mDXQDjU1NZaVlXp5e3O5XEhiY2PXrl177tw5dKZkDkFlZeXWrVsxhP4ZrzRdY2PjiIiItF9+QQuEjuu9MoZpEUwePXo4NDgYFhZGckRxcfGdO3cuxsai2SbTCCC8evUq/h8aGsIrTReI2LHD0Mjw1q2biCzv1YNhWnSd9+/fX7tunYuLCy1UVUXThWycn59PJADCzt20NDywxn8DwMMkXS6HExUVhc4xO+sRrjwZnnfghvX39yclJWppah44cIB0/MCoQODu7o68mJ+Xh5aTCEEdTOAJixYtQtCE5C1Omz77DK3lt99+A49Bh/VOl5hL8AI53I2UlJTammp04BwOhx5A3hGLURWGbdqE8vDZs2dE+PONG65ubijrwITs+xZdpOKjR4+iZI6Pu9jW1gbtv2U8KVGQN7QhF/584z8/Jf8Ax/vTmjX0wBsIRkcDAgLgirk5OXh98eJFbm6uq4sLTCsUicic6SeOexoTE8NgqPz73L+aqGvHmPAKHIe+gYHlkiXQKxAKUariH6xCRmcAvhCdGewKrpcvxe/ctevQoUO/dTbcPxsbGyTkksePQRonbG5h4bFiBdWDvCnEp68BUKqeP39eLBL+7dBBhMYx6Rg2g3aoMzc3D1gVpKevzzE1dffwMDI2Ji41A1CHYD8ej/fdd5cvX7701507T5w4gfKIHp4ClJLYKGT9eti1rq4uIyMDrowCAfvSM95JFwDjKwkJH3/y8ZmvTl+9cgXrIQRjdByffvrHf5z555dfnQkIXEUSMVkyDbAoTgbbSyTiiorys1+fuZd+9/Dhw8ePH0dkoCdNAzo8odDf3x+mjY+Pz8zMdHR0HP+NZrK8fDddwNbW9sKFC/v378cJfvn3kwgoCNQgp6WthTPCLYEvTuMKioQlzAmiqCdbWpp/SEo8sC8aJdTFuDj4wDvtCsCEBIaGhnAJbA3lKz76iAxNlKYz/ciKWgkbeHp6fhMTEx8Xm5n5YOXKlXYf2JmYcFGUgBD2nuqCMAN8QyCgfj9tam4qKip6WlnJH+XDqFu3bSPZ650AFSpUvbFiaGhoYWFhYGAgYitesRccmoQ82X9KAfBxBQUFqSkp6RkZYLnUDoxNjAyNdfX0NDU1UKpjDuw6ODj46tWrjo4O1C5trS3wnC1btmzevFnmn6ug4fnz5/ABBwcHkEPcRSwDRTguRmtqapA+PDw84Bhy0Z0AUjRslp6ejnoI30B+TKDHqO6AqcpS1WSzfXx8goODnZ2d5S9k5YRidCcAS/T29iI/8fl84g/Qg6IZZzrDoc8ds6T7v4GS0n8B3dGfqNzYSssAAAAASUVORK5CYII=;rounded=0;" parent="tDDXm-gYxZy8OXo06DHz-73" vertex="1">
          <mxGeometry y="38" width="38" height="29.48" as="geometry" />
        </mxCell>
        <mxCell id="tDDXm-gYxZy8OXo06DHz-77" value="" style="group;rounded=0;" parent="1" vertex="1" connectable="0">
          <mxGeometry x="-220" y="400" width="141" height="120" as="geometry" />
        </mxCell>
        <mxCell id="tDDXm-gYxZy8OXo06DHz-18" value="&lt;div&gt;&lt;span style=&quot;font-weight: normal;&quot;&gt;prio:&amp;nbsp;&lt;/span&gt;&lt;/div&gt;&lt;div&gt;&lt;span style=&quot;font-weight: normal;&quot;&gt;&lt;br&gt;&lt;/span&gt;&lt;/div&gt;&lt;div&gt;Gerenciar&lt;/div&gt;&lt;div&gt;botÃµes&lt;/div&gt;" style="rounded=0;whiteSpace=wrap;html=1;fontStyle=1;fontSize=14;verticalAlign=top;strokeWidth=2;labelBackgroundColor=none;" parent="tDDXm-gYxZy8OXo06DHz-77" vertex="1">
          <mxGeometry x="21" width="120" height="120" as="geometry" />
        </mxCell>
        <mxCell id="tDDXm-gYxZy8OXo06DHz-25" value="" style="shape=image;verticalLabelPosition=bottom;verticalAlign=top;imageAspect=0;aspect=fixed;image=data:image/png,iVBORw0KGgoAAAANSUhEUgAAAC4AAAAxCAIAAAAqWwwuAAAAAXNSR0IArs4c6QAAAARnQU1BAACxjwv8YQUAAAAJcEhZcwAADsMAAA7DAcdvqGQAAAlFSURBVFhHvVh7UFNXHoaEJBDkkfAIiASGx7orIAVEEJQuVMAHKELHojj7R3d0/5KBnensbIuzLp1CsR1dXVeowmLFcQXFuhTqulN8MHSUdwHlGUIRBBISFAiPvPdL7m2WRwg3Wv3IDPee8zvnfOf3Or9zLbVarcWrQqFQ0Ol0kVhsy2avW7dOo9EwGAyyz3yYTUUkEj158qS2tranp2d+bo5Gp72YfGFtbW3DZms1Gg6HsyMmJjIy0tfX187OjhxDDVSpqFSqhw8f3r59u6mpSalUYmG2DRsLQytMJkutRr96QT4vFovpdNqkROri4pK8b19ycrK/vz85xVqgRKWmpqakpKSjo8PNzT0wKMjXx9f/V/5cLhe6oOlA12o1mAcUZ2dnx8ZGu552DQwIfhr6SSFf2LNnz4cf/t7Pz4+ca3WsQWVoaOjM6dNVVVXevj4x298NDQvj8/lwCKyqVqvhHKScHpaWluBlZWUFVU3PTAv6BT/8UN/a3AyiWdnZ6enpaCdFjcEUlbq6ury8/PHx8cRdu3bGx/NceVgbrkpFkViVwWCqVMq+vr5vblU2Nzdti4z829mzMBwpsQLGqaCxtLQ0Ly9v469/88EH6QEBAZiaIonF0BNiTE9P379XW1r6Tz9f388LCsLCwsjupTBCBR5YWFiYn58fFRV99NgfXF1d0bLMFmaBiPC2traLhRcsaZb/uHDBKBsjVG7cuJGdlZW8b/+hwxkISLiFucpYCfgQk8ns7e398otTiL3i4uKVjrycCiL2SMaRsPAtH330JwQsjAJnJPteA1gFbFgsFsIw9+RfgjYHXb58eVnioZ88eZJ81Kev48ePc7nO2dl/dHBwgD4QE6DymlrRxTuNBhMD7uvXOzk5ISTl8vmYmJjF+/z/MgjO3Nzc4kuX8gu+CAwMUioVGD83N9fX2yuVSBCmhJh50Gox0InL9fbxsbe3BxU4Mqb9qqjoznfVxSUlCQkJpORiKq2trSn79x/OOJKa9j7aQRfe+v1/714pLaXR6a9uJiyg1YaEhh3Pzob/4hlOI5FIPs39K8fRoezqVVAkBMm9YtWysrINfH5s3Ht0uhWSEt3KampqqrWlZWFhQSGXyxcWXvEnl8tkssFB4cjwMPSBtWB3Ho93IDVtQCisqKggCAAkladPn35z69auxN1I5xqNmmjU70cLlQLIoXjGvHBkisD2fh5Lx5wzMplhWrDBkenpya+srHz58iXRbkX0lZeX8728tm7dCuKYgugDDHZRq9Q4/Hhubjj4iBZT0A2yhDrHx8bgH4YmA7AEwgJneEX59fr6+qSkJDTqqIyOjpZduZJ+KIOjU4nxVDYzM5Ocsu/Tzz6TzZKbMwFLC91h1N7enp2ZOSebJVuXAkS3bNlSfv1fVVX/3rt3L/asM1BnZyfL2jpo82bCrQjRZdBoNba2tnCx9QjHtX7u7u7wBqRpLLBaGoBieDy3gMCgkZHnKC3QoqOCEgTRi/F4Xo0KYKLLKFZTMAHMBjcKDw+XSKSNjQ1oocET79+/7+HhYcO2MT34Fwec19/Pf1IqffzoMV5pk5OTz5494zo5MRlMc/f9mkBSdXB05LnxiCCiwU4atdrNzQ3h+pa1guVwDDk6ciRSCdI6DZWRQql0dHSE5UiRtwUYgW1rCzbIpahEkdN1SZ2mDyUTwDCojXyhBhsbG/JpdWBa6AaRDw5UZ0ecP3/+vKHhsUpJIcUBlpYoJTVqjS6eqXkgVSpIKi3NLTl//mRxLjYBMJhfmEeMYMeGk8Q0aETUQEHE+2qAHaenprq7ugR9/VR+/b29o8MjmByciBmIhZYBvQDJARdMVBA4q2Azw7CVgDTY4BbIsmZR+1kzmExiLM4vlP4o4YhXA7AcqiKAYcXA5DTUVPDHyReTiHJSxBgwDKaBnyPqqAPyANfZeWfCLi8+f5liMOfC/PzsrAxZDXFk5enpCUYT4glQgV2NqhHAvOERESkHUufn58kmCtDiz8LCzs4exz68bdlusRySm1gkfic4GOqwQshFb9/+bHgIe8AYUmoF4IBu7u5xO+Nx7SObKAMpFFZYqXWsPjIyzGKyNgUE4FWXTmJjY1uamialk1CPXsYIdAZSKmWymVkZygTzflDkSh6YEAni0aNHGgsNcS3SUYmIiEDdJxQKMQASesk3DlgHSbanu9tjgwfxtUFHxcfHJzo6Gic1HMKEYn5ZoNjGXQKGS9qbhMBEi44KbJaamtrY8FggEOD1LSgGKoHz3bnzHYNBj4+PJxuJf/HxO339/O7Vfo86D3JE45sDckx3d1dPT09CQqKXlxfRSK7K5TodPXq0ru4hiktQeaOKgQ/g3vBtVZUt2yYjI4NsNVABdu/evW3bthsV5VKpFBeGN8RFHzjM+rq6xoaG1LQ0b29vsmMxFZQsmZmZA4L+69evIR+DO9KdoZjCw8qANBfgAQ/F9azsytchoSHHjh0jO/RY4hZRUVE5OTl3amru3v0PeLBYcHOm7homl4MZ0uVquZgKwAOzTUyIiy9dxP3hxIkTpr4kQBqJD3XJ15dLXVxdN20KQItQMIBc9E5ISPKBA3b6KzgpbQ4IHrgq//3c2Y72H/Pz8+Pi4si+n2HkgwXOhU8+/riy8lZmVlZc3Hui8XGRSOSxYQPqX4rFyjIgDhAyqFzPnz/X3tZ2+syZtLQ0sm8RjFABwOZETs7NmzcPHT4C50IljPv7q/GARnFp7u/ru/hVIXIaeCCHkX1LscRABsC5duzYoVKrYal+QT9ua6glsDNYh7q7IHNiCPFN8Py5cwqF/POCgpSUFLJ7BYxrxYCyq1e/PHUKKv7tu7GxcbG4+2N24pg16jTwCZgDJKCMqempzo7Omupvf2xrxS0wLz9/48aNpJwxrEEFGBwcLCoqqq6uZtuuCwwIDA4Oxu3a3t6BbctG7kH+JsRAAmWbQq5AsTE2NtbU2NDT29Pf18/hOP5OD+yBkFwNa1Mh0NzcfO3aNZzpMzMzuKIjOztxnby8vXBH15dHFkqValAoFIlFUskEasLxsXE+3zMt7f2DBw86Ozvr51gDVKkQwFXywYMH92prB4RCOAGbzeZwORb6UhrqmRCLca1ycXYOCQ1NSEzcHBSEVESOpADzqBggk8lQbQwPDyNV4BVcABQbus9BPB4hYx4sLP4HJ4eB01PlMdUAAAAASUVORK5CYII=;strokeWidth=2;labelBackgroundColor=none;rounded=0;" parent="tDDXm-gYxZy8OXo06DHz-77" vertex="1">
          <mxGeometry x="4.69" y="40" width="36.61" height="39" as="geometry" />
        </mxCell>
        <mxCell id="tDDXm-gYxZy8OXo06DHz-78" value="" style="group;rounded=0;" parent="1" vertex="1" connectable="0">
          <mxGeometry x="360" y="-80" width="120" height="121" as="geometry" />
        </mxCell>
        <mxCell id="tDDXm-gYxZy8OXo06DHz-6" value="&lt;div&gt;&lt;span style=&quot;font-weight: normal;&quot;&gt;prio: High&amp;nbsp;&lt;/span&gt;&lt;/div&gt;&lt;div&gt;&lt;span style=&quot;font-weight: normal;&quot;&gt;&lt;br&gt;&lt;/span&gt;&lt;/div&gt;Ler DHT11" style="rounded=0;whiteSpace=wrap;html=1;fontStyle=1;fontSize=14;verticalAlign=top;strokeWidth=2;labelBackgroundColor=none;" parent="tDDXm-gYxZy8OXo06DHz-78" vertex="1">
          <mxGeometry width="120" height="120" as="geometry" />
        </mxCell>
        <mxCell id="uZgcKNraOqiOFHt2JM9J-23" value="" style="group" parent="tDDXm-gYxZy8OXo06DHz-78" vertex="1" connectable="0">
          <mxGeometry x="61" y="91" width="54" height="30" as="geometry" />
        </mxCell>
        <mxCell id="uZgcKNraOqiOFHt2JM9J-24" value="" style="shape=image;verticalLabelPosition=bottom;verticalAlign=top;imageAspect=0;aspect=fixed;image=data:image/png,iVBORw0KGgoAAAANSUhEUgAAACcAAAAkCAIAAACFVbTMAAAAAXNSR0IArs4c6QAAAARnQU1BAACxjwv8YQUAAAAJcEhZcwAADsMAAA7DAcdvqGQAAAYqSURBVFhHvZd7SNRZFMdHTV3Jx5huKm0+cpLyldoKOT5Gsn+i1bYXlGW7FfhHUISV5ZvAFlw0khAsyHwQ2NMSXFldI9dnZZoWbvlIndQc02YstPK53/mdO+P4c6aZDdkPvz9+95xz77mPc8+912hubk7wv2Oo1+npaZlM1tvX19vTIxsaEhgZQYi6y5Ytc3BwcHNzc3Z2dnJyImO96Pf69u3bJ0+eNDQ0dLx69fTp0z6plCk0EIlE/v7+Pj4+Af7+IaGhNjY2TKELeNXFyMhITk7Orl277OzsmLU+bIXCw4cPl9y9Oz4+zlrRhs6x1tbWXrlypaioiJUFAnd3d19fX7sVSl739DQ2Nkbv2zc9M6OQy0dGR/9pb+/s6iJLezu7n3fsiI2NDQwMJAkfcq4JlvDSpUuYLmYhEAQFBcXHx1dUVGD0ZIM+hUsk9D87Ozskk1VWViYlJQWJxayOQIA5LysrIxsefK9w+dv582ZmZlRz/fr1Z8+eff78OVOrQHPBYjEraADLtLQ0e3t7qo4ou3PnDtNpwPeakZFhYWFBdaIiI2tqakj+4sWL/Pz8L1++ULGkpMTby4v+F3Pv3j1MDzWyZs0aOMZ8MB3HAq9QC4VCst6zZ88bqZTk79+/3717N0aA5kgilUrv379P/1p59uxZWFgYNYURYxcwBce8166urpCQELLbu3fv4OAgU8zNff78OSEhAfJNmzaNKRRMqo+WlhaJyvHOnTvfvXvHFJpe4+LiaDklEklHRweTqhgYGEB8GRsZZV+8yEQGUF9f7+LsjDaRTAoLC2dmZkjOvKJfnp6eUFtbW9++fZuEPPKuXoWBl6dnf38/ExnA7xkZQi5pREREIOGQkHk9c+YMDfTAgQOjo6Mk5IFts3XrVmRCGDORCgRXbm4uKywEMeHr7Y2Wzc3M1GGh9ArFT9u2QQEKCgpIoZU/yspgg7DU3EuXL19GKl69evWfFRVMtJCsrCwba2tUPBkX9+nTJ0iUXpubm3/cuBHS8PDwzs5OzlI7Hz9+RMKD5fHjx0mCIVpZWUFy9OhRHA8k5IEuitzdYeOwciWtjtLrzZs3UYY0/vRpZAnOUifYAz+sWuXm6opkhJW2tLRExWPHjsnlcmaxiMnJST8/P5ghGOvr6iBRek1JTjbiTq5z586hshqtPUCigBmMESPLly9fYWubmZmJOWBqFcj+rBW5XKFQ+G3YgCpY2uqHD6FVesUQqSNOjo4IUXxIhODly5dcC3za2toQ8OgojgFk7KmpKabQIDExES1Qa/jQOdjD69/V1dDOewUpKSmYd/CGAzPDtcAHw0UoXL9+HTlS14ogQtECtQaUycDU1MTYeN5rclISzfCFCxe4KobCy65fAVkPDtQzbAxn3j4+33OnxODAAJKfctSGQX3Vy8TExIcPH3CMY2KQpCBRel27di12G36aW1qQ+ZSGS0pvb+/E+Dh+EAfOLi74UXp1dXV15C5aDx48wP0IP0vLX5WVyGv42b9/P12GlF7RBUStqakp/rELEej4WSrGxsby8vIUY2OIpjCJhB3etNq4/CHQUcT17tatWyRcErIyM+nM3rJlCz/7gxMnTtBwxWKxrp36X3n06BGyGNo0MTEpLi5Wx/y8V5ypwcHBsAAxMTFDQ0NM8a0g/W7evJkajIqK0szS814BTlacr2QXHR3d19fHFIvAxi8vL2cFbbS2tkaoXOJK+/jxY6bgWOAVpKenf2duTtaRkZEIaaZYCE5KH29vVlhEaWmpetpcXFzUx6oavlckVVwt1S8W3FpQbG9vZ2oVum6mTU1NaampOG6pOh4/N4qLmU4DvleA9Isc68VdAIjQ0NDU1NSqqir12tTW1alv4UjLyC1YnZOnTgUEBLA6AgHuiItHSeh8cVRXV1+7dg1XC1ZGChOJ0BWcS9jp3d3dcPzLwYOTU1PDw8OjIyNYC7w7yBKvnV8PHcKLY926dSThQ861gqMxOzt7+/bttra2zFofyOdHjhzBrH7j60oNwhUPqYb6ejyeWpqb+7Ulag8PD38/P3eRCBdmXIPoTvMVDH01Y7Gxg1+D7m7Z8DAJUdfc3Byxg72BC76joyPJ9WKo16VEIPgXzCHJehm8N40AAAAASUVORK5CYII=;strokeWidth=2;labelBackgroundColor=none;rounded=0;container=0;" parent="uZgcKNraOqiOFHt2JM9J-23" vertex="1">
          <mxGeometry x="34" y="5.769999999999996" width="20" height="18.46" as="geometry" />
        </mxCell>
        <mxCell id="uZgcKNraOqiOFHt2JM9J-25" value="5s" style="text;html=1;align=center;verticalAlign=middle;resizable=0;points=[];autosize=1;strokeColor=none;fillColor=none;fontStyle=1;fontSize=13;rounded=0;container=0;" parent="uZgcKNraOqiOFHt2JM9J-23" vertex="1">
          <mxGeometry width="40" height="30" as="geometry" />
        </mxCell>
        <mxCell id="tDDXm-gYxZy8OXo06DHz-79" value="" style="group;rounded=0;" parent="1" vertex="1" connectable="0">
          <mxGeometry x="-400" y="80" width="120" height="120" as="geometry" />
        </mxCell>
        <mxCell id="tDDXm-gYxZy8OXo06DHz-10" value="&lt;div&gt;&lt;span style=&quot;font-weight: normal;&quot;&gt;prio: Normal&amp;nbsp;&lt;/span&gt;&lt;/div&gt;&lt;div&gt;&lt;span style=&quot;font-weight: normal;&quot;&gt;&lt;br&gt;&lt;/span&gt;&lt;/div&gt;Ler&amp;nbsp;&lt;div&gt;capacitivos&lt;/div&gt;" style="rounded=0;whiteSpace=wrap;html=1;fontStyle=1;fontSize=14;verticalAlign=top;strokeWidth=2;labelBackgroundColor=none;" parent="tDDXm-gYxZy8OXo06DHz-79" vertex="1">
          <mxGeometry width="120" height="120" as="geometry" />
        </mxCell>
        <mxCell id="uZgcKNraOqiOFHt2JM9J-17" value="" style="group" parent="tDDXm-gYxZy8OXo06DHz-79" vertex="1" connectable="0">
          <mxGeometry x="62" y="90" width="54" height="30" as="geometry" />
        </mxCell>
        <mxCell id="uZgcKNraOqiOFHt2JM9J-18" value="" style="shape=image;verticalLabelPosition=bottom;verticalAlign=top;imageAspect=0;aspect=fixed;image=data:image/png,iVBORw0KGgoAAAANSUhEUgAAACcAAAAkCAIAAACFVbTMAAAAAXNSR0IArs4c6QAAAARnQU1BAACxjwv8YQUAAAAJcEhZcwAADsMAAA7DAcdvqGQAAAYqSURBVFhHvZd7SNRZFMdHTV3Jx5huKm0+cpLyldoKOT5Gsn+i1bYXlGW7FfhHUISV5ZvAFlw0khAsyHwQ2NMSXFldI9dnZZoWbvlIndQc02YstPK53/mdO+P4c6aZDdkPvz9+95xz77mPc8+912hubk7wv2Oo1+npaZlM1tvX19vTIxsaEhgZQYi6y5Ytc3BwcHNzc3Z2dnJyImO96Pf69u3bJ0+eNDQ0dLx69fTp0z6plCk0EIlE/v7+Pj4+Af7+IaGhNjY2TKELeNXFyMhITk7Orl277OzsmLU+bIXCw4cPl9y9Oz4+zlrRhs6x1tbWXrlypaioiJUFAnd3d19fX7sVSl739DQ2Nkbv2zc9M6OQy0dGR/9pb+/s6iJLezu7n3fsiI2NDQwMJAkfcq4JlvDSpUuYLmYhEAQFBcXHx1dUVGD0ZIM+hUsk9D87Ozskk1VWViYlJQWJxayOQIA5LysrIxsefK9w+dv582ZmZlRz/fr1Z8+eff78OVOrQHPBYjEraADLtLQ0e3t7qo4ou3PnDtNpwPeakZFhYWFBdaIiI2tqakj+4sWL/Pz8L1++ULGkpMTby4v+F3Pv3j1MDzWyZs0aOMZ8MB3HAq9QC4VCst6zZ88bqZTk79+/3717N0aA5kgilUrv379P/1p59uxZWFgYNYURYxcwBce8166urpCQELLbu3fv4OAgU8zNff78OSEhAfJNmzaNKRRMqo+WlhaJyvHOnTvfvXvHFJpe4+LiaDklEklHRweTqhgYGEB8GRsZZV+8yEQGUF9f7+LsjDaRTAoLC2dmZkjOvKJfnp6eUFtbW9++fZuEPPKuXoWBl6dnf38/ExnA7xkZQi5pREREIOGQkHk9c+YMDfTAgQOjo6Mk5IFts3XrVmRCGDORCgRXbm4uKywEMeHr7Y2Wzc3M1GGh9ArFT9u2QQEKCgpIoZU/yspgg7DU3EuXL19GKl69evWfFRVMtJCsrCwba2tUPBkX9+nTJ0iUXpubm3/cuBHS8PDwzs5OzlI7Hz9+RMKD5fHjx0mCIVpZWUFy9OhRHA8k5IEuitzdYeOwciWtjtLrzZs3UYY0/vRpZAnOUifYAz+sWuXm6opkhJW2tLRExWPHjsnlcmaxiMnJST8/P5ghGOvr6iBRek1JTjbiTq5z586hshqtPUCigBmMESPLly9fYWubmZmJOWBqFcj+rBW5XKFQ+G3YgCpY2uqHD6FVesUQqSNOjo4IUXxIhODly5dcC3za2toQ8OgojgFk7KmpKabQIDExES1Qa/jQOdjD69/V1dDOewUpKSmYd/CGAzPDtcAHw0UoXL9+HTlS14ogQtECtQaUycDU1MTYeN5rclISzfCFCxe4KobCy65fAVkPDtQzbAxn3j4+33OnxODAAJKfctSGQX3Vy8TExIcPH3CMY2KQpCBRel27di12G36aW1qQ+ZSGS0pvb+/E+Dh+EAfOLi74UXp1dXV15C5aDx48wP0IP0vLX5WVyGv42b9/P12GlF7RBUStqakp/rELEej4WSrGxsby8vIUY2OIpjCJhB3etNq4/CHQUcT17tatWyRcErIyM+nM3rJlCz/7gxMnTtBwxWKxrp36X3n06BGyGNo0MTEpLi5Wx/y8V5ypwcHBsAAxMTFDQ0NM8a0g/W7evJkajIqK0szS814BTlacr2QXHR3d19fHFIvAxi8vL2cFbbS2tkaoXOJK+/jxY6bgWOAVpKenf2duTtaRkZEIaaZYCE5KH29vVlhEaWmpetpcXFzUx6oavlckVVwt1S8W3FpQbG9vZ2oVum6mTU1NaampOG6pOh4/N4qLmU4DvleA9Isc68VdAIjQ0NDU1NSqqir12tTW1alv4UjLyC1YnZOnTgUEBLA6AgHuiItHSeh8cVRXV1+7dg1XC1ZGChOJ0BWcS9jp3d3dcPzLwYOTU1PDw8OjIyNYC7w7yBKvnV8PHcKLY926dSThQ861gqMxOzt7+/bttra2zFofyOdHjhzBrH7j60oNwhUPqYb6ejyeWpqb+7Ulag8PD38/P3eRCBdmXIPoTvMVDH01Y7Gxg1+D7m7Z8DAJUdfc3Byxg72BC76joyPJ9WKo16VEIPgXzCHJehm8N40AAAAASUVORK5CYII=;strokeWidth=2;labelBackgroundColor=none;rounded=0;container=0;" parent="uZgcKNraOqiOFHt2JM9J-17" vertex="1">
          <mxGeometry x="34" y="5.769999999999996" width="20" height="18.46" as="geometry" />
        </mxCell>
        <mxCell id="uZgcKNraOqiOFHt2JM9J-19" value="1s" style="text;html=1;align=center;verticalAlign=middle;resizable=0;points=[];autosize=1;strokeColor=none;fillColor=none;fontStyle=1;fontSize=13;rounded=0;container=0;" parent="uZgcKNraOqiOFHt2JM9J-17" vertex="1">
          <mxGeometry width="40" height="30" as="geometry" />
        </mxCell>
        <mxCell id="tDDXm-gYxZy8OXo06DHz-81" value="" style="group;rounded=0;" parent="1" vertex="1" connectable="0">
          <mxGeometry x="-400" y="-110" width="120" height="121" as="geometry" />
        </mxCell>
        <mxCell id="tDDXm-gYxZy8OXo06DHz-13" value="&lt;div&gt;&lt;span style=&quot;font-weight: normal;&quot;&gt;prio: AboveNormal&lt;/span&gt;&lt;/div&gt;&lt;div&gt;&lt;span style=&quot;font-weight: normal;&quot;&gt;&lt;br&gt;&lt;/span&gt;&lt;/div&gt;Ler RTC&lt;div&gt;&lt;br&gt;&lt;/div&gt;" style="rounded=0;whiteSpace=wrap;html=1;fontStyle=1;fontSize=14;verticalAlign=top;strokeWidth=2;labelBackgroundColor=none;" parent="tDDXm-gYxZy8OXo06DHz-81" vertex="1">
          <mxGeometry width="120" height="120" as="geometry" />
        </mxCell>
        <mxCell id="uZgcKNraOqiOFHt2JM9J-16" value="" style="group" parent="tDDXm-gYxZy8OXo06DHz-81" vertex="1" connectable="0">
          <mxGeometry x="62" y="91" width="54" height="30" as="geometry" />
        </mxCell>
        <mxCell id="tDDXm-gYxZy8OXo06DHz-66" value="" style="shape=image;verticalLabelPosition=bottom;verticalAlign=top;imageAspect=0;aspect=fixed;image=data:image/png,iVBORw0KGgoAAAANSUhEUgAAACcAAAAkCAIAAACFVbTMAAAAAXNSR0IArs4c6QAAAARnQU1BAACxjwv8YQUAAAAJcEhZcwAADsMAAA7DAcdvqGQAAAYqSURBVFhHvZd7SNRZFMdHTV3Jx5huKm0+cpLyldoKOT5Gsn+i1bYXlGW7FfhHUISV5ZvAFlw0khAsyHwQ2NMSXFldI9dnZZoWbvlIndQc02YstPK53/mdO+P4c6aZDdkPvz9+95xz77mPc8+912hubk7wv2Oo1+npaZlM1tvX19vTIxsaEhgZQYi6y5Ytc3BwcHNzc3Z2dnJyImO96Pf69u3bJ0+eNDQ0dLx69fTp0z6plCk0EIlE/v7+Pj4+Af7+IaGhNjY2TKELeNXFyMhITk7Orl277OzsmLU+bIXCw4cPl9y9Oz4+zlrRhs6x1tbWXrlypaioiJUFAnd3d19fX7sVSl739DQ2Nkbv2zc9M6OQy0dGR/9pb+/s6iJLezu7n3fsiI2NDQwMJAkfcq4JlvDSpUuYLmYhEAQFBcXHx1dUVGD0ZIM+hUsk9D87Ozskk1VWViYlJQWJxayOQIA5LysrIxsefK9w+dv582ZmZlRz/fr1Z8+eff78OVOrQHPBYjEraADLtLQ0e3t7qo4ou3PnDtNpwPeakZFhYWFBdaIiI2tqakj+4sWL/Pz8L1++ULGkpMTby4v+F3Pv3j1MDzWyZs0aOMZ8MB3HAq9QC4VCst6zZ88bqZTk79+/3717N0aA5kgilUrv379P/1p59uxZWFgYNYURYxcwBce8166urpCQELLbu3fv4OAgU8zNff78OSEhAfJNmzaNKRRMqo+WlhaJyvHOnTvfvXvHFJpe4+LiaDklEklHRweTqhgYGEB8GRsZZV+8yEQGUF9f7+LsjDaRTAoLC2dmZkjOvKJfnp6eUFtbW9++fZuEPPKuXoWBl6dnf38/ExnA7xkZQi5pREREIOGQkHk9c+YMDfTAgQOjo6Mk5IFts3XrVmRCGDORCgRXbm4uKywEMeHr7Y2Wzc3M1GGh9ArFT9u2QQEKCgpIoZU/yspgg7DU3EuXL19GKl69evWfFRVMtJCsrCwba2tUPBkX9+nTJ0iUXpubm3/cuBHS8PDwzs5OzlI7Hz9+RMKD5fHjx0mCIVpZWUFy9OhRHA8k5IEuitzdYeOwciWtjtLrzZs3UYY0/vRpZAnOUifYAz+sWuXm6opkhJW2tLRExWPHjsnlcmaxiMnJST8/P5ghGOvr6iBRek1JTjbiTq5z586hshqtPUCigBmMESPLly9fYWubmZmJOWBqFcj+rBW5XKFQ+G3YgCpY2uqHD6FVesUQqSNOjo4IUXxIhODly5dcC3za2toQ8OgojgFk7KmpKabQIDExES1Qa/jQOdjD69/V1dDOewUpKSmYd/CGAzPDtcAHw0UoXL9+HTlS14ogQtECtQaUycDU1MTYeN5rclISzfCFCxe4KobCy65fAVkPDtQzbAxn3j4+33OnxODAAJKfctSGQX3Vy8TExIcPH3CMY2KQpCBRel27di12G36aW1qQ+ZSGS0pvb+/E+Dh+EAfOLi74UXp1dXV15C5aDx48wP0IP0vLX5WVyGv42b9/P12GlF7RBUStqakp/rELEej4WSrGxsby8vIUY2OIpjCJhB3etNq4/CHQUcT17tatWyRcErIyM+nM3rJlCz/7gxMnTtBwxWKxrp36X3n06BGyGNo0MTEpLi5Wx/y8V5ypwcHBsAAxMTFDQ0NM8a0g/W7evJkajIqK0szS814BTlacr2QXHR3d19fHFIvAxi8vL2cFbbS2tkaoXOJK+/jxY6bgWOAVpKenf2duTtaRkZEIaaZYCE5KH29vVlhEaWmpetpcXFzUx6oavlckVVwt1S8W3FpQbG9vZ2oVum6mTU1NaampOG6pOh4/N4qLmU4DvleA9Isc68VdAIjQ0NDU1NSqqir12tTW1alv4UjLyC1YnZOnTgUEBLA6AgHuiItHSeh8cVRXV1+7dg1XC1ZGChOJ0BWcS9jp3d3dcPzLwYOTU1PDw8OjIyNYC7w7yBKvnV8PHcKLY926dSThQ861gqMxOzt7+/bttra2zFofyOdHjhzBrH7j60oNwhUPqYb6ejyeWpqb+7Ulag8PD38/P3eRCBdmXIPoTvMVDH01Y7Gxg1+D7m7Z8DAJUdfc3Byxg72BC76joyPJ9WKo16VEIPgXzCHJehm8N40AAAAASUVORK5CYII=;strokeWidth=2;labelBackgroundColor=none;rounded=0;container=0;" parent="uZgcKNraOqiOFHt2JM9J-16" vertex="1">
          <mxGeometry x="34" y="5.769999999999996" width="20" height="18.46" as="geometry" />
        </mxCell>
        <mxCell id="tDDXm-gYxZy8OXo06DHz-67" value="1s" style="text;html=1;align=center;verticalAlign=middle;resizable=0;points=[];autosize=1;strokeColor=none;fillColor=none;fontStyle=1;fontSize=13;rounded=0;container=0;" parent="uZgcKNraOqiOFHt2JM9J-16" vertex="1">
          <mxGeometry width="40" height="30" as="geometry" />
        </mxCell>
        <mxCell id="tDDXm-gYxZy8OXo06DHz-82" style="edgeStyle=orthogonalEdgeStyle;orthogonalLoop=1;jettySize=auto;html=1;exitX=1;exitY=0.5;exitDx=0;exitDy=0;entryX=0;entryY=0.5;entryDx=0;entryDy=0;strokeWidth=2;rounded=0;" parent="1" source="tDDXm-gYxZy8OXo06DHz-13" target="tDDXm-gYxZy8OXo06DHz-74" edge="1">
          <mxGeometry relative="1" as="geometry" />
        </mxCell>
        <mxCell id="tDDXm-gYxZy8OXo06DHz-133" style="edgeStyle=orthogonalEdgeStyle;orthogonalLoop=1;jettySize=auto;html=1;exitX=1;exitY=0.5;exitDx=0;exitDy=0;entryX=0.5;entryY=1;entryDx=0;entryDy=0;strokeWidth=2;" parent="1" source="tDDXm-gYxZy8OXo06DHz-97" target="tDDXm-gYxZy8OXo06DHz-24" edge="1">
          <mxGeometry relative="1" as="geometry" />
        </mxCell>
        <mxCell id="tDDXm-gYxZy8OXo06DHz-97" value="" style="shape=image;verticalLabelPosition=bottom;verticalAlign=top;imageAspect=0;aspect=fixed;image=data:image/png,iVBORw0KGgoAAAANSUhEUgAAAD4AAAAjCAIAAABD6y5WAAAAAXNSR0IArs4c6QAAAARnQU1BAACxjwv8YQUAAAAJcEhZcwAADsMAAA7DAcdvqGQAAAKpSURBVFhH7Zhdb9JQGMfpoYXRljJIgAQn2RzK5nRezKsZ9wFc5t1MjDHMW41fRfR6ChPd9dR4sfhBXEboEpcBwV3wTstLW5+2R8XZdiS7aJf0lxB6nv7Pc/7npU36EIqieC4nqvV2uy3LMg44FfA5HA7hnySpcDgMEdX6vdXVw2IREYQuciYIIY4LeQhP+kZ679MeSZKq9eupVInnscSpcMFg4cMuwzCSLCWTycWFNILoaDTSbzucaDQai8enp8OSJEFTXfWHGxv80ZHFgak3Go16PZFImD0SBEGUy+VwOELTtKIYaAiEup1Os9lMJK4YCgA4EpVKhWVZjuPODCQrSiQSyWbfBGh6MBiEQtzSzcWJ3jD5fH57+20uv9NqtXBoDPBNUdTTJ4+fv3h5f22t1+vhG2MwLPttf7/wfqfwcVcURcNBg8Hgs63Mg/X1zc1H8ObA0TH0XrDkunX1wJwLmNOAjTFlTHYhLPJoXv4ykXXYPpixLEtwYYYus0ZLYgUILDS6mT9MZN2ZuNbtwLVuB651O3Ct24Fr3Q5c63bgWrcD17oduNbtYCLrPp8PITRlCQhAhhtGUBQ1SRKQ4ca/+P1+7OY3JPzKJycDtZxnSqVSEQSBL5U6nQ4OjUMQFEn2+/1qtcrzvCgIOD5GgKFrtZooiiAApceomMGwDIxyevqT50vdThdHNUDt9XpjsRjMDYdgWPgCv7O8/P3gwKKEpH+lQ2e4wKH/AIFWcYDURhqCgBTQHSGvsUCrYUiSpKZA6MxA0DMei33+8pVh2V5P8PnI27eWVOsL6fRhsYhVJsC0TF1rnCsALpIkxHGvsq+nAjTp9a7cXZm/Nqeu6NWZGXz/MjA3OwueAXXVtzKZH8fHpsfFMcCZhD1Jzc+/y+WgOVHN0Yl4PL8AtQuSazLKfHQAAAAASUVORK5CYII=;rounded=0;direction=west;" parent="1" vertex="1">
          <mxGeometry x="450" y="442.5" width="62" height="35" as="geometry" />
        </mxCell>
        <mxCell id="tDDXm-gYxZy8OXo06DHz-105" style="edgeStyle=orthogonalEdgeStyle;orthogonalLoop=1;jettySize=auto;html=1;exitX=0;exitY=0.5;exitDx=0;exitDy=0;entryX=1;entryY=0.5;entryDx=0;entryDy=0;strokeWidth=2;jumpStyle=arc;jumpSize=12;" parent="1" source="tDDXm-gYxZy8OXo06DHz-41" target="tDDXm-gYxZy8OXo06DHz-21" edge="1">
          <mxGeometry relative="1" as="geometry" />
        </mxCell>
        <mxCell id="tDDXm-gYxZy8OXo06DHz-106" style="edgeStyle=orthogonalEdgeStyle;orthogonalLoop=1;jettySize=auto;html=1;exitX=0.5;exitY=1;exitDx=0;exitDy=0;entryX=1;entryY=0.25;entryDx=0;entryDy=0;strokeWidth=2;jumpStyle=arc;jumpSize=12;" parent="1" source="tDDXm-gYxZy8OXo06DHz-41" target="tDDXm-gYxZy8OXo06DHz-14" edge="1">
          <mxGeometry relative="1" as="geometry" />
        </mxCell>
        <mxCell id="tDDXm-gYxZy8OXo06DHz-107" style="edgeStyle=orthogonalEdgeStyle;orthogonalLoop=1;jettySize=auto;html=1;exitX=0;exitY=0.5;exitDx=0;exitDy=0;strokeWidth=2;jumpStyle=arc;jumpSize=12;" parent="1" source="tDDXm-gYxZy8OXo06DHz-6" target="tDDXm-gYxZy8OXo06DHz-41" edge="1">
          <mxGeometry relative="1" as="geometry" />
        </mxCell>
        <mxCell id="tDDXm-gYxZy8OXo06DHz-109" style="edgeStyle=orthogonalEdgeStyle;orthogonalLoop=1;jettySize=auto;html=1;exitX=0.5;exitY=1;exitDx=0;exitDy=0;entryX=0;entryY=0.25;entryDx=0;entryDy=0;strokeWidth=2;jumpStyle=arc;jumpSize=12;" parent="1" source="tDDXm-gYxZy8OXo06DHz-30" target="tDDXm-gYxZy8OXo06DHz-23" edge="1">
          <mxGeometry relative="1" as="geometry">
            <Array as="points">
              <mxPoint x="-180" y="270" />
            </Array>
          </mxGeometry>
        </mxCell>
        <mxCell id="tDDXm-gYxZy8OXo06DHz-110" style="edgeStyle=orthogonalEdgeStyle;orthogonalLoop=1;jettySize=auto;html=1;exitX=1;exitY=0.5;exitDx=0;exitDy=0;entryX=0;entryY=0.5;entryDx=0;entryDy=0;jumpStyle=arc;jumpSize=12;strokeWidth=2;" parent="1" source="tDDXm-gYxZy8OXo06DHz-30" target="tDDXm-gYxZy8OXo06DHz-14" edge="1">
          <mxGeometry relative="1" as="geometry" />
        </mxCell>
        <mxCell id="tDDXm-gYxZy8OXo06DHz-132" style="edgeStyle=orthogonalEdgeStyle;orthogonalLoop=1;jettySize=auto;html=1;exitX=1;exitY=0.5;exitDx=0;exitDy=0;entryX=1;entryY=0.5;entryDx=0;entryDy=0;strokeWidth=2;" parent="1" source="tDDXm-gYxZy8OXo06DHz-111" target="tDDXm-gYxZy8OXo06DHz-23" edge="1">
          <mxGeometry relative="1" as="geometry" />
        </mxCell>
        <mxCell id="tDDXm-gYxZy8OXo06DHz-111" value="" style="shape=image;verticalLabelPosition=bottom;verticalAlign=top;imageAspect=0;aspect=fixed;image=data:image/png,iVBORw0KGgoAAAANSUhEUgAAAD4AAAAjCAIAAABD6y5WAAAAAXNSR0IArs4c6QAAAARnQU1BAACxjwv8YQUAAAAJcEhZcwAADsMAAA7DAcdvqGQAAAKpSURBVFhH7Zhdb9JQGMfpoYXRljJIgAQn2RzK5nRezKsZ9wFc5t1MjDHMW41fRfR6ChPd9dR4sfhBXEboEpcBwV3wTstLW5+2R8XZdiS7aJf0lxB6nv7Pc/7npU36EIqieC4nqvV2uy3LMg44FfA5HA7hnySpcDgMEdX6vdXVw2IREYQuciYIIY4LeQhP+kZ679MeSZKq9eupVInnscSpcMFg4cMuwzCSLCWTycWFNILoaDTSbzucaDQai8enp8OSJEFTXfWHGxv80ZHFgak3Go16PZFImD0SBEGUy+VwOELTtKIYaAiEup1Os9lMJK4YCgA4EpVKhWVZjuPODCQrSiQSyWbfBGh6MBiEQtzSzcWJ3jD5fH57+20uv9NqtXBoDPBNUdTTJ4+fv3h5f22t1+vhG2MwLPttf7/wfqfwcVcURcNBg8Hgs63Mg/X1zc1H8ObA0TH0XrDkunX1wJwLmNOAjTFlTHYhLPJoXv4ykXXYPpixLEtwYYYus0ZLYgUILDS6mT9MZN2ZuNbtwLVuB651O3Ct24Fr3Q5c63bgWrcD17oduNbtYCLrPp8PITRlCQhAhhtGUBQ1SRKQ4ca/+P1+7OY3JPzKJycDtZxnSqVSEQSBL5U6nQ4OjUMQFEn2+/1qtcrzvCgIOD5GgKFrtZooiiAApceomMGwDIxyevqT50vdThdHNUDt9XpjsRjMDYdgWPgCv7O8/P3gwKKEpH+lQ2e4wKH/AIFWcYDURhqCgBTQHSGvsUCrYUiSpKZA6MxA0DMei33+8pVh2V5P8PnI27eWVOsL6fRhsYhVJsC0TF1rnCsALpIkxHGvsq+nAjTp9a7cXZm/Nqeu6NWZGXz/MjA3OwueAXXVtzKZH8fHpsfFMcCZhD1Jzc+/y+WgOVHN0Yl4PL8AtQuSazLKfHQAAAAASUVORK5CYII=;labelBackgroundColor=none;rounded=0;direction=west;" parent="1" vertex="1">
          <mxGeometry x="210" y="282.5" width="62" height="35" as="geometry" />
        </mxCell>
        <mxCell id="tDDXm-gYxZy8OXo06DHz-115" value="" style="group" parent="1" vertex="1" connectable="0">
          <mxGeometry x="40" y="-80" width="124" height="126" as="geometry" />
        </mxCell>
        <mxCell id="tDDXm-gYxZy8OXo06DHz-21" value="&lt;div&gt;&lt;span style=&quot;font-weight: normal;&quot;&gt;prio: Low&amp;nbsp;&lt;/span&gt;&lt;/div&gt;&lt;div&gt;&lt;span style=&quot;font-weight: normal;&quot;&gt;&lt;br&gt;&lt;/span&gt;&lt;/div&gt;&lt;div&gt;Atualizar&amp;nbsp;&lt;/div&gt;&lt;div&gt;display&lt;/div&gt;" style="rounded=0;whiteSpace=wrap;html=1;fontStyle=1;fontSize=14;verticalAlign=top;strokeWidth=2;labelBackgroundColor=none;" parent="tDDXm-gYxZy8OXo06DHz-115" vertex="1">
          <mxGeometry width="120" height="120" as="geometry" />
        </mxCell>
        <mxCell id="uZgcKNraOqiOFHt2JM9J-20" value="" style="group" parent="tDDXm-gYxZy8OXo06DHz-115" vertex="1" connectable="0">
          <mxGeometry x="62" y="86" width="54" height="35" as="geometry" />
        </mxCell>
        <mxCell id="uZgcKNraOqiOFHt2JM9J-21" value="" style="shape=image;verticalLabelPosition=bottom;verticalAlign=top;imageAspect=0;aspect=fixed;image=data:image/png,iVBORw0KGgoAAAANSUhEUgAAACcAAAAkCAIAAACFVbTMAAAAAXNSR0IArs4c6QAAAARnQU1BAACxjwv8YQUAAAAJcEhZcwAADsMAAA7DAcdvqGQAAAYqSURBVFhHvZd7SNRZFMdHTV3Jx5huKm0+cpLyldoKOT5Gsn+i1bYXlGW7FfhHUISV5ZvAFlw0khAsyHwQ2NMSXFldI9dnZZoWbvlIndQc02YstPK53/mdO+P4c6aZDdkPvz9+95xz77mPc8+912hubk7wv2Oo1+npaZlM1tvX19vTIxsaEhgZQYi6y5Ytc3BwcHNzc3Z2dnJyImO96Pf69u3bJ0+eNDQ0dLx69fTp0z6plCk0EIlE/v7+Pj4+Af7+IaGhNjY2TKELeNXFyMhITk7Orl277OzsmLU+bIXCw4cPl9y9Oz4+zlrRhs6x1tbWXrlypaioiJUFAnd3d19fX7sVSl739DQ2Nkbv2zc9M6OQy0dGR/9pb+/s6iJLezu7n3fsiI2NDQwMJAkfcq4JlvDSpUuYLmYhEAQFBcXHx1dUVGD0ZIM+hUsk9D87Ozskk1VWViYlJQWJxayOQIA5LysrIxsefK9w+dv582ZmZlRz/fr1Z8+eff78OVOrQHPBYjEraADLtLQ0e3t7qo4ou3PnDtNpwPeakZFhYWFBdaIiI2tqakj+4sWL/Pz8L1++ULGkpMTby4v+F3Pv3j1MDzWyZs0aOMZ8MB3HAq9QC4VCst6zZ88bqZTk79+/3717N0aA5kgilUrv379P/1p59uxZWFgYNYURYxcwBce8166urpCQELLbu3fv4OAgU8zNff78OSEhAfJNmzaNKRRMqo+WlhaJyvHOnTvfvXvHFJpe4+LiaDklEklHRweTqhgYGEB8GRsZZV+8yEQGUF9f7+LsjDaRTAoLC2dmZkjOvKJfnp6eUFtbW9++fZuEPPKuXoWBl6dnf38/ExnA7xkZQi5pREREIOGQkHk9c+YMDfTAgQOjo6Mk5IFts3XrVmRCGDORCgRXbm4uKywEMeHr7Y2Wzc3M1GGh9ArFT9u2QQEKCgpIoZU/yspgg7DU3EuXL19GKl69evWfFRVMtJCsrCwba2tUPBkX9+nTJ0iUXpubm3/cuBHS8PDwzs5OzlI7Hz9+RMKD5fHjx0mCIVpZWUFy9OhRHA8k5IEuitzdYeOwciWtjtLrzZs3UYY0/vRpZAnOUifYAz+sWuXm6opkhJW2tLRExWPHjsnlcmaxiMnJST8/P5ghGOvr6iBRek1JTjbiTq5z586hshqtPUCigBmMESPLly9fYWubmZmJOWBqFcj+rBW5XKFQ+G3YgCpY2uqHD6FVesUQqSNOjo4IUXxIhODly5dcC3za2toQ8OgojgFk7KmpKabQIDExES1Qa/jQOdjD69/V1dDOewUpKSmYd/CGAzPDtcAHw0UoXL9+HTlS14ogQtECtQaUycDU1MTYeN5rclISzfCFCxe4KobCy65fAVkPDtQzbAxn3j4+33OnxODAAJKfctSGQX3Vy8TExIcPH3CMY2KQpCBRel27di12G36aW1qQ+ZSGS0pvb+/E+Dh+EAfOLi74UXp1dXV15C5aDx48wP0IP0vLX5WVyGv42b9/P12GlF7RBUStqakp/rELEej4WSrGxsby8vIUY2OIpjCJhB3etNq4/CHQUcT17tatWyRcErIyM+nM3rJlCz/7gxMnTtBwxWKxrp36X3n06BGyGNo0MTEpLi5Wx/y8V5ypwcHBsAAxMTFDQ0NM8a0g/W7evJkajIqK0szS814BTlacr2QXHR3d19fHFIvAxi8vL2cFbbS2tkaoXOJK+/jxY6bgWOAVpKenf2duTtaRkZEIaaZYCE5KH29vVlhEaWmpetpcXFzUx6oavlckVVwt1S8W3FpQbG9vZ2oVum6mTU1NaampOG6pOh4/N4qLmU4DvleA9Isc68VdAIjQ0NDU1NSqqir12tTW1alv4UjLyC1YnZOnTgUEBLA6AgHuiItHSeh8cVRXV1+7dg1XC1ZGChOJ0BWcS9jp3d3dcPzLwYOTU1PDw8OjIyNYC7w7yBKvnV8PHcKLY926dSThQ861gqMxOzt7+/bttra2zFofyOdHjhzBrH7j60oNwhUPqYb6ejyeWpqb+7Ulag8PD38/P3eRCBdmXIPoTvMVDH01Y7Gxg1+D7m7Z8DAJUdfc3Byxg72BC76joyPJ9WKo16VEIPgXzCHJehm8N40AAAAASUVORK5CYII=;strokeWidth=2;labelBackgroundColor=none;rounded=0;container=0;" parent="uZgcKNraOqiOFHt2JM9J-20" vertex="1">
          <mxGeometry x="34" y="5.769999999999996" width="20" height="18.46" as="geometry" />
        </mxCell>
        <mxCell id="uZgcKNraOqiOFHt2JM9J-22" value="min&lt;div&gt;1s&lt;/div&gt;" style="text;html=1;align=center;verticalAlign=middle;resizable=0;points=[];autosize=1;strokeColor=none;fillColor=none;fontStyle=1;fontSize=13;rounded=0;container=0;" parent="uZgcKNraOqiOFHt2JM9J-20" vertex="1">
          <mxGeometry y="-5" width="40" height="40" as="geometry" />
        </mxCell>
        <mxCell id="tDDXm-gYxZy8OXo06DHz-122" style="edgeStyle=orthogonalEdgeStyle;orthogonalLoop=1;jettySize=auto;html=1;exitX=1;exitY=0.5;exitDx=0;exitDy=0;entryX=0;entryY=0.75;entryDx=0;entryDy=0;strokeWidth=2;" parent="1" source="tDDXm-gYxZy8OXo06DHz-120" target="tDDXm-gYxZy8OXo06DHz-23" edge="1">
          <mxGeometry relative="1" as="geometry" />
        </mxCell>
        <mxCell id="tDDXm-gYxZy8OXo06DHz-120" value="" style="shape=image;verticalLabelPosition=bottom;verticalAlign=top;imageAspect=0;aspect=fixed;image=data:image/png,iVBORw0KGgoAAAANSUhEUgAAAD4AAAAjCAIAAABD6y5WAAAAAXNSR0IArs4c6QAAAARnQU1BAACxjwv8YQUAAAAJcEhZcwAADsMAAA7DAcdvqGQAAAKpSURBVFhH7Zhdb9JQGMfpoYXRljJIgAQn2RzK5nRezKsZ9wFc5t1MjDHMW41fRfR6ChPd9dR4sfhBXEboEpcBwV3wTstLW5+2R8XZdiS7aJf0lxB6nv7Pc/7npU36EIqieC4nqvV2uy3LMg44FfA5HA7hnySpcDgMEdX6vdXVw2IREYQuciYIIY4LeQhP+kZ679MeSZKq9eupVInnscSpcMFg4cMuwzCSLCWTycWFNILoaDTSbzucaDQai8enp8OSJEFTXfWHGxv80ZHFgak3Go16PZFImD0SBEGUy+VwOELTtKIYaAiEup1Os9lMJK4YCgA4EpVKhWVZjuPODCQrSiQSyWbfBGh6MBiEQtzSzcWJ3jD5fH57+20uv9NqtXBoDPBNUdTTJ4+fv3h5f22t1+vhG2MwLPttf7/wfqfwcVcURcNBg8Hgs63Mg/X1zc1H8ObA0TH0XrDkunX1wJwLmNOAjTFlTHYhLPJoXv4ykXXYPpixLEtwYYYus0ZLYgUILDS6mT9MZN2ZuNbtwLVuB651O3Ct24Fr3Q5c63bgWrcD17oduNbtYCLrPp8PITRlCQhAhhtGUBQ1SRKQ4ca/+P1+7OY3JPzKJycDtZxnSqVSEQSBL5U6nQ4OjUMQFEn2+/1qtcrzvCgIOD5GgKFrtZooiiAApceomMGwDIxyevqT50vdThdHNUDt9XpjsRjMDYdgWPgCv7O8/P3gwKKEpH+lQ2e4wKH/AIFWcYDURhqCgBTQHSGvsUCrYUiSpKZA6MxA0DMei33+8pVh2V5P8PnI27eWVOsL6fRhsYhVJsC0TF1rnCsALpIkxHGvsq+nAjTp9a7cXZm/Nqeu6NWZGXz/MjA3OwueAXXVtzKZH8fHpsfFMcCZhD1Jzc+/y+WgOVHN0Yl4PL8AtQuSazLKfHQAAAAASUVORK5CYII=;labelBackgroundColor=none;rounded=0;direction=north;" parent="1" vertex="1">
          <mxGeometry x="-30" y="360" width="35" height="62" as="geometry" />
        </mxCell>
        <mxCell id="tDDXm-gYxZy8OXo06DHz-121" style="edgeStyle=orthogonalEdgeStyle;orthogonalLoop=1;jettySize=auto;html=1;exitX=1;exitY=0.5;exitDx=0;exitDy=0;entryX=0;entryY=0.5;entryDx=0;entryDy=0;strokeWidth=2;" parent="1" source="tDDXm-gYxZy8OXo06DHz-18" target="tDDXm-gYxZy8OXo06DHz-120" edge="1">
          <mxGeometry relative="1" as="geometry" />
        </mxCell>
        <mxCell id="tDDXm-gYxZy8OXo06DHz-124" value="" style="shape=image;verticalLabelPosition=bottom;verticalAlign=top;imageAspect=0;aspect=fixed;image=data:image/png,iVBORw0KGgoAAAANSUhEUgAAAC4AAAAxCAIAAAAqWwwuAAAAAXNSR0IArs4c6QAAAARnQU1BAACxjwv8YQUAAAAJcEhZcwAADsMAAA7DAcdvqGQAAAlFSURBVFhHvVh7UFNXHoaEJBDkkfAIiASGx7orIAVEEJQuVMAHKELHojj7R3d0/5KBnensbIuzLp1CsR1dXVeowmLFcQXFuhTqulN8MHSUdwHlGUIRBBISFAiPvPdL7m2WRwg3Wv3IDPee8zvnfOf3Or9zLbVarcWrQqFQ0Ol0kVhsy2avW7dOo9EwGAyyz3yYTUUkEj158qS2tranp2d+bo5Gp72YfGFtbW3DZms1Gg6HsyMmJjIy0tfX187OjhxDDVSpqFSqhw8f3r59u6mpSalUYmG2DRsLQytMJkutRr96QT4vFovpdNqkROri4pK8b19ycrK/vz85xVqgRKWmpqakpKSjo8PNzT0wKMjXx9f/V/5cLhe6oOlA12o1mAcUZ2dnx8ZGu552DQwIfhr6SSFf2LNnz4cf/t7Pz4+ca3WsQWVoaOjM6dNVVVXevj4x298NDQvj8/lwCKyqVqvhHKScHpaWluBlZWUFVU3PTAv6BT/8UN/a3AyiWdnZ6enpaCdFjcEUlbq6ury8/PHx8cRdu3bGx/NceVgbrkpFkViVwWCqVMq+vr5vblU2Nzdti4z829mzMBwpsQLGqaCxtLQ0Ly9v469/88EH6QEBAZiaIonF0BNiTE9P379XW1r6Tz9f388LCsLCwsjupTBCBR5YWFiYn58fFRV99NgfXF1d0bLMFmaBiPC2traLhRcsaZb/uHDBKBsjVG7cuJGdlZW8b/+hwxkISLiFucpYCfgQk8ns7e398otTiL3i4uKVjrycCiL2SMaRsPAtH330JwQsjAJnJPteA1gFbFgsFsIw9+RfgjYHXb58eVnioZ88eZJ81Kev48ePc7nO2dl/dHBwgD4QE6DymlrRxTuNBhMD7uvXOzk5ISTl8vmYmJjF+/z/MgjO3Nzc4kuX8gu+CAwMUioVGD83N9fX2yuVSBCmhJh50Gox0InL9fbxsbe3BxU4Mqb9qqjoznfVxSUlCQkJpORiKq2trSn79x/OOJKa9j7aQRfe+v1/714pLaXR6a9uJiyg1YaEhh3Pzob/4hlOI5FIPs39K8fRoezqVVAkBMm9YtWysrINfH5s3Ht0uhWSEt3KampqqrWlZWFhQSGXyxcWXvEnl8tkssFB4cjwMPSBtWB3Ho93IDVtQCisqKggCAAkladPn35z69auxN1I5xqNmmjU70cLlQLIoXjGvHBkisD2fh5Lx5wzMplhWrDBkenpya+srHz58iXRbkX0lZeX8728tm7dCuKYgugDDHZRq9Q4/Hhubjj4iBZT0A2yhDrHx8bgH4YmA7AEwgJneEX59fr6+qSkJDTqqIyOjpZduZJ+KIOjU4nxVDYzM5Ocsu/Tzz6TzZKbMwFLC91h1N7enp2ZOSebJVuXAkS3bNlSfv1fVVX/3rt3L/asM1BnZyfL2jpo82bCrQjRZdBoNba2tnCx9QjHtX7u7u7wBqRpLLBaGoBieDy3gMCgkZHnKC3QoqOCEgTRi/F4Xo0KYKLLKFZTMAHMBjcKDw+XSKSNjQ1oocET79+/7+HhYcO2MT34Fwec19/Pf1IqffzoMV5pk5OTz5494zo5MRlMc/f9mkBSdXB05LnxiCCiwU4atdrNzQ3h+pa1guVwDDk6ciRSCdI6DZWRQql0dHSE5UiRtwUYgW1rCzbIpahEkdN1SZ2mDyUTwDCojXyhBhsbG/JpdWBa6AaRDw5UZ0ecP3/+vKHhsUpJIcUBlpYoJTVqjS6eqXkgVSpIKi3NLTl//mRxLjYBMJhfmEeMYMeGk8Q0aETUQEHE+2qAHaenprq7ugR9/VR+/b29o8MjmByciBmIhZYBvQDJARdMVBA4q2Azw7CVgDTY4BbIsmZR+1kzmExiLM4vlP4o4YhXA7AcqiKAYcXA5DTUVPDHyReTiHJSxBgwDKaBnyPqqAPyANfZeWfCLi8+f5liMOfC/PzsrAxZDXFk5enpCUYT4glQgV2NqhHAvOERESkHUufn58kmCtDiz8LCzs4exz68bdlusRySm1gkfic4GOqwQshFb9/+bHgIe8AYUmoF4IBu7u5xO+Nx7SObKAMpFFZYqXWsPjIyzGKyNgUE4FWXTmJjY1uamialk1CPXsYIdAZSKmWymVkZygTzflDkSh6YEAni0aNHGgsNcS3SUYmIiEDdJxQKMQASesk3DlgHSbanu9tjgwfxtUFHxcfHJzo6Gic1HMKEYn5ZoNjGXQKGS9qbhMBEi44KbJaamtrY8FggEOD1LSgGKoHz3bnzHYNBj4+PJxuJf/HxO339/O7Vfo86D3JE45sDckx3d1dPT09CQqKXlxfRSK7K5TodPXq0ru4hiktQeaOKgQ/g3vBtVZUt2yYjI4NsNVABdu/evW3bthsV5VKpFBeGN8RFHzjM+rq6xoaG1LQ0b29vsmMxFZQsmZmZA4L+69evIR+DO9KdoZjCw8qANBfgAQ/F9azsytchoSHHjh0jO/RY4hZRUVE5OTl3amru3v0PeLBYcHOm7homl4MZ0uVquZgKwAOzTUyIiy9dxP3hxIkTpr4kQBqJD3XJ15dLXVxdN20KQItQMIBc9E5ISPKBA3b6KzgpbQ4IHrgq//3c2Y72H/Pz8+Pi4si+n2HkgwXOhU8+/riy8lZmVlZc3Hui8XGRSOSxYQPqX4rFyjIgDhAyqFzPnz/X3tZ2+syZtLQ0sm8RjFABwOZETs7NmzcPHT4C50IljPv7q/GARnFp7u/ru/hVIXIaeCCHkX1LscRABsC5duzYoVKrYal+QT9ua6glsDNYh7q7IHNiCPFN8Py5cwqF/POCgpSUFLJ7BYxrxYCyq1e/PHUKKv7tu7GxcbG4+2N24pg16jTwCZgDJKCMqempzo7Omupvf2xrxS0wLz9/48aNpJwxrEEFGBwcLCoqqq6uZtuuCwwIDA4Oxu3a3t6BbctG7kH+JsRAAmWbQq5AsTE2NtbU2NDT29Pf18/hOP5OD+yBkFwNa1Mh0NzcfO3aNZzpMzMzuKIjOztxnby8vXBH15dHFkqValAoFIlFUskEasLxsXE+3zMt7f2DBw86Ozvr51gDVKkQwFXywYMH92prB4RCOAGbzeZwORb6UhrqmRCLca1ycXYOCQ1NSEzcHBSEVESOpADzqBggk8lQbQwPDyNV4BVcABQbus9BPB4hYx4sLP4HJ4eB01PlMdUAAAAASUVORK5CYII=;strokeWidth=2;labelBackgroundColor=none;rounded=0;" parent="1" vertex="1">
          <mxGeometry x="81.7" y="383" width="36.61" height="39" as="geometry" />
        </mxCell>
        <mxCell id="tDDXm-gYxZy8OXo06DHz-134" style="edgeStyle=orthogonalEdgeStyle;orthogonalLoop=1;jettySize=auto;html=1;exitX=0;exitY=0.5;exitDx=0;exitDy=0;entryX=0;entryY=0.5;entryDx=0;entryDy=0;strokeWidth=2;" parent="1" source="tDDXm-gYxZy8OXo06DHz-11" target="tDDXm-gYxZy8OXo06DHz-97" edge="1">
          <mxGeometry relative="1" as="geometry" />
        </mxCell>
        <mxCell id="tDDXm-gYxZy8OXo06DHz-135" style="edgeStyle=orthogonalEdgeStyle;orthogonalLoop=1;jettySize=auto;html=1;exitX=0.5;exitY=0;exitDx=0;exitDy=0;entryX=0;entryY=0.75;entryDx=0;entryDy=0;strokeWidth=2;jumpStyle=arc;jumpSize=12;" parent="1" source="tDDXm-gYxZy8OXo06DHz-41" target="tDDXm-gYxZy8OXo06DHz-17" edge="1">
          <mxGeometry relative="1" as="geometry" />
        </mxCell>
        <mxCell id="tDDXm-gYxZy8OXo06DHz-136" style="edgeStyle=orthogonalEdgeStyle;orthogonalLoop=1;jettySize=auto;html=1;exitX=0.5;exitY=0;exitDx=0;exitDy=0;entryX=0;entryY=0.25;entryDx=0;entryDy=0;strokeWidth=2;jumpStyle=arc;jumpSize=12;" parent="1" source="tDDXm-gYxZy8OXo06DHz-74" target="tDDXm-gYxZy8OXo06DHz-17" edge="1">
          <mxGeometry relative="1" as="geometry" />
        </mxCell>
        <mxCell id="tDDXm-gYxZy8OXo06DHz-138" style="edgeStyle=orthogonalEdgeStyle;orthogonalLoop=1;jettySize=auto;html=1;exitX=1;exitY=0.5;exitDx=0;exitDy=0;entryX=1;entryY=0.5;entryDx=0;entryDy=0;strokeWidth=2;" parent="1" source="tDDXm-gYxZy8OXo06DHz-11" target="tDDXm-gYxZy8OXo06DHz-17" edge="1">
          <mxGeometry relative="1" as="geometry">
            <Array as="points">
              <mxPoint x="760" y="460" />
              <mxPoint x="760" y="-180" />
            </Array>
          </mxGeometry>
        </mxCell>
        <mxCell id="tDDXm-gYxZy8OXo06DHz-141" style="edgeStyle=orthogonalEdgeStyle;orthogonalLoop=1;jettySize=auto;html=1;exitX=1;exitY=0.5;exitDx=0;exitDy=0;entryX=0.5;entryY=1;entryDx=0;entryDy=0;strokeWidth=2;" parent="1" source="tDDXm-gYxZy8OXo06DHz-139" target="tDDXm-gYxZy8OXo06DHz-17" edge="1">
          <mxGeometry relative="1" as="geometry" />
        </mxCell>
        <mxCell id="tDDXm-gYxZy8OXo06DHz-139" value="" style="shape=image;verticalLabelPosition=bottom;verticalAlign=top;imageAspect=0;aspect=fixed;image=data:image/png,iVBORw0KGgoAAAANSUhEUgAAAD4AAAAjCAIAAABD6y5WAAAAAXNSR0IArs4c6QAAAARnQU1BAACxjwv8YQUAAAAJcEhZcwAADsMAAA7DAcdvqGQAAAKpSURBVFhH7Zhdb9JQGMfpoYXRljJIgAQn2RzK5nRezKsZ9wFc5t1MjDHMW41fRfR6ChPd9dR4sfhBXEboEpcBwV3wTstLW5+2R8XZdiS7aJf0lxB6nv7Pc/7npU36EIqieC4nqvV2uy3LMg44FfA5HA7hnySpcDgMEdX6vdXVw2IREYQuciYIIY4LeQhP+kZ679MeSZKq9eupVInnscSpcMFg4cMuwzCSLCWTycWFNILoaDTSbzucaDQai8enp8OSJEFTXfWHGxv80ZHFgak3Go16PZFImD0SBEGUy+VwOELTtKIYaAiEup1Os9lMJK4YCgA4EpVKhWVZjuPODCQrSiQSyWbfBGh6MBiEQtzSzcWJ3jD5fH57+20uv9NqtXBoDPBNUdTTJ4+fv3h5f22t1+vhG2MwLPttf7/wfqfwcVcURcNBg8Hgs63Mg/X1zc1H8ObA0TH0XrDkunX1wJwLmNOAjTFlTHYhLPJoXv4ykXXYPpixLEtwYYYus0ZLYgUILDS6mT9MZN2ZuNbtwLVuB651O3Ct24Fr3Q5c63bgWrcD17oduNbtYCLrPp8PITRlCQhAhhtGUBQ1SRKQ4ca/+P1+7OY3JPzKJycDtZxnSqVSEQSBL5U6nQ4OjUMQFEn2+/1qtcrzvCgIOD5GgKFrtZooiiAApceomMGwDIxyevqT50vdThdHNUDt9XpjsRjMDYdgWPgCv7O8/P3gwKKEpH+lQ2e4wKH/AIFWcYDURhqCgBTQHSGvsUCrYUiSpKZA6MxA0DMei33+8pVh2V5P8PnI27eWVOsL6fRhsYhVJsC0TF1rnCsALpIkxHGvsq+nAjTp9a7cXZm/Nqeu6NWZGXz/MjA3OwueAXXVtzKZH8fHpsfFMcCZhD1Jzc+/y+WgOVHN0Yl4PL8AtQuSazLKfHQAAAAASUVORK5CYII=;labelBackgroundColor=none;rounded=0;direction=north;" parent="1" vertex="1">
          <mxGeometry x="602.5" y="-51" width="35" height="62" as="geometry" />
        </mxCell>
        <mxCell id="tDDXm-gYxZy8OXo06DHz-144" style="edgeStyle=orthogonalEdgeStyle;orthogonalLoop=1;jettySize=auto;html=1;exitX=1;exitY=0.5;exitDx=0;exitDy=0;entryX=1;entryY=0.5;entryDx=0;entryDy=0;strokeWidth=2;" parent="1" source="tDDXm-gYxZy8OXo06DHz-142" target="tDDXm-gYxZy8OXo06DHz-24" edge="1">
          <mxGeometry relative="1" as="geometry" />
        </mxCell>
        <mxCell id="tDDXm-gYxZy8OXo06DHz-142" value="" style="shape=image;verticalLabelPosition=bottom;verticalAlign=top;imageAspect=0;aspect=fixed;image=data:image/png,iVBORw0KGgoAAAANSUhEUgAAAD4AAAAjCAIAAABD6y5WAAAAAXNSR0IArs4c6QAAAARnQU1BAACxjwv8YQUAAAAJcEhZcwAADsMAAA7DAcdvqGQAAAKpSURBVFhH7Zhdb9JQGMfpoYXRljJIgAQn2RzK5nRezKsZ9wFc5t1MjDHMW41fRfR6ChPd9dR4sfhBXEboEpcBwV3wTstLW5+2R8XZdiS7aJf0lxB6nv7Pc/7npU36EIqieC4nqvV2uy3LMg44FfA5HA7hnySpcDgMEdX6vdXVw2IREYQuciYIIY4LeQhP+kZ679MeSZKq9eupVInnscSpcMFg4cMuwzCSLCWTycWFNILoaDTSbzucaDQai8enp8OSJEFTXfWHGxv80ZHFgak3Go16PZFImD0SBEGUy+VwOELTtKIYaAiEup1Os9lMJK4YCgA4EpVKhWVZjuPODCQrSiQSyWbfBGh6MBiEQtzSzcWJ3jD5fH57+20uv9NqtXBoDPBNUdTTJ4+fv3h5f22t1+vhG2MwLPttf7/wfqfwcVcURcNBg8Hgs63Mg/X1zc1H8ObA0TH0XrDkunX1wJwLmNOAjTFlTHYhLPJoXv4ykXXYPpixLEtwYYYus0ZLYgUILDS6mT9MZN2ZuNbtwLVuB651O3Ct24Fr3Q5c63bgWrcD17oduNbtYCLrPp8PITRlCQhAhhtGUBQ1SRKQ4ca/+P1+7OY3JPzKJycDtZxnSqVSEQSBL5U6nQ4OjUMQFEn2+/1qtcrzvCgIOD5GgKFrtZooiiAApceomMGwDIxyevqT50vdThdHNUDt9XpjsRjMDYdgWPgCv7O8/P3gwKKEpH+lQ2e4wKH/AIFWcYDURhqCgBTQHSGvsUCrYUiSpKZA6MxA0DMei33+8pVh2V5P8PnI27eWVOsL6fRhsYhVJsC0TF1rnCsALpIkxHGvsq+nAjTp9a7cXZm/Nqeu6NWZGXz/MjA3OwueAXXVtzKZH8fHpsfFMcCZhD1Jzc+/y+WgOVHN0Yl4PL8AtQuSazLKfHQAAAAASUVORK5CYII=;labelBackgroundColor=none;rounded=0;direction=west;" parent="1" vertex="1">
          <mxGeometry x="500" y="282.5" width="62" height="35" as="geometry" />
        </mxCell>
        <mxCell id="tDDXm-gYxZy8OXo06DHz-148" style="edgeStyle=orthogonalEdgeStyle;orthogonalLoop=1;jettySize=auto;html=1;exitX=0.75;exitY=0;exitDx=0;exitDy=0;entryX=0.75;entryY=1;entryDx=0;entryDy=0;strokeWidth=2;" parent="1" source="tDDXm-gYxZy8OXo06DHz-11" target="tDDXm-gYxZy8OXo06DHz-16" edge="1">
          <mxGeometry relative="1" as="geometry" />
        </mxCell>
        <mxCell id="tDDXm-gYxZy8OXo06DHz-151" value="Irrigando" style="ellipse;whiteSpace=wrap;html=1;" parent="1" vertex="1">
          <mxGeometry x="1100" y="-120" width="120" height="80" as="geometry" />
        </mxCell>
        <mxCell id="tDDXm-gYxZy8OXo06DHz-152" value="Em espera" style="ellipse;whiteSpace=wrap;html=1;" parent="1" vertex="1">
          <mxGeometry x="1200" width="120" height="80" as="geometry" />
        </mxCell>
        <mxCell id="tDDXm-gYxZy8OXo06DHz-153" value="Configurando&lt;div&gt;irrigaÃ§Ã£o&lt;/div&gt;" style="ellipse;whiteSpace=wrap;html=1;" parent="1" vertex="1">
          <mxGeometry x="1000" width="120" height="80" as="geometry" />
        </mxCell>
        <mxCell id="uZgcKNraOqiOFHt2JM9J-1" value="" style="group;strokeWidth=2;labelBackgroundColor=none;rounded=0;" parent="1" vertex="1" connectable="0">
          <mxGeometry x="-420" y="220" width="140" height="140" as="geometry" />
        </mxCell>
        <mxCell id="uZgcKNraOqiOFHt2JM9J-2" value="&lt;div&gt;&lt;span style=&quot;font-weight: normal;&quot;&gt;prio:&amp;nbsp;&lt;/span&gt;&lt;/div&gt;&lt;div&gt;&lt;span style=&quot;font-weight: normal;&quot;&gt;&lt;br&gt;&lt;/span&gt;&lt;/div&gt;Alarme RTC" style="rounded=0;whiteSpace=wrap;html=1;fontStyle=1;fontSize=14;verticalAlign=top;strokeWidth=2;labelBackgroundColor=none;" parent="uZgcKNraOqiOFHt2JM9J-1" vertex="1">
          <mxGeometry x="20" y="20" width="120" height="120" as="geometry" />
        </mxCell>
        <mxCell id="uZgcKNraOqiOFHt2JM9J-3" value="" style="shape=image;verticalLabelPosition=bottom;verticalAlign=top;imageAspect=0;aspect=fixed;image=data:image/png,iVBORw0KGgoAAAANSUhEUgAAADAAAAAtCAIAAABnKH+VAAAAAXNSR0IArs4c6QAAAARnQU1BAACxjwv8YQUAAAAJcEhZcwAADsMAAA7DAcdvqGQAAApHSURBVFhHrVh5UJPpHc5FbnKQcIYQxGvVgs6CBwqrHcGTkUWXWiu6eHTXgu5UF2GqM2C9dxjrMK5WrH+oIyp1YK1HHevRWa+pVsEVF0er7gokIRy5ICF3+nz5PhAUYoL7zPiR7/297/s97+9+pXu9Xtqw4Ha7TSZTZ2enw+HAb2IfOo3D5ojF4tDQUKFQSM0LEkET6u7ubmxs/O+DB81NTa2trVqN1mazOZwO7EOn0fkCvkwmk8tkSpVKqVAkTZw4atQoPp9PLQ4AQRB6/Pjxze+//+Hx43v37jU0NGCESacL+EImk0mjQT10PLxej81ug848NBqDTp8ydSo4paamZmZkKBQKch//CIjQnTt3Ll/+59Wr1+7fv49XsSBUJBaxQ0KYDAaW919PJ/4RDxjR7nCYzeYuq4XDZmfOmTN//vzFixdHRUX5Jg6J9xDS6/UnTpw4cuTI06dPuSFsebgcXoKjEzzedxK6Dx6Px2K1trW38fj82ZkZK5bnfZabS80YDP4I1dXVlZeX/+O7czBEZHgEVIKP4AOUOGCAFmxptdk0ulZZWNiGDRsK16+Xy+WUeCCGJHT58uWtW7fW19fLpWESsZg8KyUbFogdvF6oCqbM/jR727Y/T5gwgZL1wyCE4JJVVVU7dux4/dPPsbEKTgj7A6n0gVAVnYZk0a7XZ2Zm7Nv3l8TERErWi0EIVZ85U1BQYOm2xERFsZhMHIsS9AJLiK2HC7igzW7XdbQtWJhVUVERFxdHCXxgUH97cenSpeKSEovFooyJQTz3ZwMKUBVims5kYPRtmgEDe3I5HLlMfvH8hX379kFhlMCHAYQQSmVlZZrmlpjIKOi3v/KgEqfbpdZqBKFCkUSC37AsdEWJgwQ48bk8UWjo0aNHz51D0LzZ5w0h5IyDBw/WPXwY49PNAFN6vS6Xu1mtTkxKwpkqKyuzsrKMZsIVIBym+bzeMKnU43Lv37//2fNn1CCS7bZt2/AHn6+pqdm5c6dIGCrg8/vYkGay+3QDEge+/TYtLQ05d/KUKahWd+/e9bg9RDoYFnAS2O75i//JwmTTpk0L8e1D2eXly5e5ubmNT54oYxR9msECl8vVqtPJIsILCwvXrF4dERlJyWg0u91eW1tT9PXXVqtNyOcjGH15OjjgEx16PargtWvXUlJSMEKYDGn+ypUrPzx6hKKIKb6ZBFxut669fcSoBGi1qKioPxuAw+EsW/a7mtrvZmfMNppM3VYLJQgGUAc8CX5969YtHB4jBKGOjo6zZ8/yuFwuh4sZYISnzWFvbdOlf5J+6tRpKI/U57uAquF5Kz5fae7uQjBTo8EghMWCn1y9ehWdDF4JQs+fP//P3btgSigHZvJ42js7TGbzhq++On3mzKRJk4h1QwDabWpqevbsGYLO6XT2OV/ggNXgtTeuX3/x4gVeGdgRfQU8l8vmQuh2ufRGA+pOwsiRSUlJ7e3tBoOBiPAh8OrVq/WFhfBupFBU9WFEHM4AJTkdTrW6Ba/MTZs2/fXQIVQJPp9HzsCmUokEPltTW4s6/68rV3RtbUajkcViQQrbMRhvkoVEIkmdPh1PMMNKk9H01oRAgPkWqyU5BbE7hY6NkhITEX7iUBEl93Eiot1uh1sgvGEMZB0Mzpw5c+7cuaNHj1apVFKpNDIy0tedEakBVjt9+nTVyZPwTZPBiHpMHiAQQElwklVr1uzatYv+8OHDGampErEEhqTkvUAlRA+IH/ge/APkRGKxyWzq1OvZbPamjRu3bN2K9pmcTAK5/uTJk3+vroYJzCYTmg2sDcSOeoNh9pzMw4cPM5CgoTH0fpSkH0g2ACYgyHFoTPJ6vMgOq1et+uLLL99iA4wbNw6nvHDp4spV+ZIwaZelu8dmC8TP6QyGWq2GTYIwNpSE2IbLoxkt2rw5Pj6eEryDj8Z+lLd8+Yy0NL3RCPUEGHo4M6Ga/Pz8U1VVSEL+TY59cVYQQvOAF4Ro49OnWo0GLJksFlywvyPjZoIifezYsViFgsvmBBJ4PT09uA4sWrSIBRtTY36BUwoFAj6PR+jJaDpbXd1lIVIzUgMS1ZgxYxISEsaPH4/CLBAIEGgoeffv3WtubkabiBgkNxkSXprT5cL9Ca5JRwr59cxZMqmUx6PC3j9IE+CJBIaAgjHaO9rtTidEIIQOcMmSJTk5OdD3o0eP9u7de/HCBSg1JiqarAyDwuPxtmhaDh0+vHbtWgZCVyAUgiAlfB9Ih8CT9HQkw7hY5UhVfHRUFEJM19qKNEFaH5pDu1NaViaTy1+3NKMy+jYYBG4Pmgb3v2/cwG+GSCSaOGmin9l+QJLD0eFb3RYL7s+f5+fDWKQUALni4uIDBw4geVptPXq94V1PhUs6nQ6JWPq6qQmvTDTzKEa3bt0U8viBJIx34Uuh6GydrBAWCiTKJK62qI84N7ZDahg7diyMiNeGJw0d+k744lufQRJKmTp19569SmUs4RBoIrFAGR0DC5CHDhY4icftRnTgq1qtBuWZzQqZljoNzoCcjrI4ffr0eJXq+vXrx48ff9LQgDogFBI5DAtdTtfP6ubikj99s3c3MQIGOM3inByNWi2Thg2PEEBo17cYvgV/xw+UZBRBl8fN5/HH/2pCdHS0Ki5Op9PBV3Ahjo2JYbM5Xo/H3GXmCgS7d3+Tl7eM2AebwAl279lTVlqqUsQiYofNqQ8gR24CcticwWRarVY0Di6vJ1weLhQKWtRqiBTRMSD0U9Prtb//4m9HKsm1RDaDo2UtXDgyIQE9EDn6geg7EtyLqL5er4DHGxEfPyJOxedy4UDhMjk6cXgeVIiLQ0ZGJjkfoNIr8tvqNWuMXWZU0OG59lAgyeEfQY7BCGEyUbFBK1IeDrUxWMy8vLylv/mMnAxQhKCkFStWzJs3T6trJaLjF+XUB5AjVYfdcXKDyTR/wcLizZt9YxTeFCClUllSUhKrVOra2z7Yi/wBp7U7HGqtduasWStXrqRGe/GGEDBjxowtW7bAB9H0UEO/NMAGumlp1SIbr1tXkLVwASXoxQBCCDFQLi0tRTgYjAZE7y9rO+xl7enRtGqTk1OKNpf8dukg/3NFxWd/2Gw2pK/y8nI02lGRkVw2+8MNCCpur9di6ca1MC39kz9u3JjzaTYlG4hBCAFIHrdv396+ffvNmzeloSKUJERvX0c7DCBJdhr0HC5nSe7SvpQzKAYnRAI9ZUVFBS4e9h4bCieaIQQjYUSClz9mhJl9uRFGh//CadDLoqKt+0PB+sICcs5Q8EcIgPnq6+srKysvnD+PtIFix+fykNOQZwFMeMvFsBfJg7gUONAmuTw0b/LHHzNDQnAVpCb5xXsIkQCVxsbG6urq2pqajs5ONFwwH5nomExGf2Uhh7ncLiaThRKGe1JmZmZ2dnZ6evr7m8ZeBESIBA6NeoRrU11d3YMHDxp//NFitcKtBmiJTsflJCdncfLk5Mkpk9H9QamUKDAEQagP0A28HtBoNLApaTsSaKgjIiLQGpMXyKBBo/0fmrxZCfRBip8AAAAASUVORK5CYII=;strokeWidth=2;labelBackgroundColor=none;rounded=0;" parent="uZgcKNraOqiOFHt2JM9J-1" vertex="1">
          <mxGeometry width="48" height="45" as="geometry" />
        </mxCell>
        <mxCell id="uZgcKNraOqiOFHt2JM9J-5" style="edgeStyle=orthogonalEdgeStyle;rounded=0;orthogonalLoop=1;jettySize=auto;html=1;exitX=1;exitY=0.5;exitDx=0;exitDy=0;entryX=0;entryY=0.5;entryDx=0;entryDy=0;strokeWidth=2;jumpStyle=arc;jumpSize=12;" parent="1" source="uZgcKNraOqiOFHt2JM9J-2" target="uZgcKNraOqiOFHt2JM9J-6" edge="1">
          <mxGeometry relative="1" as="geometry" />
        </mxCell>
        <mxCell id="uZgcKNraOqiOFHt2JM9J-6" value="" style="shape=image;verticalLabelPosition=bottom;verticalAlign=top;imageAspect=0;aspect=fixed;image=data:image/png,iVBORw0KGgoAAAANSUhEUgAAAC4AAAAxCAIAAAAqWwwuAAAAAXNSR0IArs4c6QAAAARnQU1BAACxjwv8YQUAAAAJcEhZcwAADsMAAA7DAcdvqGQAAAlFSURBVFhHvVh7UFNXHoaEJBDkkfAIiASGx7orIAVEEJQuVMAHKELHojj7R3d0/5KBnensbIuzLp1CsR1dXVeowmLFcQXFuhTqulN8MHSUdwHlGUIRBBISFAiPvPdL7m2WRwg3Wv3IDPee8zvnfOf3Or9zLbVarcWrQqFQ0Ol0kVhsy2avW7dOo9EwGAyyz3yYTUUkEj158qS2tranp2d+bo5Gp72YfGFtbW3DZms1Gg6HsyMmJjIy0tfX187OjhxDDVSpqFSqhw8f3r59u6mpSalUYmG2DRsLQytMJkutRr96QT4vFovpdNqkROri4pK8b19ycrK/vz85xVqgRKWmpqakpKSjo8PNzT0wKMjXx9f/V/5cLhe6oOlA12o1mAcUZ2dnx8ZGu552DQwIfhr6SSFf2LNnz4cf/t7Pz4+ca3WsQWVoaOjM6dNVVVXevj4x298NDQvj8/lwCKyqVqvhHKScHpaWluBlZWUFVU3PTAv6BT/8UN/a3AyiWdnZ6enpaCdFjcEUlbq6ury8/PHx8cRdu3bGx/NceVgbrkpFkViVwWCqVMq+vr5vblU2Nzdti4z829mzMBwpsQLGqaCxtLQ0Ly9v469/88EH6QEBAZiaIonF0BNiTE9P379XW1r6Tz9f388LCsLCwsjupTBCBR5YWFiYn58fFRV99NgfXF1d0bLMFmaBiPC2traLhRcsaZb/uHDBKBsjVG7cuJGdlZW8b/+hwxkISLiFucpYCfgQk8ns7e398otTiL3i4uKVjrycCiL2SMaRsPAtH330JwQsjAJnJPteA1gFbFgsFsIw9+RfgjYHXb58eVnioZ88eZJ81Kev48ePc7nO2dl/dHBwgD4QE6DymlrRxTuNBhMD7uvXOzk5ISTl8vmYmJjF+/z/MgjO3Nzc4kuX8gu+CAwMUioVGD83N9fX2yuVSBCmhJh50Gox0InL9fbxsbe3BxU4Mqb9qqjoznfVxSUlCQkJpORiKq2trSn79x/OOJKa9j7aQRfe+v1/714pLaXR6a9uJiyg1YaEhh3Pzob/4hlOI5FIPs39K8fRoezqVVAkBMm9YtWysrINfH5s3Ht0uhWSEt3KampqqrWlZWFhQSGXyxcWXvEnl8tkssFB4cjwMPSBtWB3Ho93IDVtQCisqKggCAAkladPn35z69auxN1I5xqNmmjU70cLlQLIoXjGvHBkisD2fh5Lx5wzMplhWrDBkenpya+srHz58iXRbkX0lZeX8728tm7dCuKYgugDDHZRq9Q4/Hhubjj4iBZT0A2yhDrHx8bgH4YmA7AEwgJneEX59fr6+qSkJDTqqIyOjpZduZJ+KIOjU4nxVDYzM5Ocsu/Tzz6TzZKbMwFLC91h1N7enp2ZOSebJVuXAkS3bNlSfv1fVVX/3rt3L/asM1BnZyfL2jpo82bCrQjRZdBoNba2tnCx9QjHtX7u7u7wBqRpLLBaGoBieDy3gMCgkZHnKC3QoqOCEgTRi/F4Xo0KYKLLKFZTMAHMBjcKDw+XSKSNjQ1oocET79+/7+HhYcO2MT34Fwec19/Pf1IqffzoMV5pk5OTz5494zo5MRlMc/f9mkBSdXB05LnxiCCiwU4atdrNzQ3h+pa1guVwDDk6ciRSCdI6DZWRQql0dHSE5UiRtwUYgW1rCzbIpahEkdN1SZ2mDyUTwDCojXyhBhsbG/JpdWBa6AaRDw5UZ0ecP3/+vKHhsUpJIcUBlpYoJTVqjS6eqXkgVSpIKi3NLTl//mRxLjYBMJhfmEeMYMeGk8Q0aETUQEHE+2qAHaenprq7ugR9/VR+/b29o8MjmByciBmIhZYBvQDJARdMVBA4q2Azw7CVgDTY4BbIsmZR+1kzmExiLM4vlP4o4YhXA7AcqiKAYcXA5DTUVPDHyReTiHJSxBgwDKaBnyPqqAPyANfZeWfCLi8+f5liMOfC/PzsrAxZDXFk5enpCUYT4glQgV2NqhHAvOERESkHUufn58kmCtDiz8LCzs4exz68bdlusRySm1gkfic4GOqwQshFb9/+bHgIe8AYUmoF4IBu7u5xO+Nx7SObKAMpFFZYqXWsPjIyzGKyNgUE4FWXTmJjY1uamialk1CPXsYIdAZSKmWymVkZygTzflDkSh6YEAni0aNHGgsNcS3SUYmIiEDdJxQKMQASesk3DlgHSbanu9tjgwfxtUFHxcfHJzo6Gic1HMKEYn5ZoNjGXQKGS9qbhMBEi44KbJaamtrY8FggEOD1LSgGKoHz3bnzHYNBj4+PJxuJf/HxO339/O7Vfo86D3JE45sDckx3d1dPT09CQqKXlxfRSK7K5TodPXq0ru4hiktQeaOKgQ/g3vBtVZUt2yYjI4NsNVABdu/evW3bthsV5VKpFBeGN8RFHzjM+rq6xoaG1LQ0b29vsmMxFZQsmZmZA4L+69evIR+DO9KdoZjCw8qANBfgAQ/F9azsytchoSHHjh0jO/RY4hZRUVE5OTl3amru3v0PeLBYcHOm7homl4MZ0uVquZgKwAOzTUyIiy9dxP3hxIkTpr4kQBqJD3XJ15dLXVxdN20KQItQMIBc9E5ISPKBA3b6KzgpbQ4IHrgq//3c2Y72H/Pz8+Pi4si+n2HkgwXOhU8+/riy8lZmVlZc3Hui8XGRSOSxYQPqX4rFyjIgDhAyqFzPnz/X3tZ2+syZtLQ0sm8RjFABwOZETs7NmzcPHT4C50IljPv7q/GARnFp7u/ru/hVIXIaeCCHkX1LscRABsC5duzYoVKrYal+QT9ua6glsDNYh7q7IHNiCPFN8Py5cwqF/POCgpSUFLJ7BYxrxYCyq1e/PHUKKv7tu7GxcbG4+2N24pg16jTwCZgDJKCMqempzo7Omupvf2xrxS0wLz9/48aNpJwxrEEFGBwcLCoqqq6uZtuuCwwIDA4Oxu3a3t6BbctG7kH+JsRAAmWbQq5AsTE2NtbU2NDT29Pf18/hOP5OD+yBkFwNa1Mh0NzcfO3aNZzpMzMzuKIjOztxnby8vXBH15dHFkqValAoFIlFUskEasLxsXE+3zMt7f2DBw86Ozvr51gDVKkQwFXywYMH92prB4RCOAGbzeZwORb6UhrqmRCLca1ycXYOCQ1NSEzcHBSEVESOpADzqBggk8lQbQwPDyNV4BVcABQbus9BPB4hYx4sLP4HJ4eB01PlMdUAAAAASUVORK5CYII=;strokeWidth=2;labelBackgroundColor=none;rounded=0;" parent="1" vertex="1">
          <mxGeometry x="20" y="280.5" width="36.61" height="39" as="geometry" />
        </mxCell>
        <mxCell id="uZgcKNraOqiOFHt2JM9J-10" style="edgeStyle=orthogonalEdgeStyle;rounded=1;orthogonalLoop=1;jettySize=auto;html=1;exitX=1;exitY=0.5;exitDx=0;exitDy=0;entryX=0;entryY=0.5;entryDx=0;entryDy=0;jumpStyle=arc;jumpSize=12;strokeWidth=2;curved=0;" parent="1" source="tDDXm-gYxZy8OXo06DHz-30" target="tDDXm-gYxZy8OXo06DHz-21" edge="1">
          <mxGeometry relative="1" as="geometry">
            <Array as="points">
              <mxPoint x="-80" y="-20" />
            </Array>
          </mxGeometry>
        </mxCell>
        <mxCell id="uZgcKNraOqiOFHt2JM9J-13" value="" style="group" parent="1" vertex="1" connectable="0">
          <mxGeometry x="345" y="85" width="88.67000000000002" height="90" as="geometry" />
        </mxCell>
        <mxCell id="uZgcKNraOqiOFHt2JM9J-11" value="&lt;b style=&quot;font-size: 14px;&quot;&gt;FLASH&lt;/b&gt;" style="shape=datastore;whiteSpace=wrap;html=1;rounded=1;strokeWidth=2;fontSize=14;" parent="uZgcKNraOqiOFHt2JM9J-13" vertex="1">
          <mxGeometry y="20" width="70" height="70" as="geometry" />
        </mxCell>
        <mxCell id="uZgcKNraOqiOFHt2JM9J-12" value="" style="shape=image;verticalLabelPosition=bottom;verticalAlign=top;imageAspect=0;aspect=fixed;image=data:image/png,iVBORw0KGgoAAAANSUhEUgAAADoAAAAtCAIAAABwCu9cAAAAAXNSR0IArs4c6QAAAARnQU1BAACxjwv8YQUAAAAJcEhZcwAADsMAAA7DAcdvqGQAAAqnSURBVFhH1VlpUFRXFga6m61BAVm72URAAjhsQUwiO4iZUUEU45RVmkEcBRW30VS5lE5ljBPHmh8WMQiaigiRRBjjEgQtUfZNkEVl3wmboLQsTW/0fI/7BCSG7gasqfnKst47995zv3fuuWdplKVSqdL/D2ZJt6+vr6mp6ddfO5WVaQmgqalpambG5XAWLlxIi+YbitEtLy+/fft2cXHxy5cvhUKhgYGhuro60aCsrCwQCF709miy2QYGBn5+fkFBQVZWVmThfEEuuiKRKDk5+dq1a91dXQwWC2wsLCy5HK4Jx4TFZEmVxukqKfP5/JaW5vaOjvb2tuGhYSXpmKenZ/j27cuWLSN65g7ZdO+mpX199mxLc4uDg4OLmxv25nJNdXR0GEymSCiculxlHCDNe81ra217XFJc/uQJjzcQtHp1ZGSktbU1PW8OmIlub29vTExMYkKCmaVl8LqQD93ddXR1mQymWCwWCAVwWjiARDKmpAQdb5FmMBhMFkssErW2tj7MzMzOyWIxGUeOfLFhwwaM0vNmhd+lW1ZWdvr06fr6htWrV8M8BoZGErFYIpFkZz1Ku31bRVnFYrHlSi9vGxsbDU22WCwieqbxZrFYWNLQ0HAtKSkvP3f79u0nT57U0NCgZygOxqlTp+jHKSgsLAwPD1dWUQkPjwgMXMVmswWjozBZZ2dHyo8/lhQX9/e96OjoeFpVhRMfGHi1YMECbW1tGJVePw5QB1c8GBkZOTk7w96pqddxYl5eXkwmk8xRFO+gW1RUBK56eosOHDxob28/NibF6UOurq5RWVF+4/p13H1VNTWwec3j9fT0NDU2lhQW1dXVwpsX6uioqqrCSQCiDdOwHB/s6OiopaWVlJSEJbNmPJ0uvO3Pmzfr6ukdPvKFubkFdpJK4Z0U1NRUG+rrHz54oKaujlcQAj8AEY038Kqzs/NpVWVWZibv9Wsw1tLWxhD8gfCGmfG6xNpGS4udlJTY19fv7+8/8Uny4y26IyMjx44da25pAVcrqyWIX1N9ESSam5rycrLxQIvGAU6ggoeR4WHewEBLc/Pj4qLqmmo+f0RbSxvfRi4fVDEYKrZLl0rEkkvxcRwu18nJiWiQH2/RTUhIiLt4MXL3Hjc397ExyVSuAKGbm501jS4BZWx4N5OJgDA8MtLb3f382bPcnOy2tnY1NTVcL1w7MgcxG0eRkZ4Ol0AIp9fLh0m6jY2NUZGRXt4+IetDsSvoEvkEZqY7AVxQcudwOMPDwx3tbaUlJeUV5aOjozo6unBieLCxiUlubs7AwEBgYKBCLjEZBZG02FrawSEhSP0SCXW35gJiSFgUdw2kG2prkxMTf0q+Njg4KBKLbGxtPT29b928WVBQQC+QDzRdnM6V77/39PRCxiJxYL5AjA3Auk9KS8tKS+FjTAbD189vkb5BamrqNJebGTTde/fu4YK7uDjjoBVaLyegE1ZAKCTOCj+xtLR0cnLOy8tFLCJz5AFFF1EG5/KJp9diK6sxhNl5pQuFMASUcs3MPH197B0cIMGO8JPlHsvF4jFYip4qByi6yE9VVVWLFy9G/IcuMjB34LOFAgEUmnA4Xj4+e6L3hYZumDDHuIEXo/7Mzsoi8+UBRbe5uRk6TE1NWaz58QRCFCbkmJp5+/pF7Y0GV8dly6Z6GkZRxZuZmaHSR7wnQpmg6HZ1dcG0hgaG0DWhbnaA8VCkw01x9N5+fjt3794dHQ2iGBpPkJPK8YyQpqen193Tg0KClsoCRRffp6+vr66hIZ2DJ2At7j6qdAtLS9+AgB2RUbv37iN5axpRAsowUqmBoaEWm43ehJbKAkW3uroa2lAS/FapPMCqUT5fIh2ztrFdExyyY1dk5J69rq6uGJmWxqdBJBDhVJGNcby0SBYouvm5uciemppsRekSoqiCrW2XBq/fsGvPnr+ERzi7uCBNwSVka1OmnAfT5K/ZqXmubh/CDKhIFMqHuCvYzNrWNjQsDEQ/Dw+3s7MTiYRwCYU+G3oA+kUWKLrLPTzU1dRgD/npgihikE9AQFT0vq3bPv/A3h4fLJdFpwAFO7Lpy/5+1O+0SBYouhoa6rW1NcjsyJdEKhOwx0JdXT8/f7QJIAqXUIgogbKKUnt7O6IYYigtkgWKroWFRVtra3d3jwK+QBWvDFx5RY9+AvDXkaEhNE5oqtE70VJZoOiipUan1dXViWwpvz+A5eyIEuBrebzXqOURelFV0lJZoOiamJj8wcmpvr5uaHgYWsjA+wYyHLjCQAGBgbRIDlB0QXHjxo0VFRVtLS0T3dV7BXYB0aKiQjVV1aCgIFoqByi6gK+vL39kpKSkWCF/mDXQDjU1NZaVlXp5e3O5XEhiY2PXrl177tw5dKZkDkFlZeXWrVsxhP4ZrzRdY2PjiIiItF9+QQuEjuu9MoZpEUwePXo4NDgYFhZGckRxcfGdO3cuxsai2SbTCCC8evUq/h8aGsIrTReI2LHD0Mjw1q2biCzv1YNhWnSd9+/fX7tunYuLCy1UVUXThWycn59PJADCzt20NDywxn8DwMMkXS6HExUVhc4xO+sRrjwZnnfghvX39yclJWppah44cIB0/MCoQODu7o68mJ+Xh5aTCEEdTOAJixYtQtCE5C1Omz77DK3lt99+A49Bh/VOl5hL8AI53I2UlJTammp04BwOhx5A3hGLURWGbdqE8vDZs2dE+PONG65ubijrwITs+xZdpOKjR4+iZI6Pu9jW1gbtv2U8KVGQN7QhF/584z8/Jf8Ax/vTmjX0wBsIRkcDAgLgirk5OXh98eJFbm6uq4sLTCsUicic6SeOexoTE8NgqPz73L+aqGvHmPAKHIe+gYHlkiXQKxAKUariH6xCRmcAvhCdGewKrpcvxe/ctevQoUO/dTbcPxsbGyTkksePQRonbG5h4bFiBdWDvCnEp68BUKqeP39eLBL+7dBBhMYx6Rg2g3aoMzc3D1gVpKevzzE1dffwMDI2Ji41A1CHYD8ej/fdd5cvX7701507T5w4gfKIHp4ClJLYKGT9eti1rq4uIyMDrowCAfvSM95JFwDjKwkJH3/y8ZmvTl+9cgXrIQRjdByffvrHf5z555dfnQkIXEUSMVkyDbAoTgbbSyTiiorys1+fuZd+9/Dhw8ePH0dkoCdNAzo8odDf3x+mjY+Pz8zMdHR0HP+NZrK8fDddwNbW9sKFC/v378cJfvn3kwgoCNQgp6WthTPCLYEvTuMKioQlzAmiqCdbWpp/SEo8sC8aJdTFuDj4wDvtCsCEBIaGhnAJbA3lKz76iAxNlKYz/ciKWgkbeHp6fhMTEx8Xm5n5YOXKlXYf2JmYcFGUgBD2nuqCMAN8QyCgfj9tam4qKip6WlnJH+XDqFu3bSPZ650AFSpUvbFiaGhoYWFhYGAgYitesRccmoQ82X9KAfBxBQUFqSkp6RkZYLnUDoxNjAyNdfX0NDU1UKpjDuw6ODj46tWrjo4O1C5trS3wnC1btmzevFnmn6ug4fnz5/ABBwcHkEPcRSwDRTguRmtqapA+PDw84Bhy0Z0AUjRslp6ejnoI30B+TKDHqO6AqcpS1WSzfXx8goODnZ2d5S9k5YRidCcAS/T29iI/8fl84g/Qg6IZZzrDoc8ds6T7v4GS0n8B3dGfqNzYSssAAAAASUVORK5CYII=;rounded=1;" parent="uZgcKNraOqiOFHt2JM9J-13" vertex="1">
          <mxGeometry x="50" width="38.67" height="30" as="geometry" />
        </mxCell>
        <mxCell id="uZgcKNraOqiOFHt2JM9J-15" style="edgeStyle=orthogonalEdgeStyle;rounded=1;orthogonalLoop=1;jettySize=auto;html=1;exitX=1;exitY=0.5;exitDx=0;exitDy=0;strokeWidth=2;" parent="1" source="uZgcKNraOqiOFHt2JM9J-11" target="tDDXm-gYxZy8OXo06DHz-16" edge="1">
          <mxGeometry relative="1" as="geometry" />
        </mxCell>
        <mxCell id="uZgcKNraOqiOFHt2JM9J-28" value="" style="shape=image;verticalLabelPosition=bottom;verticalAlign=top;imageAspect=0;aspect=fixed;image=data:image/png,iVBORw0KGgoAAAANSUhEUgAAAC4AAAAxCAIAAAAqWwwuAAAAAXNSR0IArs4c6QAAAARnQU1BAACxjwv8YQUAAAAJcEhZcwAADsMAAA7DAcdvqGQAAAlFSURBVFhHvVh7UFNXHoaEJBDkkfAIiASGx7orIAVEEJQuVMAHKELHojj7R3d0/5KBnensbIuzLp1CsR1dXVeowmLFcQXFuhTqulN8MHSUdwHlGUIRBBISFAiPvPdL7m2WRwg3Wv3IDPee8zvnfOf3Or9zLbVarcWrQqFQ0Ol0kVhsy2avW7dOo9EwGAyyz3yYTUUkEj158qS2tranp2d+bo5Gp72YfGFtbW3DZms1Gg6HsyMmJjIy0tfX187OjhxDDVSpqFSqhw8f3r59u6mpSalUYmG2DRsLQytMJkutRr96QT4vFovpdNqkROri4pK8b19ycrK/vz85xVqgRKWmpqakpKSjo8PNzT0wKMjXx9f/V/5cLhe6oOlA12o1mAcUZ2dnx8ZGu552DQwIfhr6SSFf2LNnz4cf/t7Pz4+ca3WsQWVoaOjM6dNVVVXevj4x298NDQvj8/lwCKyqVqvhHKScHpaWluBlZWUFVU3PTAv6BT/8UN/a3AyiWdnZ6enpaCdFjcEUlbq6ury8/PHx8cRdu3bGx/NceVgbrkpFkViVwWCqVMq+vr5vblU2Nzdti4z829mzMBwpsQLGqaCxtLQ0Ly9v469/88EH6QEBAZiaIonF0BNiTE9P379XW1r6Tz9f388LCsLCwsjupTBCBR5YWFiYn58fFRV99NgfXF1d0bLMFmaBiPC2traLhRcsaZb/uHDBKBsjVG7cuJGdlZW8b/+hwxkISLiFucpYCfgQk8ns7e398otTiL3i4uKVjrycCiL2SMaRsPAtH330JwQsjAJnJPteA1gFbFgsFsIw9+RfgjYHXb58eVnioZ88eZJ81Kev48ePc7nO2dl/dHBwgD4QE6DymlrRxTuNBhMD7uvXOzk5ISTl8vmYmJjF+/z/MgjO3Nzc4kuX8gu+CAwMUioVGD83N9fX2yuVSBCmhJh50Gox0InL9fbxsbe3BxU4Mqb9qqjoznfVxSUlCQkJpORiKq2trSn79x/OOJKa9j7aQRfe+v1/714pLaXR6a9uJiyg1YaEhh3Pzob/4hlOI5FIPs39K8fRoezqVVAkBMm9YtWysrINfH5s3Ht0uhWSEt3KampqqrWlZWFhQSGXyxcWXvEnl8tkssFB4cjwMPSBtWB3Ho93IDVtQCisqKggCAAkladPn35z69auxN1I5xqNmmjU70cLlQLIoXjGvHBkisD2fh5Lx5wzMplhWrDBkenpya+srHz58iXRbkX0lZeX8728tm7dCuKYgugDDHZRq9Q4/Hhubjj4iBZT0A2yhDrHx8bgH4YmA7AEwgJneEX59fr6+qSkJDTqqIyOjpZduZJ+KIOjU4nxVDYzM5Ocsu/Tzz6TzZKbMwFLC91h1N7enp2ZOSebJVuXAkS3bNlSfv1fVVX/3rt3L/asM1BnZyfL2jpo82bCrQjRZdBoNba2tnCx9QjHtX7u7u7wBqRpLLBaGoBieDy3gMCgkZHnKC3QoqOCEgTRi/F4Xo0KYKLLKFZTMAHMBjcKDw+XSKSNjQ1oocET79+/7+HhYcO2MT34Fwec19/Pf1IqffzoMV5pk5OTz5494zo5MRlMc/f9mkBSdXB05LnxiCCiwU4atdrNzQ3h+pa1guVwDDk6ciRSCdI6DZWRQql0dHSE5UiRtwUYgW1rCzbIpahEkdN1SZ2mDyUTwDCojXyhBhsbG/JpdWBa6AaRDw5UZ0ecP3/+vKHhsUpJIcUBlpYoJTVqjS6eqXkgVSpIKi3NLTl//mRxLjYBMJhfmEeMYMeGk8Q0aETUQEHE+2qAHaenprq7ugR9/VR+/b29o8MjmByciBmIhZYBvQDJARdMVBA4q2Azw7CVgDTY4BbIsmZR+1kzmExiLM4vlP4o4YhXA7AcqiKAYcXA5DTUVPDHyReTiHJSxBgwDKaBnyPqqAPyANfZeWfCLi8+f5liMOfC/PzsrAxZDXFk5enpCUYT4glQgV2NqhHAvOERESkHUufn58kmCtDiz8LCzs4exz68bdlusRySm1gkfic4GOqwQshFb9/+bHgIe8AYUmoF4IBu7u5xO+Nx7SObKAMpFFZYqXWsPjIyzGKyNgUE4FWXTmJjY1uamialk1CPXsYIdAZSKmWymVkZygTzflDkSh6YEAni0aNHGgsNcS3SUYmIiEDdJxQKMQASesk3DlgHSbanu9tjgwfxtUFHxcfHJzo6Gic1HMKEYn5ZoNjGXQKGS9qbhMBEi44KbJaamtrY8FggEOD1LSgGKoHz3bnzHYNBj4+PJxuJf/HxO339/O7Vfo86D3JE45sDckx3d1dPT09CQqKXlxfRSK7K5TodPXq0ru4hiktQeaOKgQ/g3vBtVZUt2yYjI4NsNVABdu/evW3bthsV5VKpFBeGN8RFHzjM+rq6xoaG1LQ0b29vsmMxFZQsmZmZA4L+69evIR+DO9KdoZjCw8qANBfgAQ/F9azsytchoSHHjh0jO/RY4hZRUVE5OTl3amru3v0PeLBYcHOm7homl4MZ0uVquZgKwAOzTUyIiy9dxP3hxIkTpr4kQBqJD3XJ15dLXVxdN20KQItQMIBc9E5ISPKBA3b6KzgpbQ4IHrgq//3c2Y72H/Pz8+Pi4si+n2HkgwXOhU8+/riy8lZmVlZc3Hui8XGRSOSxYQPqX4rFyjIgDhAyqFzPnz/X3tZ2+syZtLQ0sm8RjFABwOZETs7NmzcPHT4C50IljPv7q/GARnFp7u/ru/hVIXIaeCCHkX1LscRABsC5duzYoVKrYal+QT9ua6glsDNYh7q7IHNiCPFN8Py5cwqF/POCgpSUFLJ7BYxrxYCyq1e/PHUKKv7tu7GxcbG4+2N24pg16jTwCZgDJKCMqempzo7Omupvf2xrxS0wLz9/48aNpJwxrEEFGBwcLCoqqq6uZtuuCwwIDA4Oxu3a3t6BbctG7kH+JsRAAmWbQq5AsTE2NtbU2NDT29Pf18/hOP5OD+yBkFwNa1Mh0NzcfO3aNZzpMzMzuKIjOztxnby8vXBH15dHFkqValAoFIlFUskEasLxsXE+3zMt7f2DBw86Ozvr51gDVKkQwFXywYMH92prB4RCOAGbzeZwORb6UhrqmRCLca1ycXYOCQ1NSEzcHBSEVESOpADzqBggk8lQbQwPDyNV4BVcABQbus9BPB4hYx4sLP4HJ4eB01PlMdUAAAAASUVORK5CYII=;strokeWidth=2;labelBackgroundColor=none;rounded=0;" parent="1" vertex="1">
          <mxGeometry x="542" y="150" width="36.61" height="39" as="geometry" />
        </mxCell>
        <mxCell id="uZgcKNraOqiOFHt2JM9J-29" style="edgeStyle=orthogonalEdgeStyle;orthogonalLoop=1;jettySize=auto;html=1;exitX=1;exitY=0.25;exitDx=0;exitDy=0;entryX=0;entryY=0.75;entryDx=0;entryDy=0;strokeWidth=2;" parent="1" source="tDDXm-gYxZy8OXo06DHz-18" target="tDDXm-gYxZy8OXo06DHz-21" edge="1">
          <mxGeometry relative="1" as="geometry">
            <Array as="points">
              <mxPoint x="-40" y="430" />
              <mxPoint x="-40" y="10" />
            </Array>
          </mxGeometry>
        </mxCell>
      </root>
    </mxGraphModel>
  </diagram>
  <diagram name="V2" id="iq4BOWG-C81yeDMDh9CU">
    <mxGraphModel dx="2234" dy="1236" grid="1" gridSize="10" guides="1" tooltips="1" connect="1" arrows="1" fold="1" page="0" pageScale="1" pageWidth="827" pageHeight="1169" math="0" shadow="0">
      <root>
        <mxCell id="-yruJXw2zJWxo76HJyfp-0" />
        <mxCell id="-yruJXw2zJWxo76HJyfp-1" parent="-yruJXw2zJWxo76HJyfp-0" />
        <mxCell id="-yruJXw2zJWxo76HJyfp-2" style="edgeStyle=orthogonalEdgeStyle;orthogonalLoop=1;jettySize=auto;html=1;exitX=0.5;exitY=0;exitDx=0;exitDy=0;entryX=1;entryY=0.5;entryDx=0;entryDy=0;strokeWidth=2;jumpStyle=arc;jumpSize=12;" parent="-yruJXw2zJWxo76HJyfp-1" source="-yruJXw2zJWxo76HJyfp-31" target="-yruJXw2zJWxo76HJyfp-65" edge="1">
          <mxGeometry relative="1" as="geometry">
            <mxPoint x="-79" y="-50.00000000000023" as="sourcePoint" />
          </mxGeometry>
        </mxCell>
        <mxCell id="-yruJXw2zJWxo76HJyfp-4" style="edgeStyle=orthogonalEdgeStyle;rounded=0;orthogonalLoop=1;jettySize=auto;html=1;exitX=1;exitY=0.5;exitDx=0;exitDy=0;entryX=0;entryY=0.5;entryDx=0;entryDy=0;strokeWidth=2;labelBackgroundColor=none;fontColor=default;" parent="-yruJXw2zJWxo76HJyfp-1" source="-yruJXw2zJWxo76HJyfp-45" target="-yruJXw2zJWxo76HJyfp-31" edge="1">
          <mxGeometry relative="1" as="geometry" />
        </mxCell>
        <mxCell id="-yruJXw2zJWxo76HJyfp-5" style="edgeStyle=orthogonalEdgeStyle;rounded=1;orthogonalLoop=1;jettySize=auto;html=1;exitX=1;exitY=0.5;exitDx=0;exitDy=0;entryX=0;entryY=0.5;entryDx=0;entryDy=0;strokeWidth=2;" parent="-yruJXw2zJWxo76HJyfp-1" source="-yruJXw2zJWxo76HJyfp-6" target="-yruJXw2zJWxo76HJyfp-92" edge="1">
          <mxGeometry relative="1" as="geometry" />
        </mxCell>
        <mxCell id="-yruJXw2zJWxo76HJyfp-6" value="&lt;div&gt;&lt;span style=&quot;font-weight: normal;&quot;&gt;prio: Normal&lt;/span&gt;&lt;/div&gt;&lt;div&gt;&lt;span style=&quot;font-weight: normal;&quot;&gt;&lt;br&gt;&lt;/span&gt;&lt;/div&gt;Atualizar log" style="rounded=0;whiteSpace=wrap;html=1;fontStyle=1;fontSize=14;verticalAlign=top;strokeWidth=2;labelBackgroundColor=none;" parent="-yruJXw2zJWxo76HJyfp-1" vertex="1">
          <mxGeometry x="40" y="80" width="120" height="120" as="geometry" />
        </mxCell>
        <mxCell id="-yruJXw2zJWxo76HJyfp-7" style="edgeStyle=orthogonalEdgeStyle;orthogonalLoop=1;jettySize=auto;html=1;exitX=0.5;exitY=0;exitDx=0;exitDy=0;entryX=0;entryY=0.5;entryDx=0;entryDy=0;strokeWidth=2;" parent="-yruJXw2zJWxo76HJyfp-1" source="-yruJXw2zJWxo76HJyfp-9" target="-yruJXw2zJWxo76HJyfp-78" edge="1">
          <mxGeometry relative="1" as="geometry" />
        </mxCell>
        <mxCell id="-yruJXw2zJWxo76HJyfp-8" style="edgeStyle=orthogonalEdgeStyle;orthogonalLoop=1;jettySize=auto;html=1;exitX=0.5;exitY=1;exitDx=0;exitDy=0;entryX=0;entryY=0.5;entryDx=0;entryDy=0;strokeWidth=2;" parent="-yruJXw2zJWxo76HJyfp-1" source="-yruJXw2zJWxo76HJyfp-9" target="-yruJXw2zJWxo76HJyfp-80" edge="1">
          <mxGeometry relative="1" as="geometry" />
        </mxCell>
        <mxCell id="-yruJXw2zJWxo76HJyfp-9" value="&lt;div&gt;&lt;span style=&quot;font-weight: normal;&quot;&gt;prio:&amp;nbsp;&lt;/span&gt;&lt;/div&gt;&lt;div&gt;&lt;span style=&quot;font-weight: normal;&quot;&gt;&lt;br&gt;&lt;/span&gt;&lt;/div&gt;Ler FLASH" style="rounded=0;whiteSpace=wrap;html=1;fontStyle=1;fontSize=14;verticalAlign=top;strokeWidth=2;labelBackgroundColor=none;" parent="-yruJXw2zJWxo76HJyfp-1" vertex="1">
          <mxGeometry x="560" y="80" width="120" height="120" as="geometry" />
        </mxCell>
        <mxCell id="-yruJXw2zJWxo76HJyfp-10" value="&lt;div&gt;&lt;span style=&quot;font-weight: normal;&quot;&gt;prio: Normal&lt;/span&gt;&lt;/div&gt;&lt;div&gt;&lt;span style=&quot;font-weight: normal;&quot;&gt;&lt;br&gt;&lt;/span&gt;&lt;/div&gt;UART Tx" style="rounded=0;whiteSpace=wrap;html=1;fontStyle=1;fontSize=14;verticalAlign=top;strokeWidth=2;labelBackgroundColor=none;" parent="-yruJXw2zJWxo76HJyfp-1" vertex="1">
          <mxGeometry x="320" y="-80" width="120" height="120" as="geometry" />
        </mxCell>
        <mxCell id="-yruJXw2zJWxo76HJyfp-11" value="" style="group;strokeWidth=2;labelBackgroundColor=none;rounded=0;" parent="-yruJXw2zJWxo76HJyfp-1" vertex="1" connectable="0">
          <mxGeometry x="-420" y="380" width="140" height="140" as="geometry" />
        </mxCell>
        <mxCell id="-yruJXw2zJWxo76HJyfp-12" value="&lt;div&gt;&lt;span style=&quot;font-weight: normal;&quot;&gt;prio:10&amp;nbsp;&lt;/span&gt;&lt;/div&gt;&lt;div&gt;&lt;span style=&quot;font-weight: normal;&quot;&gt;&lt;br&gt;&lt;/span&gt;&lt;/div&gt;Ler botÃµes" style="rounded=0;whiteSpace=wrap;html=1;fontStyle=1;fontSize=14;verticalAlign=top;strokeWidth=2;labelBackgroundColor=none;" parent="-yruJXw2zJWxo76HJyfp-11" vertex="1">
          <mxGeometry x="20" y="20" width="120" height="120" as="geometry" />
        </mxCell>
        <mxCell id="-yruJXw2zJWxo76HJyfp-13" value="" style="shape=image;verticalLabelPosition=bottom;verticalAlign=top;imageAspect=0;aspect=fixed;image=data:image/png,iVBORw0KGgoAAAANSUhEUgAAADAAAAAtCAIAAABnKH+VAAAAAXNSR0IArs4c6QAAAARnQU1BAACxjwv8YQUAAAAJcEhZcwAADsMAAA7DAcdvqGQAAApHSURBVFhHrVh5UJPpHc5FbnKQcIYQxGvVgs6CBwqrHcGTkUWXWiu6eHTXgu5UF2GqM2C9dxjrMK5WrH+oIyp1YK1HHevRWa+pVsEVF0er7gokIRy5ICF3+nz5PhAUYoL7zPiR7/297/s97+9+pXu9Xtqw4Ha7TSZTZ2enw+HAb2IfOo3D5ojF4tDQUKFQSM0LEkET6u7ubmxs/O+DB81NTa2trVqN1mazOZwO7EOn0fkCvkwmk8tkSpVKqVAkTZw4atQoPp9PLQ4AQRB6/Pjxze+//+Hx43v37jU0NGCESacL+EImk0mjQT10PLxej81ug848NBqDTp8ydSo4paamZmZkKBQKch//CIjQnTt3Ll/+59Wr1+7fv49XsSBUJBaxQ0KYDAaW919PJ/4RDxjR7nCYzeYuq4XDZmfOmTN//vzFixdHRUX5Jg6J9xDS6/UnTpw4cuTI06dPuSFsebgcXoKjEzzedxK6Dx6Px2K1trW38fj82ZkZK5bnfZabS80YDP4I1dXVlZeX/+O7czBEZHgEVIKP4AOUOGCAFmxptdk0ulZZWNiGDRsK16+Xy+WUeCCGJHT58uWtW7fW19fLpWESsZg8KyUbFogdvF6oCqbM/jR727Y/T5gwgZL1wyCE4JJVVVU7dux4/dPPsbEKTgj7A6n0gVAVnYZk0a7XZ2Zm7Nv3l8TERErWi0EIVZ85U1BQYOm2xERFsZhMHIsS9AJLiK2HC7igzW7XdbQtWJhVUVERFxdHCXxgUH97cenSpeKSEovFooyJQTz3ZwMKUBVims5kYPRtmgEDe3I5HLlMfvH8hX379kFhlMCHAYQQSmVlZZrmlpjIKOi3v/KgEqfbpdZqBKFCkUSC37AsdEWJgwQ48bk8UWjo0aNHz51D0LzZ5w0h5IyDBw/WPXwY49PNAFN6vS6Xu1mtTkxKwpkqKyuzsrKMZsIVIBym+bzeMKnU43Lv37//2fNn1CCS7bZt2/AHn6+pqdm5c6dIGCrg8/vYkGay+3QDEge+/TYtLQ05d/KUKahWd+/e9bg9RDoYFnAS2O75i//JwmTTpk0L8e1D2eXly5e5ubmNT54oYxR9msECl8vVqtPJIsILCwvXrF4dERlJyWg0u91eW1tT9PXXVqtNyOcjGH15OjjgEx16PargtWvXUlJSMEKYDGn+ypUrPzx6hKKIKb6ZBFxut669fcSoBGi1qKioPxuAw+EsW/a7mtrvZmfMNppM3VYLJQgGUAc8CX5969YtHB4jBKGOjo6zZ8/yuFwuh4sZYISnzWFvbdOlf5J+6tRpKI/U57uAquF5Kz5fae7uQjBTo8EghMWCn1y9ehWdDF4JQs+fP//P3btgSigHZvJ42js7TGbzhq++On3mzKRJk4h1QwDabWpqevbsGYLO6XT2OV/ggNXgtTeuX3/x4gVeGdgRfQU8l8vmQuh2ufRGA+pOwsiRSUlJ7e3tBoOBiPAh8OrVq/WFhfBupFBU9WFEHM4AJTkdTrW6Ba/MTZs2/fXQIVQJPp9HzsCmUokEPltTW4s6/68rV3RtbUajkcViQQrbMRhvkoVEIkmdPh1PMMNKk9H01oRAgPkWqyU5BbE7hY6NkhITEX7iUBEl93Eiot1uh1sgvGEMZB0Mzpw5c+7cuaNHj1apVFKpNDIy0tedEakBVjt9+nTVyZPwTZPBiHpMHiAQQElwklVr1uzatYv+8OHDGampErEEhqTkvUAlRA+IH/ge/APkRGKxyWzq1OvZbPamjRu3bN2K9pmcTAK5/uTJk3+vroYJzCYTmg2sDcSOeoNh9pzMw4cPM5CgoTH0fpSkH0g2ACYgyHFoTPJ6vMgOq1et+uLLL99iA4wbNw6nvHDp4spV+ZIwaZelu8dmC8TP6QyGWq2GTYIwNpSE2IbLoxkt2rw5Pj6eEryDj8Z+lLd8+Yy0NL3RCPUEGHo4M6Ga/Pz8U1VVSEL+TY59cVYQQvOAF4Ro49OnWo0GLJksFlywvyPjZoIifezYsViFgsvmBBJ4PT09uA4sWrSIBRtTY36BUwoFAj6PR+jJaDpbXd1lIVIzUgMS1ZgxYxISEsaPH4/CLBAIEGgoeffv3WtubkabiBgkNxkSXprT5cL9Ca5JRwr59cxZMqmUx6PC3j9IE+CJBIaAgjHaO9rtTidEIIQOcMmSJTk5OdD3o0eP9u7de/HCBSg1JiqarAyDwuPxtmhaDh0+vHbtWgZCVyAUgiAlfB9Ih8CT9HQkw7hY5UhVfHRUFEJM19qKNEFaH5pDu1NaViaTy1+3NKMy+jYYBG4Pmgb3v2/cwG+GSCSaOGmin9l+QJLD0eFb3RYL7s+f5+fDWKQUALni4uIDBw4geVptPXq94V1PhUs6nQ6JWPq6qQmvTDTzKEa3bt0U8viBJIx34Uuh6GydrBAWCiTKJK62qI84N7ZDahg7diyMiNeGJw0d+k744lufQRJKmTp19569SmUs4RBoIrFAGR0DC5CHDhY4icftRnTgq1qtBuWZzQqZljoNzoCcjrI4ffr0eJXq+vXrx48ff9LQgDogFBI5DAtdTtfP6ubikj99s3c3MQIGOM3inByNWi2Thg2PEEBo17cYvgV/xw+UZBRBl8fN5/HH/2pCdHS0Ki5Op9PBV3Ahjo2JYbM5Xo/H3GXmCgS7d3+Tl7eM2AebwAl279lTVlqqUsQiYofNqQ8gR24CcticwWRarVY0Di6vJ1weLhQKWtRqiBTRMSD0U9Prtb//4m9HKsm1RDaDo2UtXDgyIQE9EDn6geg7EtyLqL5er4DHGxEfPyJOxedy4UDhMjk6cXgeVIiLQ0ZGJjkfoNIr8tvqNWuMXWZU0OG59lAgyeEfQY7BCGEyUbFBK1IeDrUxWMy8vLylv/mMnAxQhKCkFStWzJs3T6trJaLjF+XUB5AjVYfdcXKDyTR/wcLizZt9YxTeFCClUllSUhKrVOra2z7Yi/wBp7U7HGqtduasWStXrqRGe/GGEDBjxowtW7bAB9H0UEO/NMAGumlp1SIbr1tXkLVwASXoxQBCCDFQLi0tRTgYjAZE7y9rO+xl7enRtGqTk1OKNpf8dukg/3NFxWd/2Gw2pK/y8nI02lGRkVw2+8MNCCpur9di6ca1MC39kz9u3JjzaTYlG4hBCAFIHrdv396+ffvNmzeloSKUJERvX0c7DCBJdhr0HC5nSe7SvpQzKAYnRAI9ZUVFBS4e9h4bCieaIQQjYUSClz9mhJl9uRFGh//CadDLoqKt+0PB+sICcs5Q8EcIgPnq6+srKysvnD+PtIFix+fykNOQZwFMeMvFsBfJg7gUONAmuTw0b/LHHzNDQnAVpCb5xXsIkQCVxsbG6urq2pqajs5ONFwwH5nomExGf2Uhh7ncLiaThRKGe1JmZmZ2dnZ6evr7m8ZeBESIBA6NeoRrU11d3YMHDxp//NFitcKtBmiJTsflJCdncfLk5Mkpk9H9QamUKDAEQagP0A28HtBoNLApaTsSaKgjIiLQGpMXyKBBo/0fmrxZCfRBip8AAAAASUVORK5CYII=;strokeWidth=2;labelBackgroundColor=none;rounded=0;" parent="-yruJXw2zJWxo76HJyfp-11" vertex="1">
          <mxGeometry width="48" height="45" as="geometry" />
        </mxCell>
        <mxCell id="-yruJXw2zJWxo76HJyfp-14" value="" style="group;strokeWidth=2;labelBackgroundColor=none;rounded=0;" parent="-yruJXw2zJWxo76HJyfp-1" vertex="1" connectable="0">
          <mxGeometry x="540" y="380" width="140" height="140" as="geometry" />
        </mxCell>
        <mxCell id="-yruJXw2zJWxo76HJyfp-15" value="&lt;div&gt;&lt;span style=&quot;font-weight: normal;&quot;&gt;prio:&amp;nbsp;&lt;/span&gt;&lt;/div&gt;&lt;div&gt;&lt;span style=&quot;font-weight: normal;&quot;&gt;&lt;br&gt;&lt;/span&gt;&lt;/div&gt;UART Rx" style="rounded=0;whiteSpace=wrap;html=1;fontStyle=1;fontSize=14;verticalAlign=top;strokeWidth=2;labelBackgroundColor=none;" parent="-yruJXw2zJWxo76HJyfp-14" vertex="1">
          <mxGeometry x="20" y="20" width="120" height="120" as="geometry" />
        </mxCell>
        <mxCell id="-yruJXw2zJWxo76HJyfp-16" value="" style="shape=image;verticalLabelPosition=bottom;verticalAlign=top;imageAspect=0;aspect=fixed;image=data:image/png,iVBORw0KGgoAAAANSUhEUgAAADAAAAAtCAIAAABnKH+VAAAAAXNSR0IArs4c6QAAAARnQU1BAACxjwv8YQUAAAAJcEhZcwAADsMAAA7DAcdvqGQAAApHSURBVFhHrVh5UJPpHc5FbnKQcIYQxGvVgs6CBwqrHcGTkUWXWiu6eHTXgu5UF2GqM2C9dxjrMK5WrH+oIyp1YK1HHevRWa+pVsEVF0er7gokIRy5ICF3+nz5PhAUYoL7zPiR7/297/s97+9+pXu9Xtqw4Ha7TSZTZ2enw+HAb2IfOo3D5ojF4tDQUKFQSM0LEkET6u7ubmxs/O+DB81NTa2trVqN1mazOZwO7EOn0fkCvkwmk8tkSpVKqVAkTZw4atQoPp9PLQ4AQRB6/Pjxze+//+Hx43v37jU0NGCESacL+EImk0mjQT10PLxej81ug848NBqDTp8ydSo4paamZmZkKBQKch//CIjQnTt3Ll/+59Wr1+7fv49XsSBUJBaxQ0KYDAaW919PJ/4RDxjR7nCYzeYuq4XDZmfOmTN//vzFixdHRUX5Jg6J9xDS6/UnTpw4cuTI06dPuSFsebgcXoKjEzzedxK6Dx6Px2K1trW38fj82ZkZK5bnfZabS80YDP4I1dXVlZeX/+O7czBEZHgEVIKP4AOUOGCAFmxptdk0ulZZWNiGDRsK16+Xy+WUeCCGJHT58uWtW7fW19fLpWESsZg8KyUbFogdvF6oCqbM/jR727Y/T5gwgZL1wyCE4JJVVVU7dux4/dPPsbEKTgj7A6n0gVAVnYZk0a7XZ2Zm7Nv3l8TERErWi0EIVZ85U1BQYOm2xERFsZhMHIsS9AJLiK2HC7igzW7XdbQtWJhVUVERFxdHCXxgUH97cenSpeKSEovFooyJQTz3ZwMKUBVims5kYPRtmgEDe3I5HLlMfvH8hX379kFhlMCHAYQQSmVlZZrmlpjIKOi3v/KgEqfbpdZqBKFCkUSC37AsdEWJgwQ48bk8UWjo0aNHz51D0LzZ5w0h5IyDBw/WPXwY49PNAFN6vS6Xu1mtTkxKwpkqKyuzsrKMZsIVIBym+bzeMKnU43Lv37//2fNn1CCS7bZt2/AHn6+pqdm5c6dIGCrg8/vYkGay+3QDEge+/TYtLQ05d/KUKahWd+/e9bg9RDoYFnAS2O75i//JwmTTpk0L8e1D2eXly5e5ubmNT54oYxR9msECl8vVqtPJIsILCwvXrF4dERlJyWg0u91eW1tT9PXXVqtNyOcjGH15OjjgEx16PargtWvXUlJSMEKYDGn+ypUrPzx6hKKIKb6ZBFxut669fcSoBGi1qKioPxuAw+EsW/a7mtrvZmfMNppM3VYLJQgGUAc8CX5969YtHB4jBKGOjo6zZ8/yuFwuh4sZYISnzWFvbdOlf5J+6tRpKI/U57uAquF5Kz5fae7uQjBTo8EghMWCn1y9ehWdDF4JQs+fP//P3btgSigHZvJ42js7TGbzhq++On3mzKRJk4h1QwDabWpqevbsGYLO6XT2OV/ggNXgtTeuX3/x4gVeGdgRfQU8l8vmQuh2ufRGA+pOwsiRSUlJ7e3tBoOBiPAh8OrVq/WFhfBupFBU9WFEHM4AJTkdTrW6Ba/MTZs2/fXQIVQJPp9HzsCmUokEPltTW4s6/68rV3RtbUajkcViQQrbMRhvkoVEIkmdPh1PMMNKk9H01oRAgPkWqyU5BbE7hY6NkhITEX7iUBEl93Eiot1uh1sgvGEMZB0Mzpw5c+7cuaNHj1apVFKpNDIy0tedEakBVjt9+nTVyZPwTZPBiHpMHiAQQElwklVr1uzatYv+8OHDGampErEEhqTkvUAlRA+IH/ge/APkRGKxyWzq1OvZbPamjRu3bN2K9pmcTAK5/uTJk3+vroYJzCYTmg2sDcSOeoNh9pzMw4cPM5CgoTH0fpSkH0g2ACYgyHFoTPJ6vMgOq1et+uLLL99iA4wbNw6nvHDp4spV+ZIwaZelu8dmC8TP6QyGWq2GTYIwNpSE2IbLoxkt2rw5Pj6eEryDj8Z+lLd8+Yy0NL3RCPUEGHo4M6Ga/Pz8U1VVSEL+TY59cVYQQvOAF4Ro49OnWo0GLJksFlywvyPjZoIifezYsViFgsvmBBJ4PT09uA4sWrSIBRtTY36BUwoFAj6PR+jJaDpbXd1lIVIzUgMS1ZgxYxISEsaPH4/CLBAIEGgoeffv3WtubkabiBgkNxkSXprT5cL9Ca5JRwr59cxZMqmUx6PC3j9IE+CJBIaAgjHaO9rtTidEIIQOcMmSJTk5OdD3o0eP9u7de/HCBSg1JiqarAyDwuPxtmhaDh0+vHbtWgZCVyAUgiAlfB9Ih8CT9HQkw7hY5UhVfHRUFEJM19qKNEFaH5pDu1NaViaTy1+3NKMy+jYYBG4Pmgb3v2/cwG+GSCSaOGmin9l+QJLD0eFb3RYL7s+f5+fDWKQUALni4uIDBw4geVptPXq94V1PhUs6nQ6JWPq6qQmvTDTzKEa3bt0U8viBJIx34Uuh6GydrBAWCiTKJK62qI84N7ZDahg7diyMiNeGJw0d+k744lufQRJKmTp19569SmUs4RBoIrFAGR0DC5CHDhY4icftRnTgq1qtBuWZzQqZljoNzoCcjrI4ffr0eJXq+vXrx48ff9LQgDogFBI5DAtdTtfP6ubikj99s3c3MQIGOM3inByNWi2Thg2PEEBo17cYvgV/xw+UZBRBl8fN5/HH/2pCdHS0Ki5Op9PBV3Ahjo2JYbM5Xo/H3GXmCgS7d3+Tl7eM2AebwAl279lTVlqqUsQiYofNqQ8gR24CcticwWRarVY0Di6vJ1weLhQKWtRqiBTRMSD0U9Prtb//4m9HKsm1RDaDo2UtXDgyIQE9EDn6geg7EtyLqL5er4DHGxEfPyJOxedy4UDhMjk6cXgeVIiLQ0ZGJjkfoNIr8tvqNWuMXWZU0OG59lAgyeEfQY7BCGEyUbFBK1IeDrUxWMy8vLylv/mMnAxQhKCkFStWzJs3T6trJaLjF+XUB5AjVYfdcXKDyTR/wcLizZt9YxTeFCClUllSUhKrVOra2z7Yi/wBp7U7HGqtduasWStXrqRGe/GGEDBjxowtW7bAB9H0UEO/NMAGumlp1SIbr1tXkLVwASXoxQBCCDFQLi0tRTgYjAZE7y9rO+xl7enRtGqTk1OKNpf8dukg/3NFxWd/2Gw2pK/y8nI02lGRkVw2+8MNCCpur9di6ca1MC39kz9u3JjzaTYlG4hBCAFIHrdv396+ffvNmzeloSKUJERvX0c7DCBJdhr0HC5nSe7SvpQzKAYnRAI9ZUVFBS4e9h4bCieaIQQjYUSClz9mhJl9uRFGh//CadDLoqKt+0PB+sICcs5Q8EcIgPnq6+srKysvnD+PtIFix+fykNOQZwFMeMvFsBfJg7gUONAmuTw0b/LHHzNDQnAVpCb5xXsIkQCVxsbG6urq2pqajs5ONFwwH5nomExGf2Uhh7ncLiaThRKGe1JmZmZ2dnZ6evr7m8ZeBESIBA6NeoRrU11d3YMHDxp//NFitcKtBmiJTsflJCdncfLk5Mkpk9H9QamUKDAEQagP0A28HtBoNLApaTsSaKgjIiLQGpMXyKBBo/0fmrxZCfRBip8AAAAASUVORK5CYII=;strokeWidth=2;labelBackgroundColor=none;rounded=0;" parent="-yruJXw2zJWxo76HJyfp-14" vertex="1">
          <mxGeometry width="48" height="45" as="geometry" />
        </mxCell>
        <mxCell id="yV9tmQ6JDc8qB_xp8zDq-3" style="edgeStyle=orthogonalEdgeStyle;rounded=1;orthogonalLoop=1;jettySize=auto;html=1;exitX=0.75;exitY=0;exitDx=0;exitDy=0;entryX=0.5;entryY=1;entryDx=0;entryDy=0;strokeWidth=2;curved=0;" parent="-yruJXw2zJWxo76HJyfp-1" source="-yruJXw2zJWxo76HJyfp-21" target="yV9tmQ6JDc8qB_xp8zDq-1" edge="1">
          <mxGeometry relative="1" as="geometry" />
        </mxCell>
        <mxCell id="-yruJXw2zJWxo76HJyfp-21" value="&lt;div&gt;&lt;span style=&quot;font-weight: normal;&quot;&gt;prio: Normal&amp;nbsp;&lt;/span&gt;&lt;/div&gt;&lt;div&gt;&lt;span style=&quot;font-weight: normal;&quot;&gt;&lt;br&gt;&lt;/span&gt;&lt;/div&gt;&lt;div&gt;Controlar irrigaÃ§Ãµes&lt;/div&gt;" style="rounded=0;whiteSpace=wrap;html=1;fontStyle=1;fontSize=14;verticalAlign=top;strokeWidth=2;labelBackgroundColor=none;" parent="-yruJXw2zJWxo76HJyfp-1" vertex="1">
          <mxGeometry x="40" y="400" width="120" height="120" as="geometry" />
        </mxCell>
        <mxCell id="-yruJXw2zJWxo76HJyfp-22" style="edgeStyle=orthogonalEdgeStyle;orthogonalLoop=1;jettySize=auto;html=1;exitX=0.25;exitY=1;exitDx=0;exitDy=0;entryX=0;entryY=0.5;entryDx=0;entryDy=0;strokeWidth=2;" parent="-yruJXw2zJWxo76HJyfp-1" source="-yruJXw2zJWxo76HJyfp-25" target="-yruJXw2zJWxo76HJyfp-63" edge="1">
          <mxGeometry relative="1" as="geometry" />
        </mxCell>
        <mxCell id="-yruJXw2zJWxo76HJyfp-23" style="edgeStyle=orthogonalEdgeStyle;orthogonalLoop=1;jettySize=auto;html=1;exitX=0.5;exitY=0;exitDx=0;exitDy=0;entryX=0.5;entryY=1;entryDx=0;entryDy=0;strokeWidth=2;" parent="-yruJXw2zJWxo76HJyfp-1" source="-yruJXw2zJWxo76HJyfp-25" target="-yruJXw2zJWxo76HJyfp-92" edge="1">
          <mxGeometry relative="1" as="geometry">
            <mxPoint x="420" y="200" as="targetPoint" />
          </mxGeometry>
        </mxCell>
        <mxCell id="-yruJXw2zJWxo76HJyfp-24" style="edgeStyle=orthogonalEdgeStyle;rounded=1;orthogonalLoop=1;jettySize=auto;html=1;exitX=1;exitY=0.25;exitDx=0;exitDy=0;entryX=0;entryY=0.5;entryDx=0;entryDy=0;strokeWidth=2;" parent="-yruJXw2zJWxo76HJyfp-1" source="-yruJXw2zJWxo76HJyfp-25" target="-yruJXw2zJWxo76HJyfp-95" edge="1">
          <mxGeometry relative="1" as="geometry" />
        </mxCell>
        <mxCell id="-yruJXw2zJWxo76HJyfp-25" value="&lt;div&gt;&lt;span style=&quot;font-weight: normal;&quot;&gt;prio: Low&lt;/span&gt;&lt;/div&gt;&lt;div&gt;&lt;span style=&quot;font-weight: normal;&quot;&gt;&lt;br&gt;&lt;/span&gt;&lt;/div&gt;&lt;div&gt;Configurar irrigaÃ§Ã£o&lt;/div&gt;" style="rounded=0;whiteSpace=wrap;html=1;fontStyle=1;fontSize=14;verticalAlign=top;strokeWidth=2;labelBackgroundColor=none;" parent="-yruJXw2zJWxo76HJyfp-1" vertex="1">
          <mxGeometry x="320.00000000000006" y="240" width="120" height="120" as="geometry" />
        </mxCell>
        <mxCell id="-yruJXw2zJWxo76HJyfp-26" style="edgeStyle=orthogonalEdgeStyle;rounded=0;orthogonalLoop=1;jettySize=auto;html=1;exitX=1;exitY=0.5;exitDx=0;exitDy=0;entryX=0;entryY=0.5;entryDx=0;entryDy=0;strokeWidth=2;labelBackgroundColor=none;fontColor=default;" parent="-yruJXw2zJWxo76HJyfp-1" source="-yruJXw2zJWxo76HJyfp-12" target="-yruJXw2zJWxo76HJyfp-38" edge="1">
          <mxGeometry relative="1" as="geometry" />
        </mxCell>
        <mxCell id="-yruJXw2zJWxo76HJyfp-30" value="" style="group;rounded=0;fontStyle=1;" parent="-yruJXw2zJWxo76HJyfp-1" vertex="1" connectable="0">
          <mxGeometry x="-209" y="109.52" width="130" height="69.96000000000001" as="geometry" />
        </mxCell>
        <mxCell id="-yruJXw2zJWxo76HJyfp-31" value="&lt;b&gt;xLogData&lt;/b&gt;" style="ellipse;whiteSpace=wrap;html=1;strokeWidth=2;labelBackgroundColor=none;rounded=0;" parent="-yruJXw2zJWxo76HJyfp-30" vertex="1">
          <mxGeometry x="10" width="120" height="60" as="geometry" />
        </mxCell>
        <mxCell id="-yruJXw2zJWxo76HJyfp-36" value="" style="group;rounded=0;" parent="-yruJXw2zJWxo76HJyfp-1" vertex="1" connectable="0">
          <mxGeometry x="-220" y="400" width="141" height="120" as="geometry" />
        </mxCell>
        <mxCell id="-yruJXw2zJWxo76HJyfp-37" value="&lt;div&gt;&lt;span style=&quot;font-weight: normal;&quot;&gt;prio: Low&lt;/span&gt;&lt;/div&gt;&lt;div&gt;&lt;span style=&quot;font-weight: normal;&quot;&gt;&lt;br&gt;&lt;/span&gt;&lt;/div&gt;&lt;div&gt;Gerenciar&lt;/div&gt;&lt;div&gt;botÃµes&lt;/div&gt;" style="rounded=0;whiteSpace=wrap;html=1;fontStyle=1;fontSize=14;verticalAlign=top;strokeWidth=2;labelBackgroundColor=none;" parent="-yruJXw2zJWxo76HJyfp-36" vertex="1">
          <mxGeometry x="21" width="120" height="120" as="geometry" />
        </mxCell>
        <mxCell id="-yruJXw2zJWxo76HJyfp-38" value="" style="shape=image;verticalLabelPosition=bottom;verticalAlign=top;imageAspect=0;aspect=fixed;image=data:image/png,iVBORw0KGgoAAAANSUhEUgAAAC4AAAAxCAIAAAAqWwwuAAAAAXNSR0IArs4c6QAAAARnQU1BAACxjwv8YQUAAAAJcEhZcwAADsMAAA7DAcdvqGQAAAlFSURBVFhHvVh7UFNXHoaEJBDkkfAIiASGx7orIAVEEJQuVMAHKELHojj7R3d0/5KBnensbIuzLp1CsR1dXVeowmLFcQXFuhTqulN8MHSUdwHlGUIRBBISFAiPvPdL7m2WRwg3Wv3IDPee8zvnfOf3Or9zLbVarcWrQqFQ0Ol0kVhsy2avW7dOo9EwGAyyz3yYTUUkEj158qS2tranp2d+bo5Gp72YfGFtbW3DZms1Gg6HsyMmJjIy0tfX187OjhxDDVSpqFSqhw8f3r59u6mpSalUYmG2DRsLQytMJkutRr96QT4vFovpdNqkROri4pK8b19ycrK/vz85xVqgRKWmpqakpKSjo8PNzT0wKMjXx9f/V/5cLhe6oOlA12o1mAcUZ2dnx8ZGu552DQwIfhr6SSFf2LNnz4cf/t7Pz4+ca3WsQWVoaOjM6dNVVVXevj4x298NDQvj8/lwCKyqVqvhHKScHpaWluBlZWUFVU3PTAv6BT/8UN/a3AyiWdnZ6enpaCdFjcEUlbq6ury8/PHx8cRdu3bGx/NceVgbrkpFkViVwWCqVMq+vr5vblU2Nzdti4z829mzMBwpsQLGqaCxtLQ0Ly9v469/88EH6QEBAZiaIonF0BNiTE9P379XW1r6Tz9f388LCsLCwsjupTBCBR5YWFiYn58fFRV99NgfXF1d0bLMFmaBiPC2traLhRcsaZb/uHDBKBsjVG7cuJGdlZW8b/+hwxkISLiFucpYCfgQk8ns7e398otTiL3i4uKVjrycCiL2SMaRsPAtH330JwQsjAJnJPteA1gFbFgsFsIw9+RfgjYHXb58eVnioZ88eZJ81Kev48ePc7nO2dl/dHBwgD4QE6DymlrRxTuNBhMD7uvXOzk5ISTl8vmYmJjF+/z/MgjO3Nzc4kuX8gu+CAwMUioVGD83N9fX2yuVSBCmhJh50Gox0InL9fbxsbe3BxU4Mqb9qqjoznfVxSUlCQkJpORiKq2trSn79x/OOJKa9j7aQRfe+v1/714pLaXR6a9uJiyg1YaEhh3Pzob/4hlOI5FIPs39K8fRoezqVVAkBMm9YtWysrINfH5s3Ht0uhWSEt3KampqqrWlZWFhQSGXyxcWXvEnl8tkssFB4cjwMPSBtWB3Ho93IDVtQCisqKggCAAkladPn35z69auxN1I5xqNmmjU70cLlQLIoXjGvHBkisD2fh5Lx5wzMplhWrDBkenpya+srHz58iXRbkX0lZeX8728tm7dCuKYgugDDHZRq9Q4/Hhubjj4iBZT0A2yhDrHx8bgH4YmA7AEwgJneEX59fr6+qSkJDTqqIyOjpZduZJ+KIOjU4nxVDYzM5Ocsu/Tzz6TzZKbMwFLC91h1N7enp2ZOSebJVuXAkS3bNlSfv1fVVX/3rt3L/asM1BnZyfL2jpo82bCrQjRZdBoNba2tnCx9QjHtX7u7u7wBqRpLLBaGoBieDy3gMCgkZHnKC3QoqOCEgTRi/F4Xo0KYKLLKFZTMAHMBjcKDw+XSKSNjQ1oocET79+/7+HhYcO2MT34Fwec19/Pf1IqffzoMV5pk5OTz5494zo5MRlMc/f9mkBSdXB05LnxiCCiwU4atdrNzQ3h+pa1guVwDDk6ciRSCdI6DZWRQql0dHSE5UiRtwUYgW1rCzbIpahEkdN1SZ2mDyUTwDCojXyhBhsbG/JpdWBa6AaRDw5UZ0ecP3/+vKHhsUpJIcUBlpYoJTVqjS6eqXkgVSpIKi3NLTl//mRxLjYBMJhfmEeMYMeGk8Q0aETUQEHE+2qAHaenprq7ugR9/VR+/b29o8MjmByciBmIhZYBvQDJARdMVBA4q2Azw7CVgDTY4BbIsmZR+1kzmExiLM4vlP4o4YhXA7AcqiKAYcXA5DTUVPDHyReTiHJSxBgwDKaBnyPqqAPyANfZeWfCLi8+f5liMOfC/PzsrAxZDXFk5enpCUYT4glQgV2NqhHAvOERESkHUufn58kmCtDiz8LCzs4exz68bdlusRySm1gkfic4GOqwQshFb9/+bHgIe8AYUmoF4IBu7u5xO+Nx7SObKAMpFFZYqXWsPjIyzGKyNgUE4FWXTmJjY1uamialk1CPXsYIdAZSKmWymVkZygTzflDkSh6YEAni0aNHGgsNcS3SUYmIiEDdJxQKMQASesk3DlgHSbanu9tjgwfxtUFHxcfHJzo6Gic1HMKEYn5ZoNjGXQKGS9qbhMBEi44KbJaamtrY8FggEOD1LSgGKoHz3bnzHYNBj4+PJxuJf/HxO339/O7Vfo86D3JE45sDckx3d1dPT09CQqKXlxfRSK7K5TodPXq0ru4hiktQeaOKgQ/g3vBtVZUt2yYjI4NsNVABdu/evW3bthsV5VKpFBeGN8RFHzjM+rq6xoaG1LQ0b29vsmMxFZQsmZmZA4L+69evIR+DO9KdoZjCw8qANBfgAQ/F9azsytchoSHHjh0jO/RY4hZRUVE5OTl3amru3v0PeLBYcHOm7homl4MZ0uVquZgKwAOzTUyIiy9dxP3hxIkTpr4kQBqJD3XJ15dLXVxdN20KQItQMIBc9E5ISPKBA3b6KzgpbQ4IHrgq//3c2Y72H/Pz8+Pi4si+n2HkgwXOhU8+/riy8lZmVlZc3Hui8XGRSOSxYQPqX4rFyjIgDhAyqFzPnz/X3tZ2+syZtLQ0sm8RjFABwOZETs7NmzcPHT4C50IljPv7q/GARnFp7u/ru/hVIXIaeCCHkX1LscRABsC5duzYoVKrYal+QT9ua6glsDNYh7q7IHNiCPFN8Py5cwqF/POCgpSUFLJ7BYxrxYCyq1e/PHUKKv7tu7GxcbG4+2N24pg16jTwCZgDJKCMqempzo7Omupvf2xrxS0wLz9/48aNpJwxrEEFGBwcLCoqqq6uZtuuCwwIDA4Oxu3a3t6BbctG7kH+JsRAAmWbQq5AsTE2NtbU2NDT29Pf18/hOP5OD+yBkFwNa1Mh0NzcfO3aNZzpMzMzuKIjOztxnby8vXBH15dHFkqValAoFIlFUskEasLxsXE+3zMt7f2DBw86Ozvr51gDVKkQwFXywYMH92prB4RCOAGbzeZwORb6UhrqmRCLca1ycXYOCQ1NSEzcHBSEVESOpADzqBggk8lQbQwPDyNV4BVcABQbus9BPB4hYx4sLP4HJ4eB01PlMdUAAAAASUVORK5CYII=;strokeWidth=2;labelBackgroundColor=none;rounded=0;" parent="-yruJXw2zJWxo76HJyfp-36" vertex="1">
          <mxGeometry x="4.69" y="40" width="36.61" height="39" as="geometry" />
        </mxCell>
        <mxCell id="-yruJXw2zJWxo76HJyfp-44" value="" style="group;rounded=0;" parent="-yruJXw2zJWxo76HJyfp-1" vertex="1" connectable="0">
          <mxGeometry x="-400" y="80" width="120" height="120" as="geometry" />
        </mxCell>
        <mxCell id="-yruJXw2zJWxo76HJyfp-45" value="&lt;div&gt;&lt;span style=&quot;font-weight: normal;&quot;&gt;prio: AboveNormal&lt;/span&gt;&lt;/div&gt;&lt;div&gt;&lt;span style=&quot;font-weight: normal;&quot;&gt;&lt;br&gt;&lt;/span&gt;&lt;/div&gt;Ler sensores e RTC" style="rounded=0;whiteSpace=wrap;html=1;fontStyle=1;fontSize=14;verticalAlign=top;strokeWidth=2;labelBackgroundColor=none;" parent="-yruJXw2zJWxo76HJyfp-44" vertex="1">
          <mxGeometry width="120" height="120" as="geometry" />
        </mxCell>
        <mxCell id="-yruJXw2zJWxo76HJyfp-46" value="" style="group" parent="-yruJXw2zJWxo76HJyfp-44" vertex="1" connectable="0">
          <mxGeometry x="62" y="90" width="54" height="30" as="geometry" />
        </mxCell>
        <mxCell id="-yruJXw2zJWxo76HJyfp-47" value="" style="shape=image;verticalLabelPosition=bottom;verticalAlign=top;imageAspect=0;aspect=fixed;image=data:image/png,iVBORw0KGgoAAAANSUhEUgAAACcAAAAkCAIAAACFVbTMAAAAAXNSR0IArs4c6QAAAARnQU1BAACxjwv8YQUAAAAJcEhZcwAADsMAAA7DAcdvqGQAAAYqSURBVFhHvZd7SNRZFMdHTV3Jx5huKm0+cpLyldoKOT5Gsn+i1bYXlGW7FfhHUISV5ZvAFlw0khAsyHwQ2NMSXFldI9dnZZoWbvlIndQc02YstPK53/mdO+P4c6aZDdkPvz9+95xz77mPc8+912hubk7wv2Oo1+npaZlM1tvX19vTIxsaEhgZQYi6y5Ytc3BwcHNzc3Z2dnJyImO96Pf69u3bJ0+eNDQ0dLx69fTp0z6plCk0EIlE/v7+Pj4+Af7+IaGhNjY2TKELeNXFyMhITk7Orl277OzsmLU+bIXCw4cPl9y9Oz4+zlrRhs6x1tbWXrlypaioiJUFAnd3d19fX7sVSl739DQ2Nkbv2zc9M6OQy0dGR/9pb+/s6iJLezu7n3fsiI2NDQwMJAkfcq4JlvDSpUuYLmYhEAQFBcXHx1dUVGD0ZIM+hUsk9D87Ozskk1VWViYlJQWJxayOQIA5LysrIxsefK9w+dv582ZmZlRz/fr1Z8+eff78OVOrQHPBYjEraADLtLQ0e3t7qo4ou3PnDtNpwPeakZFhYWFBdaIiI2tqakj+4sWL/Pz8L1++ULGkpMTby4v+F3Pv3j1MDzWyZs0aOMZ8MB3HAq9QC4VCst6zZ88bqZTk79+/3717N0aA5kgilUrv379P/1p59uxZWFgYNYURYxcwBce8166urpCQELLbu3fv4OAgU8zNff78OSEhAfJNmzaNKRRMqo+WlhaJyvHOnTvfvXvHFJpe4+LiaDklEklHRweTqhgYGEB8GRsZZV+8yEQGUF9f7+LsjDaRTAoLC2dmZkjOvKJfnp6eUFtbW9++fZuEPPKuXoWBl6dnf38/ExnA7xkZQi5pREREIOGQkHk9c+YMDfTAgQOjo6Mk5IFts3XrVmRCGDORCgRXbm4uKywEMeHr7Y2Wzc3M1GGh9ArFT9u2QQEKCgpIoZU/yspgg7DU3EuXL19GKl69evWfFRVMtJCsrCwba2tUPBkX9+nTJ0iUXpubm3/cuBHS8PDwzs5OzlI7Hz9+RMKD5fHjx0mCIVpZWUFy9OhRHA8k5IEuitzdYeOwciWtjtLrzZs3UYY0/vRpZAnOUifYAz+sWuXm6opkhJW2tLRExWPHjsnlcmaxiMnJST8/P5ghGOvr6iBRek1JTjbiTq5z586hshqtPUCigBmMESPLly9fYWubmZmJOWBqFcj+rBW5XKFQ+G3YgCpY2uqHD6FVesUQqSNOjo4IUXxIhODly5dcC3za2toQ8OgojgFk7KmpKabQIDExES1Qa/jQOdjD69/V1dDOewUpKSmYd/CGAzPDtcAHw0UoXL9+HTlS14ogQtECtQaUycDU1MTYeN5rclISzfCFCxe4KobCy65fAVkPDtQzbAxn3j4+33OnxODAAJKfctSGQX3Vy8TExIcPH3CMY2KQpCBRel27di12G36aW1qQ+ZSGS0pvb+/E+Dh+EAfOLi74UXp1dXV15C5aDx48wP0IP0vLX5WVyGv42b9/P12GlF7RBUStqakp/rELEej4WSrGxsby8vIUY2OIpjCJhB3etNq4/CHQUcT17tatWyRcErIyM+nM3rJlCz/7gxMnTtBwxWKxrp36X3n06BGyGNo0MTEpLi5Wx/y8V5ypwcHBsAAxMTFDQ0NM8a0g/W7evJkajIqK0szS814BTlacr2QXHR3d19fHFIvAxi8vL2cFbbS2tkaoXOJK+/jxY6bgWOAVpKenf2duTtaRkZEIaaZYCE5KH29vVlhEaWmpetpcXFzUx6oavlckVVwt1S8W3FpQbG9vZ2oVum6mTU1NaampOG6pOh4/N4qLmU4DvleA9Isc68VdAIjQ0NDU1NSqqir12tTW1alv4UjLyC1YnZOnTgUEBLA6AgHuiItHSeh8cVRXV1+7dg1XC1ZGChOJ0BWcS9jp3d3dcPzLwYOTU1PDw8OjIyNYC7w7yBKvnV8PHcKLY926dSThQ861gqMxOzt7+/bttra2zFofyOdHjhzBrH7j60oNwhUPqYb6ejyeWpqb+7Ulag8PD38/P3eRCBdmXIPoTvMVDH01Y7Gxg1+D7m7Z8DAJUdfc3Byxg72BC76joyPJ9WKo16VEIPgXzCHJehm8N40AAAAASUVORK5CYII=;strokeWidth=2;labelBackgroundColor=none;rounded=0;container=0;" parent="-yruJXw2zJWxo76HJyfp-46" vertex="1">
          <mxGeometry x="34" y="5.769999999999996" width="20" height="18.46" as="geometry" />
        </mxCell>
        <mxCell id="-yruJXw2zJWxo76HJyfp-48" value="1 s" style="text;html=1;align=center;verticalAlign=middle;resizable=0;points=[];autosize=1;strokeColor=none;fillColor=none;fontStyle=1;fontSize=13;rounded=0;container=0;" parent="-yruJXw2zJWxo76HJyfp-46" vertex="1">
          <mxGeometry width="40" height="30" as="geometry" />
        </mxCell>
        <mxCell id="-yruJXw2zJWxo76HJyfp-55" style="edgeStyle=orthogonalEdgeStyle;orthogonalLoop=1;jettySize=auto;html=1;exitX=1;exitY=0.5;exitDx=0;exitDy=0;entryX=0.5;entryY=1;entryDx=0;entryDy=0;strokeWidth=2;" parent="-yruJXw2zJWxo76HJyfp-1" source="-yruJXw2zJWxo76HJyfp-56" target="-yruJXw2zJWxo76HJyfp-25" edge="1">
          <mxGeometry relative="1" as="geometry" />
        </mxCell>
        <mxCell id="-yruJXw2zJWxo76HJyfp-56" value="" style="shape=image;verticalLabelPosition=bottom;verticalAlign=top;imageAspect=0;aspect=fixed;image=data:image/png,iVBORw0KGgoAAAANSUhEUgAAAD4AAAAjCAIAAABD6y5WAAAAAXNSR0IArs4c6QAAAARnQU1BAACxjwv8YQUAAAAJcEhZcwAADsMAAA7DAcdvqGQAAAKpSURBVFhH7Zhdb9JQGMfpoYXRljJIgAQn2RzK5nRezKsZ9wFc5t1MjDHMW41fRfR6ChPd9dR4sfhBXEboEpcBwV3wTstLW5+2R8XZdiS7aJf0lxB6nv7Pc/7npU36EIqieC4nqvV2uy3LMg44FfA5HA7hnySpcDgMEdX6vdXVw2IREYQuciYIIY4LeQhP+kZ679MeSZKq9eupVInnscSpcMFg4cMuwzCSLCWTycWFNILoaDTSbzucaDQai8enp8OSJEFTXfWHGxv80ZHFgak3Go16PZFImD0SBEGUy+VwOELTtKIYaAiEup1Os9lMJK4YCgA4EpVKhWVZjuPODCQrSiQSyWbfBGh6MBiEQtzSzcWJ3jD5fH57+20uv9NqtXBoDPBNUdTTJ4+fv3h5f22t1+vhG2MwLPttf7/wfqfwcVcURcNBg8Hgs63Mg/X1zc1H8ObA0TH0XrDkunX1wJwLmNOAjTFlTHYhLPJoXv4ykXXYPpixLEtwYYYus0ZLYgUILDS6mT9MZN2ZuNbtwLVuB651O3Ct24Fr3Q5c63bgWrcD17oduNbtYCLrPp8PITRlCQhAhhtGUBQ1SRKQ4ca/+P1+7OY3JPzKJycDtZxnSqVSEQSBL5U6nQ4OjUMQFEn2+/1qtcrzvCgIOD5GgKFrtZooiiAApceomMGwDIxyevqT50vdThdHNUDt9XpjsRjMDYdgWPgCv7O8/P3gwKKEpH+lQ2e4wKH/AIFWcYDURhqCgBTQHSGvsUCrYUiSpKZA6MxA0DMei33+8pVh2V5P8PnI27eWVOsL6fRhsYhVJsC0TF1rnCsALpIkxHGvsq+nAjTp9a7cXZm/Nqeu6NWZGXz/MjA3OwueAXXVtzKZH8fHpsfFMcCZhD1Jzc+/y+WgOVHN0Yl4PL8AtQuSazLKfHQAAAAASUVORK5CYII=;rounded=0;direction=west;" parent="-yruJXw2zJWxo76HJyfp-1" vertex="1">
          <mxGeometry x="450" y="442.5" width="62" height="35" as="geometry" />
        </mxCell>
        <mxCell id="-yruJXw2zJWxo76HJyfp-60" style="edgeStyle=orthogonalEdgeStyle;orthogonalLoop=1;jettySize=auto;html=1;exitX=0.5;exitY=1;exitDx=0;exitDy=0;entryX=0.5;entryY=0;entryDx=0;entryDy=0;strokeWidth=2;jumpStyle=arc;jumpSize=12;startArrow=classic;startFill=1;" parent="-yruJXw2zJWxo76HJyfp-1" source="-yruJXw2zJWxo76HJyfp-31" target="-yruJXw2zJWxo76HJyfp-21" edge="1">
          <mxGeometry relative="1" as="geometry">
            <Array as="points">
              <mxPoint x="-139" y="240" />
              <mxPoint x="100" y="240" />
            </Array>
          </mxGeometry>
        </mxCell>
        <mxCell id="-yruJXw2zJWxo76HJyfp-62" style="edgeStyle=orthogonalEdgeStyle;orthogonalLoop=1;jettySize=auto;html=1;exitX=1;exitY=0.5;exitDx=0;exitDy=0;entryX=1;entryY=0.5;entryDx=0;entryDy=0;strokeWidth=2;" parent="-yruJXw2zJWxo76HJyfp-1" source="-yruJXw2zJWxo76HJyfp-63" target="-yruJXw2zJWxo76HJyfp-21" edge="1">
          <mxGeometry relative="1" as="geometry" />
        </mxCell>
        <mxCell id="-yruJXw2zJWxo76HJyfp-63" value="" style="shape=image;verticalLabelPosition=bottom;verticalAlign=top;imageAspect=0;aspect=fixed;image=data:image/png,iVBORw0KGgoAAAANSUhEUgAAAD4AAAAjCAIAAABD6y5WAAAAAXNSR0IArs4c6QAAAARnQU1BAACxjwv8YQUAAAAJcEhZcwAADsMAAA7DAcdvqGQAAAKpSURBVFhH7Zhdb9JQGMfpoYXRljJIgAQn2RzK5nRezKsZ9wFc5t1MjDHMW41fRfR6ChPd9dR4sfhBXEboEpcBwV3wTstLW5+2R8XZdiS7aJf0lxB6nv7Pc/7npU36EIqieC4nqvV2uy3LMg44FfA5HA7hnySpcDgMEdX6vdXVw2IREYQuciYIIY4LeQhP+kZ679MeSZKq9eupVInnscSpcMFg4cMuwzCSLCWTycWFNILoaDTSbzucaDQai8enp8OSJEFTXfWHGxv80ZHFgak3Go16PZFImD0SBEGUy+VwOELTtKIYaAiEup1Os9lMJK4YCgA4EpVKhWVZjuPODCQrSiQSyWbfBGh6MBiEQtzSzcWJ3jD5fH57+20uv9NqtXBoDPBNUdTTJ4+fv3h5f22t1+vhG2MwLPttf7/wfqfwcVcURcNBg8Hgs63Mg/X1zc1H8ObA0TH0XrDkunX1wJwLmNOAjTFlTHYhLPJoXv4ykXXYPpixLEtwYYYus0ZLYgUILDS6mT9MZN2ZuNbtwLVuB651O3Ct24Fr3Q5c63bgWrcD17oduNbtYCLrPp8PITRlCQhAhhtGUBQ1SRKQ4ca/+P1+7OY3JPzKJycDtZxnSqVSEQSBL5U6nQ4OjUMQFEn2+/1qtcrzvCgIOD5GgKFrtZooiiAApceomMGwDIxyevqT50vdThdHNUDt9XpjsRjMDYdgWPgCv7O8/P3gwKKEpH+lQ2e4wKH/AIFWcYDURhqCgBTQHSGvsUCrYUiSpKZA6MxA0DMei33+8pVh2V5P8PnI27eWVOsL6fRhsYhVJsC0TF1rnCsALpIkxHGvsq+nAjTp9a7cXZm/Nqeu6NWZGXz/MjA3OwueAXXVtzKZH8fHpsfFMcCZhD1Jzc+/y+WgOVHN0Yl4PL8AtQuSazLKfHQAAAAASUVORK5CYII=;labelBackgroundColor=none;rounded=0;direction=west;" parent="-yruJXw2zJWxo76HJyfp-1" vertex="1">
          <mxGeometry x="230" y="442.5" width="62" height="35" as="geometry" />
        </mxCell>
        <mxCell id="-yruJXw2zJWxo76HJyfp-64" value="" style="group" parent="-yruJXw2zJWxo76HJyfp-1" vertex="1" connectable="0">
          <mxGeometry x="-400" y="-80" width="124" height="126" as="geometry" />
        </mxCell>
        <mxCell id="-yruJXw2zJWxo76HJyfp-65" value="&lt;div&gt;&lt;span style=&quot;font-weight: normal;&quot;&gt;prio: Low&amp;nbsp;&lt;/span&gt;&lt;/div&gt;&lt;div&gt;&lt;span style=&quot;font-weight: normal;&quot;&gt;&lt;br&gt;&lt;/span&gt;&lt;/div&gt;&lt;div&gt;Atualizar&amp;nbsp;&lt;/div&gt;&lt;div&gt;display&lt;/div&gt;" style="rounded=0;whiteSpace=wrap;html=1;fontStyle=1;fontSize=14;verticalAlign=top;strokeWidth=2;labelBackgroundColor=none;" parent="-yruJXw2zJWxo76HJyfp-64" vertex="1">
          <mxGeometry width="120" height="120" as="geometry" />
        </mxCell>
        <mxCell id="-yruJXw2zJWxo76HJyfp-66" value="" style="group" parent="-yruJXw2zJWxo76HJyfp-64" vertex="1" connectable="0">
          <mxGeometry x="62" y="86" width="54" height="35" as="geometry" />
        </mxCell>
        <mxCell id="-yruJXw2zJWxo76HJyfp-67" value="" style="shape=image;verticalLabelPosition=bottom;verticalAlign=top;imageAspect=0;aspect=fixed;image=data:image/png,iVBORw0KGgoAAAANSUhEUgAAACcAAAAkCAIAAACFVbTMAAAAAXNSR0IArs4c6QAAAARnQU1BAACxjwv8YQUAAAAJcEhZcwAADsMAAA7DAcdvqGQAAAYqSURBVFhHvZd7SNRZFMdHTV3Jx5huKm0+cpLyldoKOT5Gsn+i1bYXlGW7FfhHUISV5ZvAFlw0khAsyHwQ2NMSXFldI9dnZZoWbvlIndQc02YstPK53/mdO+P4c6aZDdkPvz9+95xz77mPc8+912hubk7wv2Oo1+npaZlM1tvX19vTIxsaEhgZQYi6y5Ytc3BwcHNzc3Z2dnJyImO96Pf69u3bJ0+eNDQ0dLx69fTp0z6plCk0EIlE/v7+Pj4+Af7+IaGhNjY2TKELeNXFyMhITk7Orl277OzsmLU+bIXCw4cPl9y9Oz4+zlrRhs6x1tbWXrlypaioiJUFAnd3d19fX7sVSl739DQ2Nkbv2zc9M6OQy0dGR/9pb+/s6iJLezu7n3fsiI2NDQwMJAkfcq4JlvDSpUuYLmYhEAQFBcXHx1dUVGD0ZIM+hUsk9D87Ozskk1VWViYlJQWJxayOQIA5LysrIxsefK9w+dv582ZmZlRz/fr1Z8+eff78OVOrQHPBYjEraADLtLQ0e3t7qo4ou3PnDtNpwPeakZFhYWFBdaIiI2tqakj+4sWL/Pz8L1++ULGkpMTby4v+F3Pv3j1MDzWyZs0aOMZ8MB3HAq9QC4VCst6zZ88bqZTk79+/3717N0aA5kgilUrv379P/1p59uxZWFgYNYURYxcwBce8166urpCQELLbu3fv4OAgU8zNff78OSEhAfJNmzaNKRRMqo+WlhaJyvHOnTvfvXvHFJpe4+LiaDklEklHRweTqhgYGEB8GRsZZV+8yEQGUF9f7+LsjDaRTAoLC2dmZkjOvKJfnp6eUFtbW9++fZuEPPKuXoWBl6dnf38/ExnA7xkZQi5pREREIOGQkHk9c+YMDfTAgQOjo6Mk5IFts3XrVmRCGDORCgRXbm4uKywEMeHr7Y2Wzc3M1GGh9ArFT9u2QQEKCgpIoZU/yspgg7DU3EuXL19GKl69evWfFRVMtJCsrCwba2tUPBkX9+nTJ0iUXpubm3/cuBHS8PDwzs5OzlI7Hz9+RMKD5fHjx0mCIVpZWUFy9OhRHA8k5IEuitzdYeOwciWtjtLrzZs3UYY0/vRpZAnOUifYAz+sWuXm6opkhJW2tLRExWPHjsnlcmaxiMnJST8/P5ghGOvr6iBRek1JTjbiTq5z586hshqtPUCigBmMESPLly9fYWubmZmJOWBqFcj+rBW5XKFQ+G3YgCpY2uqHD6FVesUQqSNOjo4IUXxIhODly5dcC3za2toQ8OgojgFk7KmpKabQIDExES1Qa/jQOdjD69/V1dDOewUpKSmYd/CGAzPDtcAHw0UoXL9+HTlS14ogQtECtQaUycDU1MTYeN5rclISzfCFCxe4KobCy65fAVkPDtQzbAxn3j4+33OnxODAAJKfctSGQX3Vy8TExIcPH3CMY2KQpCBRel27di12G36aW1qQ+ZSGS0pvb+/E+Dh+EAfOLi74UXp1dXV15C5aDx48wP0IP0vLX5WVyGv42b9/P12GlF7RBUStqakp/rELEej4WSrGxsby8vIUY2OIpjCJhB3etNq4/CHQUcT17tatWyRcErIyM+nM3rJlCz/7gxMnTtBwxWKxrp36X3n06BGyGNo0MTEpLi5Wx/y8V5ypwcHBsAAxMTFDQ0NM8a0g/W7evJkajIqK0szS814BTlacr2QXHR3d19fHFIvAxi8vL2cFbbS2tkaoXOJK+/jxY6bgWOAVpKenf2duTtaRkZEIaaZYCE5KH29vVlhEaWmpetpcXFzUx6oavlckVVwt1S8W3FpQbG9vZ2oVum6mTU1NaampOG6pOh4/N4qLmU4DvleA9Isc68VdAIjQ0NDU1NSqqir12tTW1alv4UjLyC1YnZOnTgUEBLA6AgHuiItHSeh8cVRXV1+7dg1XC1ZGChOJ0BWcS9jp3d3dcPzLwYOTU1PDw8OjIyNYC7w7yBKvnV8PHcKLY926dSThQ861gqMxOzt7+/bttra2zFofyOdHjhzBrH7j60oNwhUPqYb6ejyeWpqb+7Ulag8PD38/P3eRCBdmXIPoTvMVDH01Y7Gxg1+D7m7Z8DAJUdfc3Byxg72BC76joyPJ9WKo16VEIPgXzCHJehm8N40AAAAASUVORK5CYII=;strokeWidth=2;labelBackgroundColor=none;rounded=0;container=0;" parent="-yruJXw2zJWxo76HJyfp-66" vertex="1">
          <mxGeometry x="34" y="5.769999999999996" width="20" height="18.46" as="geometry" />
        </mxCell>
        <mxCell id="-yruJXw2zJWxo76HJyfp-68" value="min&lt;div&gt;1 s&lt;/div&gt;" style="text;html=1;align=center;verticalAlign=middle;resizable=0;points=[];autosize=1;strokeColor=none;fillColor=none;fontStyle=1;fontSize=13;rounded=0;container=0;" parent="-yruJXw2zJWxo76HJyfp-66" vertex="1">
          <mxGeometry y="-5" width="40" height="40" as="geometry" />
        </mxCell>
        <mxCell id="-yruJXw2zJWxo76HJyfp-73" style="edgeStyle=orthogonalEdgeStyle;orthogonalLoop=1;jettySize=auto;html=1;exitX=0;exitY=0.5;exitDx=0;exitDy=0;entryX=0;entryY=0.5;entryDx=0;entryDy=0;strokeWidth=2;" parent="-yruJXw2zJWxo76HJyfp-1" source="-yruJXw2zJWxo76HJyfp-15" target="-yruJXw2zJWxo76HJyfp-56" edge="1">
          <mxGeometry relative="1" as="geometry" />
        </mxCell>
        <mxCell id="-yruJXw2zJWxo76HJyfp-76" style="edgeStyle=orthogonalEdgeStyle;orthogonalLoop=1;jettySize=auto;html=1;exitX=1;exitY=0.5;exitDx=0;exitDy=0;strokeWidth=2;entryX=1;entryY=0.5;entryDx=0;entryDy=0;" parent="-yruJXw2zJWxo76HJyfp-1" source="-yruJXw2zJWxo76HJyfp-15" target="T9xS-H06mtn6zdaZTE3--0" edge="1">
          <mxGeometry relative="1" as="geometry">
            <Array as="points">
              <mxPoint x="720" y="460" />
              <mxPoint x="720" y="-40" />
              <mxPoint x="500" y="-40" />
            </Array>
          </mxGeometry>
        </mxCell>
        <mxCell id="-yruJXw2zJWxo76HJyfp-77" style="edgeStyle=orthogonalEdgeStyle;orthogonalLoop=1;jettySize=auto;html=1;exitX=1;exitY=0.5;exitDx=0;exitDy=0;entryX=1;entryY=0.75;entryDx=0;entryDy=0;strokeWidth=2;" parent="-yruJXw2zJWxo76HJyfp-1" source="-yruJXw2zJWxo76HJyfp-78" target="-yruJXw2zJWxo76HJyfp-10" edge="1">
          <mxGeometry relative="1" as="geometry" />
        </mxCell>
        <mxCell id="-yruJXw2zJWxo76HJyfp-78" value="" style="shape=image;verticalLabelPosition=bottom;verticalAlign=top;imageAspect=0;aspect=fixed;image=data:image/png,iVBORw0KGgoAAAANSUhEUgAAAD4AAAAjCAIAAABD6y5WAAAAAXNSR0IArs4c6QAAAARnQU1BAACxjwv8YQUAAAAJcEhZcwAADsMAAA7DAcdvqGQAAAKpSURBVFhH7Zhdb9JQGMfpoYXRljJIgAQn2RzK5nRezKsZ9wFc5t1MjDHMW41fRfR6ChPd9dR4sfhBXEboEpcBwV3wTstLW5+2R8XZdiS7aJf0lxB6nv7Pc/7npU36EIqieC4nqvV2uy3LMg44FfA5HA7hnySpcDgMEdX6vdXVw2IREYQuciYIIY4LeQhP+kZ679MeSZKq9eupVInnscSpcMFg4cMuwzCSLCWTycWFNILoaDTSbzucaDQai8enp8OSJEFTXfWHGxv80ZHFgak3Go16PZFImD0SBEGUy+VwOELTtKIYaAiEup1Os9lMJK4YCgA4EpVKhWVZjuPODCQrSiQSyWbfBGh6MBiEQtzSzcWJ3jD5fH57+20uv9NqtXBoDPBNUdTTJ4+fv3h5f22t1+vhG2MwLPttf7/wfqfwcVcURcNBg8Hgs63Mg/X1zc1H8ObA0TH0XrDkunX1wJwLmNOAjTFlTHYhLPJoXv4ykXXYPpixLEtwYYYus0ZLYgUILDS6mT9MZN2ZuNbtwLVuB651O3Ct24Fr3Q5c63bgWrcD17oduNbtYCLrPp8PITRlCQhAhhtGUBQ1SRKQ4ca/+P1+7OY3JPzKJycDtZxnSqVSEQSBL5U6nQ4OjUMQFEn2+/1qtcrzvCgIOD5GgKFrtZooiiAApceomMGwDIxyevqT50vdThdHNUDt9XpjsRjMDYdgWPgCv7O8/P3gwKKEpH+lQ2e4wKH/AIFWcYDURhqCgBTQHSGvsUCrYUiSpKZA6MxA0DMei33+8pVh2V5P8PnI27eWVOsL6fRhsYhVJsC0TF1rnCsALpIkxHGvsq+nAjTp9a7cXZm/Nqeu6NWZGXz/MjA3OwueAXXVtzKZH8fHpsfFMcCZhD1Jzc+/y+WgOVHN0Yl4PL8AtQuSazLKfHQAAAAASUVORK5CYII=;labelBackgroundColor=none;rounded=0;direction=west;" parent="-yruJXw2zJWxo76HJyfp-1" vertex="1">
          <mxGeometry x="500" y="-7" width="62" height="35" as="geometry" />
        </mxCell>
        <mxCell id="-yruJXw2zJWxo76HJyfp-79" style="edgeStyle=orthogonalEdgeStyle;orthogonalLoop=1;jettySize=auto;html=1;exitX=1;exitY=0.5;exitDx=0;exitDy=0;entryX=1;entryY=0.5;entryDx=0;entryDy=0;strokeWidth=2;" parent="-yruJXw2zJWxo76HJyfp-1" source="-yruJXw2zJWxo76HJyfp-80" target="-yruJXw2zJWxo76HJyfp-25" edge="1">
          <mxGeometry relative="1" as="geometry" />
        </mxCell>
        <mxCell id="-yruJXw2zJWxo76HJyfp-80" value="" style="shape=image;verticalLabelPosition=bottom;verticalAlign=top;imageAspect=0;aspect=fixed;image=data:image/png,iVBORw0KGgoAAAANSUhEUgAAAD4AAAAjCAIAAABD6y5WAAAAAXNSR0IArs4c6QAAAARnQU1BAACxjwv8YQUAAAAJcEhZcwAADsMAAA7DAcdvqGQAAAKpSURBVFhH7Zhdb9JQGMfpoYXRljJIgAQn2RzK5nRezKsZ9wFc5t1MjDHMW41fRfR6ChPd9dR4sfhBXEboEpcBwV3wTstLW5+2R8XZdiS7aJf0lxB6nv7Pc/7npU36EIqieC4nqvV2uy3LMg44FfA5HA7hnySpcDgMEdX6vdXVw2IREYQuciYIIY4LeQhP+kZ679MeSZKq9eupVInnscSpcMFg4cMuwzCSLCWTycWFNILoaDTSbzucaDQai8enp8OSJEFTXfWHGxv80ZHFgak3Go16PZFImD0SBEGUy+VwOELTtKIYaAiEup1Os9lMJK4YCgA4EpVKhWVZjuPODCQrSiQSyWbfBGh6MBiEQtzSzcWJ3jD5fH57+20uv9NqtXBoDPBNUdTTJ4+fv3h5f22t1+vhG2MwLPttf7/wfqfwcVcURcNBg8Hgs63Mg/X1zc1H8ObA0TH0XrDkunX1wJwLmNOAjTFlTHYhLPJoXv4ykXXYPpixLEtwYYYus0ZLYgUILDS6mT9MZN2ZuNbtwLVuB651O3Ct24Fr3Q5c63bgWrcD17oduNbtYCLrPp8PITRlCQhAhhtGUBQ1SRKQ4ca/+P1+7OY3JPzKJycDtZxnSqVSEQSBL5U6nQ4OjUMQFEn2+/1qtcrzvCgIOD5GgKFrtZooiiAApceomMGwDIxyevqT50vdThdHNUDt9XpjsRjMDYdgWPgCv7O8/P3gwKKEpH+lQ2e4wKH/AIFWcYDURhqCgBTQHSGvsUCrYUiSpKZA6MxA0DMei33+8pVh2V5P8PnI27eWVOsL6fRhsYhVJsC0TF1rnCsALpIkxHGvsq+nAjTp9a7cXZm/Nqeu6NWZGXz/MjA3OwueAXXVtzKZH8fHpsfFMcCZhD1Jzc+/y+WgOVHN0Yl4PL8AtQuSazLKfHQAAAAASUVORK5CYII=;labelBackgroundColor=none;rounded=0;direction=west;" parent="-yruJXw2zJWxo76HJyfp-1" vertex="1">
          <mxGeometry x="500" y="282.5" width="62" height="35" as="geometry" />
        </mxCell>
        <mxCell id="-yruJXw2zJWxo76HJyfp-81" style="edgeStyle=orthogonalEdgeStyle;orthogonalLoop=1;jettySize=auto;html=1;exitX=0.75;exitY=0;exitDx=0;exitDy=0;entryX=0.75;entryY=1;entryDx=0;entryDy=0;strokeWidth=2;" parent="-yruJXw2zJWxo76HJyfp-1" source="-yruJXw2zJWxo76HJyfp-15" target="-yruJXw2zJWxo76HJyfp-9" edge="1">
          <mxGeometry relative="1" as="geometry" />
        </mxCell>
        <mxCell id="-yruJXw2zJWxo76HJyfp-82" value="Irrigando" style="ellipse;whiteSpace=wrap;html=1;" parent="-yruJXw2zJWxo76HJyfp-1" vertex="1">
          <mxGeometry x="1100" y="-120" width="120" height="80" as="geometry" />
        </mxCell>
        <mxCell id="-yruJXw2zJWxo76HJyfp-83" value="Em espera" style="ellipse;whiteSpace=wrap;html=1;" parent="-yruJXw2zJWxo76HJyfp-1" vertex="1">
          <mxGeometry x="1200" width="120" height="80" as="geometry" />
        </mxCell>
        <mxCell id="-yruJXw2zJWxo76HJyfp-84" value="Configurando&lt;div&gt;irrigaÃ§Ã£o&lt;/div&gt;" style="ellipse;whiteSpace=wrap;html=1;" parent="-yruJXw2zJWxo76HJyfp-1" vertex="1">
          <mxGeometry x="1000" width="120" height="80" as="geometry" />
        </mxCell>
        <mxCell id="-yruJXw2zJWxo76HJyfp-85" value="" style="group;strokeWidth=2;labelBackgroundColor=none;rounded=0;" parent="-yruJXw2zJWxo76HJyfp-1" vertex="1" connectable="0">
          <mxGeometry x="-420" y="220" width="140" height="140" as="geometry" />
        </mxCell>
        <mxCell id="-yruJXw2zJWxo76HJyfp-86" value="&lt;div&gt;&lt;span style=&quot;font-weight: normal;&quot;&gt;prio:&amp;nbsp;&lt;/span&gt;&lt;/div&gt;&lt;div&gt;&lt;span style=&quot;font-weight: normal;&quot;&gt;&lt;br&gt;&lt;/span&gt;&lt;/div&gt;Alarme RTC" style="rounded=0;whiteSpace=wrap;html=1;fontStyle=1;fontSize=14;verticalAlign=top;strokeWidth=2;labelBackgroundColor=none;" parent="-yruJXw2zJWxo76HJyfp-85" vertex="1">
          <mxGeometry x="20" y="20" width="120" height="120" as="geometry" />
        </mxCell>
        <mxCell id="-yruJXw2zJWxo76HJyfp-87" value="" style="shape=image;verticalLabelPosition=bottom;verticalAlign=top;imageAspect=0;aspect=fixed;image=data:image/png,iVBORw0KGgoAAAANSUhEUgAAADAAAAAtCAIAAABnKH+VAAAAAXNSR0IArs4c6QAAAARnQU1BAACxjwv8YQUAAAAJcEhZcwAADsMAAA7DAcdvqGQAAApHSURBVFhHrVh5UJPpHc5FbnKQcIYQxGvVgs6CBwqrHcGTkUWXWiu6eHTXgu5UF2GqM2C9dxjrMK5WrH+oIyp1YK1HHevRWa+pVsEVF0er7gokIRy5ICF3+nz5PhAUYoL7zPiR7/297/s97+9+pXu9Xtqw4Ha7TSZTZ2enw+HAb2IfOo3D5ojF4tDQUKFQSM0LEkET6u7ubmxs/O+DB81NTa2trVqN1mazOZwO7EOn0fkCvkwmk8tkSpVKqVAkTZw4atQoPp9PLQ4AQRB6/Pjxze+//+Hx43v37jU0NGCESacL+EImk0mjQT10PLxej81ug848NBqDTp8ydSo4paamZmZkKBQKch//CIjQnTt3Ll/+59Wr1+7fv49XsSBUJBaxQ0KYDAaW919PJ/4RDxjR7nCYzeYuq4XDZmfOmTN//vzFixdHRUX5Jg6J9xDS6/UnTpw4cuTI06dPuSFsebgcXoKjEzzedxK6Dx6Px2K1trW38fj82ZkZK5bnfZabS80YDP4I1dXVlZeX/+O7czBEZHgEVIKP4AOUOGCAFmxptdk0ulZZWNiGDRsK16+Xy+WUeCCGJHT58uWtW7fW19fLpWESsZg8KyUbFogdvF6oCqbM/jR727Y/T5gwgZL1wyCE4JJVVVU7dux4/dPPsbEKTgj7A6n0gVAVnYZk0a7XZ2Zm7Nv3l8TERErWi0EIVZ85U1BQYOm2xERFsZhMHIsS9AJLiK2HC7igzW7XdbQtWJhVUVERFxdHCXxgUH97cenSpeKSEovFooyJQTz3ZwMKUBVims5kYPRtmgEDe3I5HLlMfvH8hX379kFhlMCHAYQQSmVlZZrmlpjIKOi3v/KgEqfbpdZqBKFCkUSC37AsdEWJgwQ48bk8UWjo0aNHz51D0LzZ5w0h5IyDBw/WPXwY49PNAFN6vS6Xu1mtTkxKwpkqKyuzsrKMZsIVIBym+bzeMKnU43Lv37//2fNn1CCS7bZt2/AHn6+pqdm5c6dIGCrg8/vYkGay+3QDEge+/TYtLQ05d/KUKahWd+/e9bg9RDoYFnAS2O75i//JwmTTpk0L8e1D2eXly5e5ubmNT54oYxR9msECl8vVqtPJIsILCwvXrF4dERlJyWg0u91eW1tT9PXXVqtNyOcjGH15OjjgEx16PargtWvXUlJSMEKYDGn+ypUrPzx6hKKIKb6ZBFxut669fcSoBGi1qKioPxuAw+EsW/a7mtrvZmfMNppM3VYLJQgGUAc8CX5969YtHB4jBKGOjo6zZ8/yuFwuh4sZYISnzWFvbdOlf5J+6tRpKI/U57uAquF5Kz5fae7uQjBTo8EghMWCn1y9ehWdDF4JQs+fP//P3btgSigHZvJ42js7TGbzhq++On3mzKRJk4h1QwDabWpqevbsGYLO6XT2OV/ggNXgtTeuX3/x4gVeGdgRfQU8l8vmQuh2ufRGA+pOwsiRSUlJ7e3tBoOBiPAh8OrVq/WFhfBupFBU9WFEHM4AJTkdTrW6Ba/MTZs2/fXQIVQJPp9HzsCmUokEPltTW4s6/68rV3RtbUajkcViQQrbMRhvkoVEIkmdPh1PMMNKk9H01oRAgPkWqyU5BbE7hY6NkhITEX7iUBEl93Eiot1uh1sgvGEMZB0Mzpw5c+7cuaNHj1apVFKpNDIy0tedEakBVjt9+nTVyZPwTZPBiHpMHiAQQElwklVr1uzatYv+8OHDGampErEEhqTkvUAlRA+IH/ge/APkRGKxyWzq1OvZbPamjRu3bN2K9pmcTAK5/uTJk3+vroYJzCYTmg2sDcSOeoNh9pzMw4cPM5CgoTH0fpSkH0g2ACYgyHFoTPJ6vMgOq1et+uLLL99iA4wbNw6nvHDp4spV+ZIwaZelu8dmC8TP6QyGWq2GTYIwNpSE2IbLoxkt2rw5Pj6eEryDj8Z+lLd8+Yy0NL3RCPUEGHo4M6Ga/Pz8U1VVSEL+TY59cVYQQvOAF4Ro49OnWo0GLJksFlywvyPjZoIifezYsViFgsvmBBJ4PT09uA4sWrSIBRtTY36BUwoFAj6PR+jJaDpbXd1lIVIzUgMS1ZgxYxISEsaPH4/CLBAIEGgoeffv3WtubkabiBgkNxkSXprT5cL9Ca5JRwr59cxZMqmUx6PC3j9IE+CJBIaAgjHaO9rtTidEIIQOcMmSJTk5OdD3o0eP9u7de/HCBSg1JiqarAyDwuPxtmhaDh0+vHbtWgZCVyAUgiAlfB9Ih8CT9HQkw7hY5UhVfHRUFEJM19qKNEFaH5pDu1NaViaTy1+3NKMy+jYYBG4Pmgb3v2/cwG+GSCSaOGmin9l+QJLD0eFb3RYL7s+f5+fDWKQUALni4uIDBw4geVptPXq94V1PhUs6nQ6JWPq6qQmvTDTzKEa3bt0U8viBJIx34Uuh6GydrBAWCiTKJK62qI84N7ZDahg7diyMiNeGJw0d+k744lufQRJKmTp19569SmUs4RBoIrFAGR0DC5CHDhY4icftRnTgq1qtBuWZzQqZljoNzoCcjrI4ffr0eJXq+vXrx48ff9LQgDogFBI5DAtdTtfP6ubikj99s3c3MQIGOM3inByNWi2Thg2PEEBo17cYvgV/xw+UZBRBl8fN5/HH/2pCdHS0Ki5Op9PBV3Ahjo2JYbM5Xo/H3GXmCgS7d3+Tl7eM2AebwAl279lTVlqqUsQiYofNqQ8gR24CcticwWRarVY0Di6vJ1weLhQKWtRqiBTRMSD0U9Prtb//4m9HKsm1RDaDo2UtXDgyIQE9EDn6geg7EtyLqL5er4DHGxEfPyJOxedy4UDhMjk6cXgeVIiLQ0ZGJjkfoNIr8tvqNWuMXWZU0OG59lAgyeEfQY7BCGEyUbFBK1IeDrUxWMy8vLylv/mMnAxQhKCkFStWzJs3T6trJaLjF+XUB5AjVYfdcXKDyTR/wcLizZt9YxTeFCClUllSUhKrVOra2z7Yi/wBp7U7HGqtduasWStXrqRGe/GGEDBjxowtW7bAB9H0UEO/NMAGumlp1SIbr1tXkLVwASXoxQBCCDFQLi0tRTgYjAZE7y9rO+xl7enRtGqTk1OKNpf8dukg/3NFxWd/2Gw2pK/y8nI02lGRkVw2+8MNCCpur9di6ca1MC39kz9u3JjzaTYlG4hBCAFIHrdv396+ffvNmzeloSKUJERvX0c7DCBJdhr0HC5nSe7SvpQzKAYnRAI9ZUVFBS4e9h4bCieaIQQjYUSClz9mhJl9uRFGh//CadDLoqKt+0PB+sICcs5Q8EcIgPnq6+srKysvnD+PtIFix+fykNOQZwFMeMvFsBfJg7gUONAmuTw0b/LHHzNDQnAVpCb5xXsIkQCVxsbG6urq2pqajs5ONFwwH5nomExGf2Uhh7ncLiaThRKGe1JmZmZ2dnZ6evr7m8ZeBESIBA6NeoRrU11d3YMHDxp//NFitcKtBmiJTsflJCdncfLk5Mkpk9H9QamUKDAEQagP0A28HtBoNLApaTsSaKgjIiLQGpMXyKBBo/0fmrxZCfRBip8AAAAASUVORK5CYII=;strokeWidth=2;labelBackgroundColor=none;rounded=0;" parent="-yruJXw2zJWxo76HJyfp-85" vertex="1">
          <mxGeometry width="48" height="45" as="geometry" />
        </mxCell>
        <mxCell id="-yruJXw2zJWxo76HJyfp-88" style="edgeStyle=orthogonalEdgeStyle;rounded=1;orthogonalLoop=1;jettySize=auto;html=1;exitX=1;exitY=0.75;exitDx=0;exitDy=0;entryX=0;entryY=0.25;entryDx=0;entryDy=0;strokeWidth=2;jumpStyle=arc;jumpSize=12;curved=0;" parent="-yruJXw2zJWxo76HJyfp-1" source="-yruJXw2zJWxo76HJyfp-86" target="-yruJXw2zJWxo76HJyfp-89" edge="1">
          <mxGeometry relative="1" as="geometry">
            <Array as="points">
              <mxPoint x="-20" y="330" />
              <mxPoint x="-20" y="390" />
            </Array>
          </mxGeometry>
        </mxCell>
        <mxCell id="-yruJXw2zJWxo76HJyfp-89" value="" style="shape=image;verticalLabelPosition=bottom;verticalAlign=top;imageAspect=0;aspect=fixed;image=data:image/png,iVBORw0KGgoAAAANSUhEUgAAAC4AAAAxCAIAAAAqWwwuAAAAAXNSR0IArs4c6QAAAARnQU1BAACxjwv8YQUAAAAJcEhZcwAADsMAAA7DAcdvqGQAAAlFSURBVFhHvVh7UFNXHoaEJBDkkfAIiASGx7orIAVEEJQuVMAHKELHojj7R3d0/5KBnensbIuzLp1CsR1dXVeowmLFcQXFuhTqulN8MHSUdwHlGUIRBBISFAiPvPdL7m2WRwg3Wv3IDPee8zvnfOf3Or9zLbVarcWrQqFQ0Ol0kVhsy2avW7dOo9EwGAyyz3yYTUUkEj158qS2tranp2d+bo5Gp72YfGFtbW3DZms1Gg6HsyMmJjIy0tfX187OjhxDDVSpqFSqhw8f3r59u6mpSalUYmG2DRsLQytMJkutRr96QT4vFovpdNqkROri4pK8b19ycrK/vz85xVqgRKWmpqakpKSjo8PNzT0wKMjXx9f/V/5cLhe6oOlA12o1mAcUZ2dnx8ZGu552DQwIfhr6SSFf2LNnz4cf/t7Pz4+ca3WsQWVoaOjM6dNVVVXevj4x298NDQvj8/lwCKyqVqvhHKScHpaWluBlZWUFVU3PTAv6BT/8UN/a3AyiWdnZ6enpaCdFjcEUlbq6ury8/PHx8cRdu3bGx/NceVgbrkpFkViVwWCqVMq+vr5vblU2Nzdti4z829mzMBwpsQLGqaCxtLQ0Ly9v469/88EH6QEBAZiaIonF0BNiTE9P379XW1r6Tz9f388LCsLCwsjupTBCBR5YWFiYn58fFRV99NgfXF1d0bLMFmaBiPC2traLhRcsaZb/uHDBKBsjVG7cuJGdlZW8b/+hwxkISLiFucpYCfgQk8ns7e398otTiL3i4uKVjrycCiL2SMaRsPAtH330JwQsjAJnJPteA1gFbFgsFsIw9+RfgjYHXb58eVnioZ88eZJ81Kev48ePc7nO2dl/dHBwgD4QE6DymlrRxTuNBhMD7uvXOzk5ISTl8vmYmJjF+/z/MgjO3Nzc4kuX8gu+CAwMUioVGD83N9fX2yuVSBCmhJh50Gox0InL9fbxsbe3BxU4Mqb9qqjoznfVxSUlCQkJpORiKq2trSn79x/OOJKa9j7aQRfe+v1/714pLaXR6a9uJiyg1YaEhh3Pzob/4hlOI5FIPs39K8fRoezqVVAkBMm9YtWysrINfH5s3Ht0uhWSEt3KampqqrWlZWFhQSGXyxcWXvEnl8tkssFB4cjwMPSBtWB3Ho93IDVtQCisqKggCAAkladPn35z69auxN1I5xqNmmjU70cLlQLIoXjGvHBkisD2fh5Lx5wzMplhWrDBkenpya+srHz58iXRbkX0lZeX8728tm7dCuKYgugDDHZRq9Q4/Hhubjj4iBZT0A2yhDrHx8bgH4YmA7AEwgJneEX59fr6+qSkJDTqqIyOjpZduZJ+KIOjU4nxVDYzM5Ocsu/Tzz6TzZKbMwFLC91h1N7enp2ZOSebJVuXAkS3bNlSfv1fVVX/3rt3L/asM1BnZyfL2jpo82bCrQjRZdBoNba2tnCx9QjHtX7u7u7wBqRpLLBaGoBieDy3gMCgkZHnKC3QoqOCEgTRi/F4Xo0KYKLLKFZTMAHMBjcKDw+XSKSNjQ1oocET79+/7+HhYcO2MT34Fwec19/Pf1IqffzoMV5pk5OTz5494zo5MRlMc/f9mkBSdXB05LnxiCCiwU4atdrNzQ3h+pa1guVwDDk6ciRSCdI6DZWRQql0dHSE5UiRtwUYgW1rCzbIpahEkdN1SZ2mDyUTwDCojXyhBhsbG/JpdWBa6AaRDw5UZ0ecP3/+vKHhsUpJIcUBlpYoJTVqjS6eqXkgVSpIKi3NLTl//mRxLjYBMJhfmEeMYMeGk8Q0aETUQEHE+2qAHaenprq7ugR9/VR+/b29o8MjmByciBmIhZYBvQDJARdMVBA4q2Azw7CVgDTY4BbIsmZR+1kzmExiLM4vlP4o4YhXA7AcqiKAYcXA5DTUVPDHyReTiHJSxBgwDKaBnyPqqAPyANfZeWfCLi8+f5liMOfC/PzsrAxZDXFk5enpCUYT4glQgV2NqhHAvOERESkHUufn58kmCtDiz8LCzs4exz68bdlusRySm1gkfic4GOqwQshFb9/+bHgIe8AYUmoF4IBu7u5xO+Nx7SObKAMpFFZYqXWsPjIyzGKyNgUE4FWXTmJjY1uamialk1CPXsYIdAZSKmWymVkZygTzflDkSh6YEAni0aNHGgsNcS3SUYmIiEDdJxQKMQASesk3DlgHSbanu9tjgwfxtUFHxcfHJzo6Gic1HMKEYn5ZoNjGXQKGS9qbhMBEi44KbJaamtrY8FggEOD1LSgGKoHz3bnzHYNBj4+PJxuJf/HxO339/O7Vfo86D3JE45sDckx3d1dPT09CQqKXlxfRSK7K5TodPXq0ru4hiktQeaOKgQ/g3vBtVZUt2yYjI4NsNVABdu/evW3bthsV5VKpFBeGN8RFHzjM+rq6xoaG1LQ0b29vsmMxFZQsmZmZA4L+69evIR+DO9KdoZjCw8qANBfgAQ/F9azsytchoSHHjh0jO/RY4hZRUVE5OTl3amru3v0PeLBYcHOm7homl4MZ0uVquZgKwAOzTUyIiy9dxP3hxIkTpr4kQBqJD3XJ15dLXVxdN20KQItQMIBc9E5ISPKBA3b6KzgpbQ4IHrgq//3c2Y72H/Pz8+Pi4si+n2HkgwXOhU8+/riy8lZmVlZc3Hui8XGRSOSxYQPqX4rFyjIgDhAyqFzPnz/X3tZ2+syZtLQ0sm8RjFABwOZETs7NmzcPHT4C50IljPv7q/GARnFp7u/ru/hVIXIaeCCHkX1LscRABsC5duzYoVKrYal+QT9ua6glsDNYh7q7IHNiCPFN8Py5cwqF/POCgpSUFLJ7BYxrxYCyq1e/PHUKKv7tu7GxcbG4+2N24pg16jTwCZgDJKCMqempzo7Omupvf2xrxS0wLz9/48aNpJwxrEEFGBwcLCoqqq6uZtuuCwwIDA4Oxu3a3t6BbctG7kH+JsRAAmWbQq5AsTE2NtbU2NDT29Pf18/hOP5OD+yBkFwNa1Mh0NzcfO3aNZzpMzMzuKIjOztxnby8vXBH15dHFkqValAoFIlFUskEasLxsXE+3zMt7f2DBw86Ozvr51gDVKkQwFXywYMH92prB4RCOAGbzeZwORb6UhrqmRCLca1ycXYOCQ1NSEzcHBSEVESOpADzqBggk8lQbQwPDyNV4BVcABQbus9BPB4hYx4sLP4HJ4eB01PlMdUAAAAASUVORK5CYII=;strokeWidth=2;labelBackgroundColor=none;rounded=0;" parent="-yruJXw2zJWxo76HJyfp-1" vertex="1">
          <mxGeometry x="21" y="380" width="36.61" height="39" as="geometry" />
        </mxCell>
        <mxCell id="-yruJXw2zJWxo76HJyfp-91" value="" style="group" parent="-yruJXw2zJWxo76HJyfp-1" vertex="1" connectable="0">
          <mxGeometry x="345" y="85" width="88.67000000000002" height="90" as="geometry" />
        </mxCell>
        <mxCell id="-yruJXw2zJWxo76HJyfp-92" value="&lt;b style=&quot;font-size: 14px;&quot;&gt;FLASH&lt;/b&gt;" style="shape=datastore;whiteSpace=wrap;html=1;rounded=1;strokeWidth=2;fontSize=14;" parent="-yruJXw2zJWxo76HJyfp-91" vertex="1">
          <mxGeometry y="20" width="70" height="70" as="geometry" />
        </mxCell>
        <mxCell id="-yruJXw2zJWxo76HJyfp-93" value="" style="shape=image;verticalLabelPosition=bottom;verticalAlign=top;imageAspect=0;aspect=fixed;image=data:image/png,iVBORw0KGgoAAAANSUhEUgAAADoAAAAtCAIAAABwCu9cAAAAAXNSR0IArs4c6QAAAARnQU1BAACxjwv8YQUAAAAJcEhZcwAADsMAAA7DAcdvqGQAAAqnSURBVFhH1VlpUFRXFga6m61BAVm72URAAjhsQUwiO4iZUUEU45RVmkEcBRW30VS5lE5ljBPHmh8WMQiaigiRRBjjEgQtUfZNkEVl3wmboLQsTW/0fI/7BCSG7gasqfnKst47995zv3fuuWdplKVSqdL/D2ZJt6+vr6mp6ddfO5WVaQmgqalpambG5XAWLlxIi+YbitEtLy+/fft2cXHxy5cvhUKhgYGhuro60aCsrCwQCF709miy2QYGBn5+fkFBQVZWVmThfEEuuiKRKDk5+dq1a91dXQwWC2wsLCy5HK4Jx4TFZEmVxukqKfP5/JaW5vaOjvb2tuGhYSXpmKenZ/j27cuWLSN65g7ZdO+mpX199mxLc4uDg4OLmxv25nJNdXR0GEymSCiculxlHCDNe81ra217XFJc/uQJjzcQtHp1ZGSktbU1PW8OmIlub29vTExMYkKCmaVl8LqQD93ddXR1mQymWCwWCAVwWjiARDKmpAQdb5FmMBhMFkssErW2tj7MzMzOyWIxGUeOfLFhwwaM0vNmhd+lW1ZWdvr06fr6htWrV8M8BoZGErFYIpFkZz1Ku31bRVnFYrHlSi9vGxsbDU22WCwieqbxZrFYWNLQ0HAtKSkvP3f79u0nT57U0NCgZygOxqlTp+jHKSgsLAwPD1dWUQkPjwgMXMVmswWjozBZZ2dHyo8/lhQX9/e96OjoeFpVhRMfGHi1YMECbW1tGJVePw5QB1c8GBkZOTk7w96pqddxYl5eXkwmk8xRFO+gW1RUBK56eosOHDxob28/NibF6UOurq5RWVF+4/p13H1VNTWwec3j9fT0NDU2lhQW1dXVwpsX6uioqqrCSQCiDdOwHB/s6OiopaWVlJSEJbNmPJ0uvO3Pmzfr6ukdPvKFubkFdpJK4Z0U1NRUG+rrHz54oKaujlcQAj8AEY038Kqzs/NpVWVWZibv9Wsw1tLWxhD8gfCGmfG6xNpGS4udlJTY19fv7+8/8Uny4y26IyMjx44da25pAVcrqyWIX1N9ESSam5rycrLxQIvGAU6ggoeR4WHewEBLc/Pj4qLqmmo+f0RbSxvfRi4fVDEYKrZLl0rEkkvxcRwu18nJiWiQH2/RTUhIiLt4MXL3Hjc397ExyVSuAKGbm501jS4BZWx4N5OJgDA8MtLb3f382bPcnOy2tnY1NTVcL1w7MgcxG0eRkZ4Ol0AIp9fLh0m6jY2NUZGRXt4+IetDsSvoEvkEZqY7AVxQcudwOMPDwx3tbaUlJeUV5aOjozo6unBieLCxiUlubs7AwEBgYKBCLjEZBZG02FrawSEhSP0SCXW35gJiSFgUdw2kG2prkxMTf0q+Njg4KBKLbGxtPT29b928WVBQQC+QDzRdnM6V77/39PRCxiJxYL5AjA3Auk9KS8tKS+FjTAbD189vkb5BamrqNJebGTTde/fu4YK7uDjjoBVaLyegE1ZAKCTOCj+xtLR0cnLOy8tFLCJz5AFFF1EG5/KJp9diK6sxhNl5pQuFMASUcs3MPH197B0cIMGO8JPlHsvF4jFYip4qByi6yE9VVVWLFy9G/IcuMjB34LOFAgEUmnA4Xj4+e6L3hYZumDDHuIEXo/7Mzsoi8+UBRbe5uRk6TE1NWaz58QRCFCbkmJp5+/pF7Y0GV8dly6Z6GkZRxZuZmaHSR7wnQpmg6HZ1dcG0hgaG0DWhbnaA8VCkw01x9N5+fjt3794dHQ2iGBpPkJPK8YyQpqen193Tg0KClsoCRRffp6+vr66hIZ2DJ2At7j6qdAtLS9+AgB2RUbv37iN5axpRAsowUqmBoaEWm43ehJbKAkW3uroa2lAS/FapPMCqUT5fIh2ztrFdExyyY1dk5J69rq6uGJmWxqdBJBDhVJGNcby0SBYouvm5uciemppsRekSoqiCrW2XBq/fsGvPnr+ERzi7uCBNwSVka1OmnAfT5K/ZqXmubh/CDKhIFMqHuCvYzNrWNjQsDEQ/Dw+3s7MTiYRwCYU+G3oA+kUWKLrLPTzU1dRgD/npgihikE9AQFT0vq3bPv/A3h4fLJdFpwAFO7Lpy/5+1O+0SBYouhoa6rW1NcjsyJdEKhOwx0JdXT8/f7QJIAqXUIgogbKKUnt7O6IYYigtkgWKroWFRVtra3d3jwK+QBWvDFx5RY9+AvDXkaEhNE5oqtE70VJZoOiipUan1dXViWwpvz+A5eyIEuBrebzXqOURelFV0lJZoOiamJj8wcmpvr5uaHgYWsjA+wYyHLjCQAGBgbRIDlB0QXHjxo0VFRVtLS0T3dV7BXYB0aKiQjVV1aCgIFoqByi6gK+vL39kpKSkWCF/mDXQDjU1NZaVlXp5e3O5XEhiY2PXrl177tw5dKZkDkFlZeXWrVsxhP4ZrzRdY2PjiIiItF9+QQuEjuu9MoZpEUwePXo4NDgYFhZGckRxcfGdO3cuxsai2SbTCCC8evUq/h8aGsIrTReI2LHD0Mjw1q2biCzv1YNhWnSd9+/fX7tunYuLCy1UVUXThWycn59PJADCzt20NDywxn8DwMMkXS6HExUVhc4xO+sRrjwZnnfghvX39yclJWppah44cIB0/MCoQODu7o68mJ+Xh5aTCEEdTOAJixYtQtCE5C1Omz77DK3lt99+A49Bh/VOl5hL8AI53I2UlJTammp04BwOhx5A3hGLURWGbdqE8vDZs2dE+PONG65ubijrwITs+xZdpOKjR4+iZI6Pu9jW1gbtv2U8KVGQN7QhF/584z8/Jf8Ax/vTmjX0wBsIRkcDAgLgirk5OXh98eJFbm6uq4sLTCsUicic6SeOexoTE8NgqPz73L+aqGvHmPAKHIe+gYHlkiXQKxAKUariH6xCRmcAvhCdGewKrpcvxe/ctevQoUO/dTbcPxsbGyTkksePQRonbG5h4bFiBdWDvCnEp68BUKqeP39eLBL+7dBBhMYx6Rg2g3aoMzc3D1gVpKevzzE1dffwMDI2Ji41A1CHYD8ej/fdd5cvX7701507T5w4gfKIHp4ClJLYKGT9eti1rq4uIyMDrowCAfvSM95JFwDjKwkJH3/y8ZmvTl+9cgXrIQRjdByffvrHf5z555dfnQkIXEUSMVkyDbAoTgbbSyTiiorys1+fuZd+9/Dhw8ePH0dkoCdNAzo8odDf3x+mjY+Pz8zMdHR0HP+NZrK8fDddwNbW9sKFC/v378cJfvn3kwgoCNQgp6WthTPCLYEvTuMKioQlzAmiqCdbWpp/SEo8sC8aJdTFuDj4wDvtCsCEBIaGhnAJbA3lKz76iAxNlKYz/ciKWgkbeHp6fhMTEx8Xm5n5YOXKlXYf2JmYcFGUgBD2nuqCMAN8QyCgfj9tam4qKip6WlnJH+XDqFu3bSPZ650AFSpUvbFiaGhoYWFhYGAgYitesRccmoQ82X9KAfBxBQUFqSkp6RkZYLnUDoxNjAyNdfX0NDU1UKpjDuw6ODj46tWrjo4O1C5trS3wnC1btmzevFnmn6ug4fnz5/ABBwcHkEPcRSwDRTguRmtqapA+PDw84Bhy0Z0AUjRslp6ejnoI30B+TKDHqO6AqcpS1WSzfXx8goODnZ2d5S9k5YRidCcAS/T29iI/8fl84g/Qg6IZZzrDoc8ds6T7v4GS0n8B3dGfqNzYSssAAAAASUVORK5CYII=;rounded=1;" parent="-yruJXw2zJWxo76HJyfp-91" vertex="1">
          <mxGeometry x="50" width="38.67" height="30" as="geometry" />
        </mxCell>
        <mxCell id="-yruJXw2zJWxo76HJyfp-94" style="edgeStyle=orthogonalEdgeStyle;rounded=1;orthogonalLoop=1;jettySize=auto;html=1;exitX=1;exitY=0.5;exitDx=0;exitDy=0;strokeWidth=2;" parent="-yruJXw2zJWxo76HJyfp-1" source="-yruJXw2zJWxo76HJyfp-92" target="-yruJXw2zJWxo76HJyfp-9" edge="1">
          <mxGeometry relative="1" as="geometry" />
        </mxCell>
        <mxCell id="-yruJXw2zJWxo76HJyfp-95" value="" style="shape=image;verticalLabelPosition=bottom;verticalAlign=top;imageAspect=0;aspect=fixed;image=data:image/png,iVBORw0KGgoAAAANSUhEUgAAAC4AAAAxCAIAAAAqWwwuAAAAAXNSR0IArs4c6QAAAARnQU1BAACxjwv8YQUAAAAJcEhZcwAADsMAAA7DAcdvqGQAAAlFSURBVFhHvVh7UFNXHoaEJBDkkfAIiASGx7orIAVEEJQuVMAHKELHojj7R3d0/5KBnensbIuzLp1CsR1dXVeowmLFcQXFuhTqulN8MHSUdwHlGUIRBBISFAiPvPdL7m2WRwg3Wv3IDPee8zvnfOf3Or9zLbVarcWrQqFQ0Ol0kVhsy2avW7dOo9EwGAyyz3yYTUUkEj158qS2tranp2d+bo5Gp72YfGFtbW3DZms1Gg6HsyMmJjIy0tfX187OjhxDDVSpqFSqhw8f3r59u6mpSalUYmG2DRsLQytMJkutRr96QT4vFovpdNqkROri4pK8b19ycrK/vz85xVqgRKWmpqakpKSjo8PNzT0wKMjXx9f/V/5cLhe6oOlA12o1mAcUZ2dnx8ZGu552DQwIfhr6SSFf2LNnz4cf/t7Pz4+ca3WsQWVoaOjM6dNVVVXevj4x298NDQvj8/lwCKyqVqvhHKScHpaWluBlZWUFVU3PTAv6BT/8UN/a3AyiWdnZ6enpaCdFjcEUlbq6ury8/PHx8cRdu3bGx/NceVgbrkpFkViVwWCqVMq+vr5vblU2Nzdti4z829mzMBwpsQLGqaCxtLQ0Ly9v469/88EH6QEBAZiaIonF0BNiTE9P379XW1r6Tz9f388LCsLCwsjupTBCBR5YWFiYn58fFRV99NgfXF1d0bLMFmaBiPC2traLhRcsaZb/uHDBKBsjVG7cuJGdlZW8b/+hwxkISLiFucpYCfgQk8ns7e398otTiL3i4uKVjrycCiL2SMaRsPAtH330JwQsjAJnJPteA1gFbFgsFsIw9+RfgjYHXb58eVnioZ88eZJ81Kev48ePc7nO2dl/dHBwgD4QE6DymlrRxTuNBhMD7uvXOzk5ISTl8vmYmJjF+/z/MgjO3Nzc4kuX8gu+CAwMUioVGD83N9fX2yuVSBCmhJh50Gox0InL9fbxsbe3BxU4Mqb9qqjoznfVxSUlCQkJpORiKq2trSn79x/OOJKa9j7aQRfe+v1/714pLaXR6a9uJiyg1YaEhh3Pzob/4hlOI5FIPs39K8fRoezqVVAkBMm9YtWysrINfH5s3Ht0uhWSEt3KampqqrWlZWFhQSGXyxcWXvEnl8tkssFB4cjwMPSBtWB3Ho93IDVtQCisqKggCAAkladPn35z69auxN1I5xqNmmjU70cLlQLIoXjGvHBkisD2fh5Lx5wzMplhWrDBkenpya+srHz58iXRbkX0lZeX8728tm7dCuKYgugDDHZRq9Q4/Hhubjj4iBZT0A2yhDrHx8bgH4YmA7AEwgJneEX59fr6+qSkJDTqqIyOjpZduZJ+KIOjU4nxVDYzM5Ocsu/Tzz6TzZKbMwFLC91h1N7enp2ZOSebJVuXAkS3bNlSfv1fVVX/3rt3L/asM1BnZyfL2jpo82bCrQjRZdBoNba2tnCx9QjHtX7u7u7wBqRpLLBaGoBieDy3gMCgkZHnKC3QoqOCEgTRi/F4Xo0KYKLLKFZTMAHMBjcKDw+XSKSNjQ1oocET79+/7+HhYcO2MT34Fwec19/Pf1IqffzoMV5pk5OTz5494zo5MRlMc/f9mkBSdXB05LnxiCCiwU4atdrNzQ3h+pa1guVwDDk6ciRSCdI6DZWRQql0dHSE5UiRtwUYgW1rCzbIpahEkdN1SZ2mDyUTwDCojXyhBhsbG/JpdWBa6AaRDw5UZ0ecP3/+vKHhsUpJIcUBlpYoJTVqjS6eqXkgVSpIKi3NLTl//mRxLjYBMJhfmEeMYMeGk8Q0aETUQEHE+2qAHaenprq7ugR9/VR+/b29o8MjmByciBmIhZYBvQDJARdMVBA4q2Azw7CVgDTY4BbIsmZR+1kzmExiLM4vlP4o4YhXA7AcqiKAYcXA5DTUVPDHyReTiHJSxBgwDKaBnyPqqAPyANfZeWfCLi8+f5liMOfC/PzsrAxZDXFk5enpCUYT4glQgV2NqhHAvOERESkHUufn58kmCtDiz8LCzs4exz68bdlusRySm1gkfic4GOqwQshFb9/+bHgIe8AYUmoF4IBu7u5xO+Nx7SObKAMpFFZYqXWsPjIyzGKyNgUE4FWXTmJjY1uamialk1CPXsYIdAZSKmWymVkZygTzflDkSh6YEAni0aNHGgsNcS3SUYmIiEDdJxQKMQASesk3DlgHSbanu9tjgwfxtUFHxcfHJzo6Gic1HMKEYn5ZoNjGXQKGS9qbhMBEi44KbJaamtrY8FggEOD1LSgGKoHz3bnzHYNBj4+PJxuJf/HxO339/O7Vfo86D3JE45sDckx3d1dPT09CQqKXlxfRSK7K5TodPXq0ru4hiktQeaOKgQ/g3vBtVZUt2yYjI4NsNVABdu/evW3bthsV5VKpFBeGN8RFHzjM+rq6xoaG1LQ0b29vsmMxFZQsmZmZA4L+69evIR+DO9KdoZjCw8qANBfgAQ/F9azsytchoSHHjh0jO/RY4hZRUVE5OTl3amru3v0PeLBYcHOm7homl4MZ0uVquZgKwAOzTUyIiy9dxP3hxIkTpr4kQBqJD3XJ15dLXVxdN20KQItQMIBc9E5ISPKBA3b6KzgpbQ4IHrgq//3c2Y72H/Pz8+Pi4si+n2HkgwXOhU8+/riy8lZmVlZc3Hui8XGRSOSxYQPqX4rFyjIgDhAyqFzPnz/X3tZ2+syZtLQ0sm8RjFABwOZETs7NmzcPHT4C50IljPv7q/GARnFp7u/ru/hVIXIaeCCHkX1LscRABsC5duzYoVKrYal+QT9ua6glsDNYh7q7IHNiCPFN8Py5cwqF/POCgpSUFLJ7BYxrxYCyq1e/PHUKKv7tu7GxcbG4+2N24pg16jTwCZgDJKCMqempzo7Omupvf2xrxS0wLz9/48aNpJwxrEEFGBwcLCoqqq6uZtuuCwwIDA4Oxu3a3t6BbctG7kH+JsRAAmWbQq5AsTE2NtbU2NDT29Pf18/hOP5OD+yBkFwNa1Mh0NzcfO3aNZzpMzMzuKIjOztxnby8vXBH15dHFkqValAoFIlFUskEasLxsXE+3zMt7f2DBw86Ozvr51gDVKkQwFXywYMH92prB4RCOAGbzeZwORb6UhrqmRCLca1ycXYOCQ1NSEzcHBSEVESOpADzqBggk8lQbQwPDyNV4BVcABQbus9BPB4hYx4sLP4HJ4eB01PlMdUAAAAASUVORK5CYII=;strokeWidth=2;labelBackgroundColor=none;rounded=0;" parent="-yruJXw2zJWxo76HJyfp-1" vertex="1">
          <mxGeometry x="540" y="175" width="36.61" height="39" as="geometry" />
        </mxCell>
        <mxCell id="Q5R7GPB3n-8ZME9_oS4--5" style="edgeStyle=orthogonalEdgeStyle;orthogonalLoop=1;jettySize=auto;html=1;exitX=0.5;exitY=0;exitDx=0;exitDy=0;entryX=0;entryY=0.5;entryDx=0;entryDy=0;strokeWidth=2;jumpStyle=arc;jumpSize=12;" parent="-yruJXw2zJWxo76HJyfp-1" source="-yruJXw2zJWxo76HJyfp-31" target="-yruJXw2zJWxo76HJyfp-10" edge="1">
          <mxGeometry relative="1" as="geometry">
            <mxPoint x="-51.2" y="-110" as="sourcePoint" />
            <mxPoint x="127.8" y="-270" as="targetPoint" />
          </mxGeometry>
        </mxCell>
        <mxCell id="Q5R7GPB3n-8ZME9_oS4--6" style="edgeStyle=orthogonalEdgeStyle;rounded=0;orthogonalLoop=1;jettySize=auto;html=1;exitX=1;exitY=0.5;exitDx=0;exitDy=0;strokeWidth=2;" parent="-yruJXw2zJWxo76HJyfp-1" source="-yruJXw2zJWxo76HJyfp-31" target="-yruJXw2zJWxo76HJyfp-6" edge="1">
          <mxGeometry relative="1" as="geometry" />
        </mxCell>
        <mxCell id="yV9tmQ6JDc8qB_xp8zDq-1" value="" style="shape=image;verticalLabelPosition=bottom;verticalAlign=top;imageAspect=0;aspect=fixed;image=data:image/png,iVBORw0KGgoAAAANSUhEUgAAAC4AAAAxCAIAAAAqWwwuAAAAAXNSR0IArs4c6QAAAARnQU1BAACxjwv8YQUAAAAJcEhZcwAADsMAAA7DAcdvqGQAAAlFSURBVFhHvVh7UFNXHoaEJBDkkfAIiASGx7orIAVEEJQuVMAHKELHojj7R3d0/5KBnensbIuzLp1CsR1dXVeowmLFcQXFuhTqulN8MHSUdwHlGUIRBBISFAiPvPdL7m2WRwg3Wv3IDPee8zvnfOf3Or9zLbVarcWrQqFQ0Ol0kVhsy2avW7dOo9EwGAyyz3yYTUUkEj158qS2tranp2d+bo5Gp72YfGFtbW3DZms1Gg6HsyMmJjIy0tfX187OjhxDDVSpqFSqhw8f3r59u6mpSalUYmG2DRsLQytMJkutRr96QT4vFovpdNqkROri4pK8b19ycrK/vz85xVqgRKWmpqakpKSjo8PNzT0wKMjXx9f/V/5cLhe6oOlA12o1mAcUZ2dnx8ZGu552DQwIfhr6SSFf2LNnz4cf/t7Pz4+ca3WsQWVoaOjM6dNVVVXevj4x298NDQvj8/lwCKyqVqvhHKScHpaWluBlZWUFVU3PTAv6BT/8UN/a3AyiWdnZ6enpaCdFjcEUlbq6ury8/PHx8cRdu3bGx/NceVgbrkpFkViVwWCqVMq+vr5vblU2Nzdti4z829mzMBwpsQLGqaCxtLQ0Ly9v469/88EH6QEBAZiaIonF0BNiTE9P379XW1r6Tz9f388LCsLCwsjupTBCBR5YWFiYn58fFRV99NgfXF1d0bLMFmaBiPC2traLhRcsaZb/uHDBKBsjVG7cuJGdlZW8b/+hwxkISLiFucpYCfgQk8ns7e398otTiL3i4uKVjrycCiL2SMaRsPAtH330JwQsjAJnJPteA1gFbFgsFsIw9+RfgjYHXb58eVnioZ88eZJ81Kev48ePc7nO2dl/dHBwgD4QE6DymlrRxTuNBhMD7uvXOzk5ISTl8vmYmJjF+/z/MgjO3Nzc4kuX8gu+CAwMUioVGD83N9fX2yuVSBCmhJh50Gox0InL9fbxsbe3BxU4Mqb9qqjoznfVxSUlCQkJpORiKq2trSn79x/OOJKa9j7aQRfe+v1/714pLaXR6a9uJiyg1YaEhh3Pzob/4hlOI5FIPs39K8fRoezqVVAkBMm9YtWysrINfH5s3Ht0uhWSEt3KampqqrWlZWFhQSGXyxcWXvEnl8tkssFB4cjwMPSBtWB3Ho93IDVtQCisqKggCAAkladPn35z69auxN1I5xqNmmjU70cLlQLIoXjGvHBkisD2fh5Lx5wzMplhWrDBkenpya+srHz58iXRbkX0lZeX8728tm7dCuKYgugDDHZRq9Q4/Hhubjj4iBZT0A2yhDrHx8bgH4YmA7AEwgJneEX59fr6+qSkJDTqqIyOjpZduZJ+KIOjU4nxVDYzM5Ocsu/Tzz6TzZKbMwFLC91h1N7enp2ZOSebJVuXAkS3bNlSfv1fVVX/3rt3L/asM1BnZyfL2jpo82bCrQjRZdBoNba2tnCx9QjHtX7u7u7wBqRpLLBaGoBieDy3gMCgkZHnKC3QoqOCEgTRi/F4Xo0KYKLLKFZTMAHMBjcKDw+XSKSNjQ1oocET79+/7+HhYcO2MT34Fwec19/Pf1IqffzoMV5pk5OTz5494zo5MRlMc/f9mkBSdXB05LnxiCCiwU4atdrNzQ3h+pa1guVwDDk6ciRSCdI6DZWRQql0dHSE5UiRtwUYgW1rCzbIpahEkdN1SZ2mDyUTwDCojXyhBhsbG/JpdWBa6AaRDw5UZ0ecP3/+vKHhsUpJIcUBlpYoJTVqjS6eqXkgVSpIKi3NLTl//mRxLjYBMJhfmEeMYMeGk8Q0aETUQEHE+2qAHaenprq7ugR9/VR+/b29o8MjmByciBmIhZYBvQDJARdMVBA4q2Azw7CVgDTY4BbIsmZR+1kzmExiLM4vlP4o4YhXA7AcqiKAYcXA5DTUVPDHyReTiHJSxBgwDKaBnyPqqAPyANfZeWfCLi8+f5liMOfC/PzsrAxZDXFk5enpCUYT4glQgV2NqhHAvOERESkHUufn58kmCtDiz8LCzs4exz68bdlusRySm1gkfic4GOqwQshFb9/+bHgIe8AYUmoF4IBu7u5xO+Nx7SObKAMpFFZYqXWsPjIyzGKyNgUE4FWXTmJjY1uamialk1CPXsYIdAZSKmWymVkZygTzflDkSh6YEAni0aNHGgsNcS3SUYmIiEDdJxQKMQASesk3DlgHSbanu9tjgwfxtUFHxcfHJzo6Gic1HMKEYn5ZoNjGXQKGS9qbhMBEi44KbJaamtrY8FggEOD1LSgGKoHz3bnzHYNBj4+PJxuJf/HxO339/O7Vfo86D3JE45sDckx3d1dPT09CQqKXlxfRSK7K5TodPXq0ru4hiktQeaOKgQ/g3vBtVZUt2yYjI4NsNVABdu/evW3bthsV5VKpFBeGN8RFHzjM+rq6xoaG1LQ0b29vsmMxFZQsmZmZA4L+69evIR+DO9KdoZjCw8qANBfgAQ/F9azsytchoSHHjh0jO/RY4hZRUVE5OTl3amru3v0PeLBYcHOm7homl4MZ0uVquZgKwAOzTUyIiy9dxP3hxIkTpr4kQBqJD3XJ15dLXVxdN20KQItQMIBc9E5ISPKBA3b6KzgpbQ4IHrgq//3c2Y72H/Pz8+Pi4si+n2HkgwXOhU8+/riy8lZmVlZc3Hui8XGRSOSxYQPqX4rFyjIgDhAyqFzPnz/X3tZ2+syZtLQ0sm8RjFABwOZETs7NmzcPHT4C50IljPv7q/GARnFp7u/ru/hVIXIaeCCHkX1LscRABsC5duzYoVKrYal+QT9ua6glsDNYh7q7IHNiCPFN8Py5cwqF/POCgpSUFLJ7BYxrxYCyq1e/PHUKKv7tu7GxcbG4+2N24pg16jTwCZgDJKCMqempzo7Omupvf2xrxS0wLz9/48aNpJwxrEEFGBwcLCoqqq6uZtuuCwwIDA4Oxu3a3t6BbctG7kH+JsRAAmWbQq5AsTE2NtbU2NDT29Pf18/hOP5OD+yBkFwNa1Mh0NzcfO3aNZzpMzMzuKIjOztxnby8vXBH15dHFkqValAoFIlFUskEasLxsXE+3zMt7f2DBw86Ozvr51gDVKkQwFXywYMH92prB4RCOAGbzeZwORb6UhrqmRCLca1ycXYOCQ1NSEzcHBSEVESOpADzqBggk8lQbQwPDyNV4BVcABQbus9BPB4hYx4sLP4HJ4eB01PlMdUAAAAASUVORK5CYII=;strokeWidth=2;labelBackgroundColor=none;rounded=0;" parent="-yruJXw2zJWxo76HJyfp-1" vertex="1">
          <mxGeometry x="112" y="179.5" width="36.61" height="39" as="geometry" />
        </mxCell>
        <mxCell id="yV9tmQ6JDc8qB_xp8zDq-4" style="edgeStyle=orthogonalEdgeStyle;rounded=1;orthogonalLoop=1;jettySize=auto;html=1;exitX=1;exitY=0.5;exitDx=0;exitDy=0;entryX=0;entryY=0.75;entryDx=0;entryDy=0;strokeWidth=2;curved=0;" parent="-yruJXw2zJWxo76HJyfp-1" source="-yruJXw2zJWxo76HJyfp-37" target="-yruJXw2zJWxo76HJyfp-89" edge="1">
          <mxGeometry relative="1" as="geometry">
            <Array as="points">
              <mxPoint x="-20" y="460" />
              <mxPoint x="-20" y="409" />
            </Array>
          </mxGeometry>
        </mxCell>
        <mxCell id="NyN_s7aewr1zXNRIvJxT-5" style="edgeStyle=orthogonalEdgeStyle;rounded=0;orthogonalLoop=1;jettySize=auto;html=1;exitX=0;exitY=0.5;exitDx=0;exitDy=0;entryX=1;entryY=0.75;entryDx=0;entryDy=0;strokeWidth=2;" parent="-yruJXw2zJWxo76HJyfp-1" source="NyN_s7aewr1zXNRIvJxT-4" target="-yruJXw2zJWxo76HJyfp-6" edge="1">
          <mxGeometry relative="1" as="geometry" />
        </mxCell>
        <mxCell id="NyN_s7aewr1zXNRIvJxT-4" value="" style="shape=image;verticalLabelPosition=bottom;verticalAlign=top;imageAspect=0;aspect=fixed;image=data:image/png,iVBORw0KGgoAAAANSUhEUgAAACcAAAAkCAIAAACFVbTMAAAAAXNSR0IArs4c6QAAAARnQU1BAACxjwv8YQUAAAAJcEhZcwAADsMAAA7DAcdvqGQAAAYqSURBVFhHvZd7SNRZFMdHTV3Jx5huKm0+cpLyldoKOT5Gsn+i1bYXlGW7FfhHUISV5ZvAFlw0khAsyHwQ2NMSXFldI9dnZZoWbvlIndQc02YstPK53/mdO+P4c6aZDdkPvz9+95xz77mPc8+912hubk7wv2Oo1+npaZlM1tvX19vTIxsaEhgZQYi6y5Ytc3BwcHNzc3Z2dnJyImO96Pf69u3bJ0+eNDQ0dLx69fTp0z6plCk0EIlE/v7+Pj4+Af7+IaGhNjY2TKELeNXFyMhITk7Orl277OzsmLU+bIXCw4cPl9y9Oz4+zlrRhs6x1tbWXrlypaioiJUFAnd3d19fX7sVSl739DQ2Nkbv2zc9M6OQy0dGR/9pb+/s6iJLezu7n3fsiI2NDQwMJAkfcq4JlvDSpUuYLmYhEAQFBcXHx1dUVGD0ZIM+hUsk9D87Ozskk1VWViYlJQWJxayOQIA5LysrIxsefK9w+dv582ZmZlRz/fr1Z8+eff78OVOrQHPBYjEraADLtLQ0e3t7qo4ou3PnDtNpwPeakZFhYWFBdaIiI2tqakj+4sWL/Pz8L1++ULGkpMTby4v+F3Pv3j1MDzWyZs0aOMZ8MB3HAq9QC4VCst6zZ88bqZTk79+/3717N0aA5kgilUrv379P/1p59uxZWFgYNYURYxcwBce8166urpCQELLbu3fv4OAgU8zNff78OSEhAfJNmzaNKRRMqo+WlhaJyvHOnTvfvXvHFJpe4+LiaDklEklHRweTqhgYGEB8GRsZZV+8yEQGUF9f7+LsjDaRTAoLC2dmZkjOvKJfnp6eUFtbW9++fZuEPPKuXoWBl6dnf38/ExnA7xkZQi5pREREIOGQkHk9c+YMDfTAgQOjo6Mk5IFts3XrVmRCGDORCgRXbm4uKywEMeHr7Y2Wzc3M1GGh9ArFT9u2QQEKCgpIoZU/yspgg7DU3EuXL19GKl69evWfFRVMtJCsrCwba2tUPBkX9+nTJ0iUXpubm3/cuBHS8PDwzs5OzlI7Hz9+RMKD5fHjx0mCIVpZWUFy9OhRHA8k5IEuitzdYeOwciWtjtLrzZs3UYY0/vRpZAnOUifYAz+sWuXm6opkhJW2tLRExWPHjsnlcmaxiMnJST8/P5ghGOvr6iBRek1JTjbiTq5z586hshqtPUCigBmMESPLly9fYWubmZmJOWBqFcj+rBW5XKFQ+G3YgCpY2uqHD6FVesUQqSNOjo4IUXxIhODly5dcC3za2toQ8OgojgFk7KmpKabQIDExES1Qa/jQOdjD69/V1dDOewUpKSmYd/CGAzPDtcAHw0UoXL9+HTlS14ogQtECtQaUycDU1MTYeN5rclISzfCFCxe4KobCy65fAVkPDtQzbAxn3j4+33OnxODAAJKfctSGQX3Vy8TExIcPH3CMY2KQpCBRel27di12G36aW1qQ+ZSGS0pvb+/E+Dh+EAfOLi74UXp1dXV15C5aDx48wP0IP0vLX5WVyGv42b9/P12GlF7RBUStqakp/rELEej4WSrGxsby8vIUY2OIpjCJhB3etNq4/CHQUcT17tatWyRcErIyM+nM3rJlCz/7gxMnTtBwxWKxrp36X3n06BGyGNo0MTEpLi5Wx/y8V5ypwcHBsAAxMTFDQ0NM8a0g/W7evJkajIqK0szS814BTlacr2QXHR3d19fHFIvAxi8vL2cFbbS2tkaoXOJK+/jxY6bgWOAVpKenf2duTtaRkZEIaaZYCE5KH29vVlhEaWmpetpcXFzUx6oavlckVVwt1S8W3FpQbG9vZ2oVum6mTU1NaampOG6pOh4/N4qLmU4DvleA9Isc68VdAIjQ0NDU1NSqqir12tTW1alv4UjLyC1YnZOnTgUEBLA6AgHuiItHSeh8cVRXV1+7dg1XC1ZGChOJ0BWcS9jp3d3dcPzLwYOTU1PDw8OjIyNYC7w7yBKvnV8PHcKLY926dSThQ861gqMxOzt7+/bttra2zFofyOdHjhzBrH7j60oNwhUPqYb6ejyeWpqb+7Ulag8PD38/P3eRCBdmXIPoTvMVDH01Y7Gxg1+D7m7Z8DAJUdfc3Byxg72BC76joyPJ9WKo16VEIPgXzCHJehm8N40AAAAASUVORK5CYII=;" parent="-yruJXw2zJWxo76HJyfp-1" vertex="1">
          <mxGeometry x="200" y="152" width="39" height="36" as="geometry" />
        </mxCell>
        <mxCell id="NyN_s7aewr1zXNRIvJxT-6" value="60 s" style="text;html=1;align=center;verticalAlign=middle;resizable=0;points=[];autosize=1;strokeColor=none;fillColor=none;fontStyle=1" parent="-yruJXw2zJWxo76HJyfp-1" vertex="1">
          <mxGeometry x="194" y="184" width="50" height="30" as="geometry" />
        </mxCell>
        <mxCell id="T9xS-H06mtn6zdaZTE3--0" value="" style="shape=image;verticalLabelPosition=bottom;verticalAlign=top;imageAspect=0;aspect=fixed;image=data:image/png,iVBORw0KGgoAAAANSUhEUgAAAC4AAAAxCAIAAAAqWwwuAAAAAXNSR0IArs4c6QAAAARnQU1BAACxjwv8YQUAAAAJcEhZcwAADsMAAA7DAcdvqGQAAAlFSURBVFhHvVh7UFNXHoaEJBDkkfAIiASGx7orIAVEEJQuVMAHKELHojj7R3d0/5KBnensbIuzLp1CsR1dXVeowmLFcQXFuhTqulN8MHSUdwHlGUIRBBISFAiPvPdL7m2WRwg3Wv3IDPee8zvnfOf3Or9zLbVarcWrQqFQ0Ol0kVhsy2avW7dOo9EwGAyyz3yYTUUkEj158qS2tranp2d+bo5Gp72YfGFtbW3DZms1Gg6HsyMmJjIy0tfX187OjhxDDVSpqFSqhw8f3r59u6mpSalUYmG2DRsLQytMJkutRr96QT4vFovpdNqkROri4pK8b19ycrK/vz85xVqgRKWmpqakpKSjo8PNzT0wKMjXx9f/V/5cLhe6oOlA12o1mAcUZ2dnx8ZGu552DQwIfhr6SSFf2LNnz4cf/t7Pz4+ca3WsQWVoaOjM6dNVVVXevj4x298NDQvj8/lwCKyqVqvhHKScHpaWluBlZWUFVU3PTAv6BT/8UN/a3AyiWdnZ6enpaCdFjcEUlbq6ury8/PHx8cRdu3bGx/NceVgbrkpFkViVwWCqVMq+vr5vblU2Nzdti4z829mzMBwpsQLGqaCxtLQ0Ly9v469/88EH6QEBAZiaIonF0BNiTE9P379XW1r6Tz9f388LCsLCwsjupTBCBR5YWFiYn58fFRV99NgfXF1d0bLMFmaBiPC2traLhRcsaZb/uHDBKBsjVG7cuJGdlZW8b/+hwxkISLiFucpYCfgQk8ns7e398otTiL3i4uKVjrycCiL2SMaRsPAtH330JwQsjAJnJPteA1gFbFgsFsIw9+RfgjYHXb58eVnioZ88eZJ81Kev48ePc7nO2dl/dHBwgD4QE6DymlrRxTuNBhMD7uvXOzk5ISTl8vmYmJjF+/z/MgjO3Nzc4kuX8gu+CAwMUioVGD83N9fX2yuVSBCmhJh50Gox0InL9fbxsbe3BxU4Mqb9qqjoznfVxSUlCQkJpORiKq2trSn79x/OOJKa9j7aQRfe+v1/714pLaXR6a9uJiyg1YaEhh3Pzob/4hlOI5FIPs39K8fRoezqVVAkBMm9YtWysrINfH5s3Ht0uhWSEt3KampqqrWlZWFhQSGXyxcWXvEnl8tkssFB4cjwMPSBtWB3Ho93IDVtQCisqKggCAAkladPn35z69auxN1I5xqNmmjU70cLlQLIoXjGvHBkisD2fh5Lx5wzMplhWrDBkenpya+srHz58iXRbkX0lZeX8728tm7dCuKYgugDDHZRq9Q4/Hhubjj4iBZT0A2yhDrHx8bgH4YmA7AEwgJneEX59fr6+qSkJDTqqIyOjpZduZJ+KIOjU4nxVDYzM5Ocsu/Tzz6TzZKbMwFLC91h1N7enp2ZOSebJVuXAkS3bNlSfv1fVVX/3rt3L/asM1BnZyfL2jpo82bCrQjRZdBoNba2tnCx9QjHtX7u7u7wBqRpLLBaGoBieDy3gMCgkZHnKC3QoqOCEgTRi/F4Xo0KYKLLKFZTMAHMBjcKDw+XSKSNjQ1oocET79+/7+HhYcO2MT34Fwec19/Pf1IqffzoMV5pk5OTz5494zo5MRlMc/f9mkBSdXB05LnxiCCiwU4atdrNzQ3h+pa1guVwDDk6ciRSCdI6DZWRQql0dHSE5UiRtwUYgW1rCzbIpahEkdN1SZ2mDyUTwDCojXyhBhsbG/JpdWBa6AaRDw5UZ0ecP3/+vKHhsUpJIcUBlpYoJTVqjS6eqXkgVSpIKi3NLTl//mRxLjYBMJhfmEeMYMeGk8Q0aETUQEHE+2qAHaenprq7ugR9/VR+/b29o8MjmByciBmIhZYBvQDJARdMVBA4q2Azw7CVgDTY4BbIsmZR+1kzmExiLM4vlP4o4YhXA7AcqiKAYcXA5DTUVPDHyReTiHJSxBgwDKaBnyPqqAPyANfZeWfCLi8+f5liMOfC/PzsrAxZDXFk5enpCUYT4glQgV2NqhHAvOERESkHUufn58kmCtDiz8LCzs4exz68bdlusRySm1gkfic4GOqwQshFb9/+bHgIe8AYUmoF4IBu7u5xO+Nx7SObKAMpFFZYqXWsPjIyzGKyNgUE4FWXTmJjY1uamialk1CPXsYIdAZSKmWymVkZygTzflDkSh6YEAni0aNHGgsNcS3SUYmIiEDdJxQKMQASesk3DlgHSbanu9tjgwfxtUFHxcfHJzo6Gic1HMKEYn5ZoNjGXQKGS9qbhMBEi44KbJaamtrY8FggEOD1LSgGKoHz3bnzHYNBj4+PJxuJf/HxO339/O7Vfo86D3JE45sDckx3d1dPT09CQqKXlxfRSK7K5TodPXq0ru4hiktQeaOKgQ/g3vBtVZUt2yYjI4NsNVABdu/evW3bthsV5VKpFBeGN8RFHzjM+rq6xoaG1LQ0b29vsmMxFZQsmZmZA4L+69evIR+DO9KdoZjCw8qANBfgAQ/F9azsytchoSHHjh0jO/RY4hZRUVE5OTl3amru3v0PeLBYcHOm7homl4MZ0uVquZgKwAOzTUyIiy9dxP3hxIkTpr4kQBqJD3XJ15dLXVxdN20KQItQMIBc9E5ISPKBA3b6KzgpbQ4IHrgq//3c2Y72H/Pz8+Pi4si+n2HkgwXOhU8+/riy8lZmVlZc3Hui8XGRSOSxYQPqX4rFyjIgDhAyqFzPnz/X3tZ2+syZtLQ0sm8RjFABwOZETs7NmzcPHT4C50IljPv7q/GARnFp7u/ru/hVIXIaeCCHkX1LscRABsC5duzYoVKrYal+QT9ua6glsDNYh7q7IHNiCPFN8Py5cwqF/POCgpSUFLJ7BYxrxYCyq1e/PHUKKv7tu7GxcbG4+2N24pg16jTwCZgDJKCMqempzo7Omupvf2xrxS0wLz9/48aNpJwxrEEFGBwcLCoqqq6uZtuuCwwIDA4Oxu3a3t6BbctG7kH+JsRAAmWbQq5AsTE2NtbU2NDT29Pf18/hOP5OD+yBkFwNa1Mh0NzcfO3aNZzpMzMzuKIjOztxnby8vXBH15dHFkqValAoFIlFUskEasLxsXE+3zMt7f2DBw86Ozvr51gDVKkQwFXywYMH92prB4RCOAGbzeZwORb6UhrqmRCLca1ycXYOCQ1NSEzcHBSEVESOpADzqBggk8lQbQwPDyNV4BVcABQbus9BPB4hYx4sLP4HJ4eB01PlMdUAAAAASUVORK5CYII=;strokeWidth=2;labelBackgroundColor=none;rounded=0;" vertex="1" parent="-yruJXw2zJWxo76HJyfp-1">
          <mxGeometry x="420" y="-60" width="36.61" height="39" as="geometry" />
        </mxCell>
        <mxCell id="T9xS-H06mtn6zdaZTE3--1" style="edgeStyle=orthogonalEdgeStyle;rounded=1;orthogonalLoop=1;jettySize=auto;html=1;exitX=1;exitY=0.75;exitDx=0;exitDy=0;entryX=0.5;entryY=0;entryDx=0;entryDy=0;strokeWidth=2;curved=0;" edge="1" parent="-yruJXw2zJWxo76HJyfp-1" source="-yruJXw2zJWxo76HJyfp-45" target="-yruJXw2zJWxo76HJyfp-89">
          <mxGeometry relative="1" as="geometry">
            <Array as="points">
              <mxPoint x="-200" y="170" />
              <mxPoint x="-200" y="280" />
              <mxPoint x="39" y="280" />
            </Array>
          </mxGeometry>
        </mxCell>
        <mxCell id="-yruJXw2zJWxo76HJyfp-32" value="" style="shape=image;verticalLabelPosition=bottom;verticalAlign=top;imageAspect=0;aspect=fixed;image=data:image/png,iVBORw0KGgoAAAANSUhEUgAAADoAAAAtCAIAAABwCu9cAAAAAXNSR0IArs4c6QAAAARnQU1BAACxjwv8YQUAAAAJcEhZcwAADsMAAA7DAcdvqGQAAAqnSURBVFhH1VlpUFRXFga6m61BAVm72URAAjhsQUwiO4iZUUEU45RVmkEcBRW30VS5lE5ljBPHmh8WMQiaigiRRBjjEgQtUfZNkEVl3wmboLQsTW/0fI/7BCSG7gasqfnKst47995zv3fuuWdplKVSqdL/D2ZJt6+vr6mp6ddfO5WVaQmgqalpambG5XAWLlxIi+YbitEtLy+/fft2cXHxy5cvhUKhgYGhuro60aCsrCwQCF709miy2QYGBn5+fkFBQVZWVmThfEEuuiKRKDk5+dq1a91dXQwWC2wsLCy5HK4Jx4TFZEmVxukqKfP5/JaW5vaOjvb2tuGhYSXpmKenZ/j27cuWLSN65g7ZdO+mpX199mxLc4uDg4OLmxv25nJNdXR0GEymSCiculxlHCDNe81ra217XFJc/uQJjzcQtHp1ZGSktbU1PW8OmIlub29vTExMYkKCmaVl8LqQD93ddXR1mQymWCwWCAVwWjiARDKmpAQdb5FmMBhMFkssErW2tj7MzMzOyWIxGUeOfLFhwwaM0vNmhd+lW1ZWdvr06fr6htWrV8M8BoZGErFYIpFkZz1Ku31bRVnFYrHlSi9vGxsbDU22WCwieqbxZrFYWNLQ0HAtKSkvP3f79u0nT57U0NCgZygOxqlTp+jHKSgsLAwPD1dWUQkPjwgMXMVmswWjozBZZ2dHyo8/lhQX9/e96OjoeFpVhRMfGHi1YMECbW1tGJVePw5QB1c8GBkZOTk7w96pqddxYl5eXkwmk8xRFO+gW1RUBK56eosOHDxob28/NibF6UOurq5RWVF+4/p13H1VNTWwec3j9fT0NDU2lhQW1dXVwpsX6uioqqrCSQCiDdOwHB/s6OiopaWVlJSEJbNmPJ0uvO3Pmzfr6ukdPvKFubkFdpJK4Z0U1NRUG+rrHz54oKaujlcQAj8AEY038Kqzs/NpVWVWZibv9Wsw1tLWxhD8gfCGmfG6xNpGS4udlJTY19fv7+8/8Uny4y26IyMjx44da25pAVcrqyWIX1N9ESSam5rycrLxQIvGAU6ggoeR4WHewEBLc/Pj4qLqmmo+f0RbSxvfRi4fVDEYKrZLl0rEkkvxcRwu18nJiWiQH2/RTUhIiLt4MXL3Hjc397ExyVSuAKGbm501jS4BZWx4N5OJgDA8MtLb3f382bPcnOy2tnY1NTVcL1w7MgcxG0eRkZ4Ol0AIp9fLh0m6jY2NUZGRXt4+IetDsSvoEvkEZqY7AVxQcudwOMPDwx3tbaUlJeUV5aOjozo6unBieLCxiUlubs7AwEBgYKBCLjEZBZG02FrawSEhSP0SCXW35gJiSFgUdw2kG2prkxMTf0q+Njg4KBKLbGxtPT29b928WVBQQC+QDzRdnM6V77/39PRCxiJxYL5AjA3Auk9KS8tKS+FjTAbD189vkb5BamrqNJebGTTde/fu4YK7uDjjoBVaLyegE1ZAKCTOCj+xtLR0cnLOy8tFLCJz5AFFF1EG5/KJp9diK6sxhNl5pQuFMASUcs3MPH197B0cIMGO8JPlHsvF4jFYip4qByi6yE9VVVWLFy9G/IcuMjB34LOFAgEUmnA4Xj4+e6L3hYZumDDHuIEXo/7Mzsoi8+UBRbe5uRk6TE1NWaz58QRCFCbkmJp5+/pF7Y0GV8dly6Z6GkZRxZuZmaHSR7wnQpmg6HZ1dcG0hgaG0DWhbnaA8VCkw01x9N5+fjt3794dHQ2iGBpPkJPK8YyQpqen193Tg0KClsoCRRffp6+vr66hIZ2DJ2At7j6qdAtLS9+AgB2RUbv37iN5axpRAsowUqmBoaEWm43ehJbKAkW3uroa2lAS/FapPMCqUT5fIh2ztrFdExyyY1dk5J69rq6uGJmWxqdBJBDhVJGNcby0SBYouvm5uciemppsRekSoqiCrW2XBq/fsGvPnr+ERzi7uCBNwSVka1OmnAfT5K/ZqXmubh/CDKhIFMqHuCvYzNrWNjQsDEQ/Dw+3s7MTiYRwCYU+G3oA+kUWKLrLPTzU1dRgD/npgihikE9AQFT0vq3bPv/A3h4fLJdFpwAFO7Lpy/5+1O+0SBYouhoa6rW1NcjsyJdEKhOwx0JdXT8/f7QJIAqXUIgogbKKUnt7O6IYYigtkgWKroWFRVtra3d3jwK+QBWvDFx5RY9+AvDXkaEhNE5oqtE70VJZoOiipUan1dXViWwpvz+A5eyIEuBrebzXqOURelFV0lJZoOiamJj8wcmpvr5uaHgYWsjA+wYyHLjCQAGBgbRIDlB0QXHjxo0VFRVtLS0T3dV7BXYB0aKiQjVV1aCgIFoqByi6gK+vL39kpKSkWCF/mDXQDjU1NZaVlXp5e3O5XEhiY2PXrl177tw5dKZkDkFlZeXWrVsxhP4ZrzRdY2PjiIiItF9+QQuEjuu9MoZpEUwePXo4NDgYFhZGckRxcfGdO3cuxsai2SbTCCC8evUq/h8aGsIrTReI2LHD0Mjw1q2biCzv1YNhWnSd9+/fX7tunYuLCy1UVUXThWycn59PJADCzt20NDywxn8DwMMkXS6HExUVhc4xO+sRrjwZnnfghvX39yclJWppah44cIB0/MCoQODu7o68mJ+Xh5aTCEEdTOAJixYtQtCE5C1Omz77DK3lt99+A49Bh/VOl5hL8AI53I2UlJTammp04BwOhx5A3hGLURWGbdqE8vDZs2dE+PONG65ubijrwITs+xZdpOKjR4+iZI6Pu9jW1gbtv2U8KVGQN7QhF/584z8/Jf8Ax/vTmjX0wBsIRkcDAgLgirk5OXh98eJFbm6uq4sLTCsUicic6SeOexoTE8NgqPz73L+aqGvHmPAKHIe+gYHlkiXQKxAKUariH6xCRmcAvhCdGewKrpcvxe/ctevQoUO/dTbcPxsbGyTkksePQRonbG5h4bFiBdWDvCnEp68BUKqeP39eLBL+7dBBhMYx6Rg2g3aoMzc3D1gVpKevzzE1dffwMDI2Ji41A1CHYD8ej/fdd5cvX7701507T5w4gfKIHp4ClJLYKGT9eti1rq4uIyMDrowCAfvSM95JFwDjKwkJH3/y8ZmvTl+9cgXrIQRjdByffvrHf5z555dfnQkIXEUSMVkyDbAoTgbbSyTiiorys1+fuZd+9/Dhw8ePH0dkoCdNAzo8odDf3x+mjY+Pz8zMdHR0HP+NZrK8fDddwNbW9sKFC/v378cJfvn3kwgoCNQgp6WthTPCLYEvTuMKioQlzAmiqCdbWpp/SEo8sC8aJdTFuDj4wDvtCsCEBIaGhnAJbA3lKz76iAxNlKYz/ciKWgkbeHp6fhMTEx8Xm5n5YOXKlXYf2JmYcFGUgBD2nuqCMAN8QyCgfj9tam4qKip6WlnJH+XDqFu3bSPZ650AFSpUvbFiaGhoYWFhYGAgYitesRccmoQ82X9KAfBxBQUFqSkp6RkZYLnUDoxNjAyNdfX0NDU1UKpjDuw6ODj46tWrjo4O1C5trS3wnC1btmzevFnmn6ug4fnz5/ABBwcHkEPcRSwDRTguRmtqapA+PDw84Bhy0Z0AUjRslp6ejnoI30B+TKDHqO6AqcpS1WSzfXx8goODnZ2d5S9k5YRidCcAS/T29iI/8fl84g/Qg6IZZzrDoc8ds6T7v4GS0n8B3dGfqNzYSssAAAAASUVORK5CYII=;rounded=0;" parent="-yruJXw2zJWxo76HJyfp-1" vertex="1">
          <mxGeometry x="-117" y="94" width="38" height="29.48" as="geometry" />
        </mxCell>
        <mxCell id="T9xS-H06mtn6zdaZTE3--6" value="" style="shape=image;verticalLabelPosition=bottom;verticalAlign=top;imageAspect=0;aspect=fixed;image=data:image/png,iVBORw0KGgoAAAANSUhEUgAAAC4AAAAxCAIAAAAqWwwuAAAAAXNSR0IArs4c6QAAAARnQU1BAACxjwv8YQUAAAAJcEhZcwAADsMAAA7DAcdvqGQAAAlFSURBVFhHvVh7UFNXHoaEJBDkkfAIiASGx7orIAVEEJQuVMAHKELHojj7R3d0/5KBnensbIuzLp1CsR1dXVeowmLFcQXFuhTqulN8MHSUdwHlGUIRBBISFAiPvPdL7m2WRwg3Wv3IDPee8zvnfOf3Or9zLbVarcWrQqFQ0Ol0kVhsy2avW7dOo9EwGAyyz3yYTUUkEj158qS2tranp2d+bo5Gp72YfGFtbW3DZms1Gg6HsyMmJjIy0tfX187OjhxDDVSpqFSqhw8f3r59u6mpSalUYmG2DRsLQytMJkutRr96QT4vFovpdNqkROri4pK8b19ycrK/vz85xVqgRKWmpqakpKSjo8PNzT0wKMjXx9f/V/5cLhe6oOlA12o1mAcUZ2dnx8ZGu552DQwIfhr6SSFf2LNnz4cf/t7Pz4+ca3WsQWVoaOjM6dNVVVXevj4x298NDQvj8/lwCKyqVqvhHKScHpaWluBlZWUFVU3PTAv6BT/8UN/a3AyiWdnZ6enpaCdFjcEUlbq6ury8/PHx8cRdu3bGx/NceVgbrkpFkViVwWCqVMq+vr5vblU2Nzdti4z829mzMBwpsQLGqaCxtLQ0Ly9v469/88EH6QEBAZiaIonF0BNiTE9P379XW1r6Tz9f388LCsLCwsjupTBCBR5YWFiYn58fFRV99NgfXF1d0bLMFmaBiPC2traLhRcsaZb/uHDBKBsjVG7cuJGdlZW8b/+hwxkISLiFucpYCfgQk8ns7e398otTiL3i4uKVjrycCiL2SMaRsPAtH330JwQsjAJnJPteA1gFbFgsFsIw9+RfgjYHXb58eVnioZ88eZJ81Kev48ePc7nO2dl/dHBwgD4QE6DymlrRxTuNBhMD7uvXOzk5ISTl8vmYmJjF+/z/MgjO3Nzc4kuX8gu+CAwMUioVGD83N9fX2yuVSBCmhJh50Gox0InL9fbxsbe3BxU4Mqb9qqjoznfVxSUlCQkJpORiKq2trSn79x/OOJKa9j7aQRfe+v1/714pLaXR6a9uJiyg1YaEhh3Pzob/4hlOI5FIPs39K8fRoezqVVAkBMm9YtWysrINfH5s3Ht0uhWSEt3KampqqrWlZWFhQSGXyxcWXvEnl8tkssFB4cjwMPSBtWB3Ho93IDVtQCisqKggCAAkladPn35z69auxN1I5xqNmmjU70cLlQLIoXjGvHBkisD2fh5Lx5wzMplhWrDBkenpya+srHz58iXRbkX0lZeX8728tm7dCuKYgugDDHZRq9Q4/Hhubjj4iBZT0A2yhDrHx8bgH4YmA7AEwgJneEX59fr6+qSkJDTqqIyOjpZduZJ+KIOjU4nxVDYzM5Ocsu/Tzz6TzZKbMwFLC91h1N7enp2ZOSebJVuXAkS3bNlSfv1fVVX/3rt3L/asM1BnZyfL2jpo82bCrQjRZdBoNba2tnCx9QjHtX7u7u7wBqRpLLBaGoBieDy3gMCgkZHnKC3QoqOCEgTRi/F4Xo0KYKLLKFZTMAHMBjcKDw+XSKSNjQ1oocET79+/7+HhYcO2MT34Fwec19/Pf1IqffzoMV5pk5OTz5494zo5MRlMc/f9mkBSdXB05LnxiCCiwU4atdrNzQ3h+pa1guVwDDk6ciRSCdI6DZWRQql0dHSE5UiRtwUYgW1rCzbIpahEkdN1SZ2mDyUTwDCojXyhBhsbG/JpdWBa6AaRDw5UZ0ecP3/+vKHhsUpJIcUBlpYoJTVqjS6eqXkgVSpIKi3NLTl//mRxLjYBMJhfmEeMYMeGk8Q0aETUQEHE+2qAHaenprq7ugR9/VR+/b29o8MjmByciBmIhZYBvQDJARdMVBA4q2Azw7CVgDTY4BbIsmZR+1kzmExiLM4vlP4o4YhXA7AcqiKAYcXA5DTUVPDHyReTiHJSxBgwDKaBnyPqqAPyANfZeWfCLi8+f5liMOfC/PzsrAxZDXFk5enpCUYT4glQgV2NqhHAvOERESkHUufn58kmCtDiz8LCzs4exz68bdlusRySm1gkfic4GOqwQshFb9/+bHgIe8AYUmoF4IBu7u5xO+Nx7SObKAMpFFZYqXWsPjIyzGKyNgUE4FWXTmJjY1uamialk1CPXsYIdAZSKmWymVkZygTzflDkSh6YEAni0aNHGgsNcS3SUYmIiEDdJxQKMQASesk3DlgHSbanu9tjgwfxtUFHxcfHJzo6Gic1HMKEYn5ZoNjGXQKGS9qbhMBEi44KbJaamtrY8FggEOD1LSgGKoHz3bnzHYNBj4+PJxuJf/HxO339/O7Vfo86D3JE45sDckx3d1dPT09CQqKXlxfRSK7K5TodPXq0ru4hiktQeaOKgQ/g3vBtVZUt2yYjI4NsNVABdu/evW3bthsV5VKpFBeGN8RFHzjM+rq6xoaG1LQ0b29vsmMxFZQsmZmZA4L+69evIR+DO9KdoZjCw8qANBfgAQ/F9azsytchoSHHjh0jO/RY4hZRUVE5OTl3amru3v0PeLBYcHOm7homl4MZ0uVquZgKwAOzTUyIiy9dxP3hxIkTpr4kQBqJD3XJ15dLXVxdN20KQItQMIBc9E5ISPKBA3b6KzgpbQ4IHrgq//3c2Y72H/Pz8+Pi4si+n2HkgwXOhU8+/riy8lZmVlZc3Hui8XGRSOSxYQPqX4rFyjIgDhAyqFzPnz/X3tZ2+syZtLQ0sm8RjFABwOZETs7NmzcPHT4C50IljPv7q/GARnFp7u/ru/hVIXIaeCCHkX1LscRABsC5duzYoVKrYal+QT9ua6glsDNYh7q7IHNiCPFN8Py5cwqF/POCgpSUFLJ7BYxrxYCyq1e/PHUKKv7tu7GxcbG4+2N24pg16jTwCZgDJKCMqempzo7Omupvf2xrxS0wLz9/48aNpJwxrEEFGBwcLCoqqq6uZtuuCwwIDA4Oxu3a3t6BbctG7kH+JsRAAmWbQq5AsTE2NtbU2NDT29Pf18/hOP5OD+yBkFwNa1Mh0NzcfO3aNZzpMzMzuKIjOztxnby8vXBH15dHFkqValAoFIlFUskEasLxsXE+3zMt7f2DBw86Ozvr51gDVKkQwFXywYMH92prB4RCOAGbzeZwORb6UhrqmRCLca1ycXYOCQ1NSEzcHBSEVESOpADzqBggk8lQbQwPDyNV4BVcABQbus9BPB4hYx4sLP4HJ4eB01PlMdUAAAAASUVORK5CYII=;strokeWidth=2;labelBackgroundColor=none;rounded=0;" vertex="1" parent="-yruJXw2zJWxo76HJyfp-1">
          <mxGeometry x="-420" y="20" width="36.61" height="39" as="geometry" />
        </mxCell>
        <mxCell id="T9xS-H06mtn6zdaZTE3--7" style="edgeStyle=orthogonalEdgeStyle;rounded=1;orthogonalLoop=1;jettySize=auto;html=1;exitX=0.5;exitY=1;exitDx=0;exitDy=0;entryX=0;entryY=0.5;entryDx=0;entryDy=0;curved=0;strokeWidth=2;" edge="1" parent="-yruJXw2zJWxo76HJyfp-1" source="-yruJXw2zJWxo76HJyfp-37" target="T9xS-H06mtn6zdaZTE3--6">
          <mxGeometry relative="1" as="geometry">
            <Array as="points">
              <mxPoint x="-139" y="560" />
              <mxPoint x="-440" y="560" />
              <mxPoint x="-440" y="40" />
            </Array>
          </mxGeometry>
        </mxCell>
      </root>
    </mxGraphModel>
  </diagram>
</mxfile>
